<svg xmlns="http://www.w3.org/2000/svg" width="45" height="51" viewBox="0 0 45 51">
    <g fill="none" fill-rule="evenodd" stroke="#CD4A04" stroke-linecap="round" stroke-linejoin="round" stroke-width="1.5">
        <path d="M22.77 30.923s-1.04-3.677 2.914-7.388c0 0 1.632 1.965 1.337 6.516M20.758 23.338c.643 1.632-.867 4.291-.867 4.291s-2.78-.863-3.42-2.496c-.64-1.63.168-5.694.168-5.694s3.478 2.265 4.12 3.9zM29.673 37.793c0 3.793-3.277 6.87-7.32 6.87-4.041 0-7.318-3.077-7.318-6.87 0-3.794 3.277-6.87 7.319-6.87s7.32 3.076 7.32 6.87z" transform="translate(1 1)"/>
        <path d="M25.07 31.278c.981-.878 2.24-1.494 3.67-1.708 3.695-.55 7.11 1.817 7.624 5.284.517 3.468-2.06 6.726-5.754 7.275-.612.092-1.215.103-1.8.042M15.342 41.654c-3.696.551-7.11-1.814-7.627-5.282-.517-3.466 2.06-6.724 5.754-7.273 2.48-.371 4.833.57 6.267 2.276M19.996 35.254c.061.003.101.091.061.14M26.344 36.128L26.344 36.405M18.47 40.012c.055.04.095.105.1.176M22.7 38.487c-.01.075.016.155.07.207M25.199 42.164L25.199 42.407M23.706 33.109c.013.011.025.025.036.036M31.235 31.549l.036.069M34.773 36.128L34.773 36.302M32.485 34.254L32.485 34.29M32.068 38.347L32.068 38.556M15.208 31.409L15.208 31.445M11.006 33.56c.014.093.025.186.036.278M13.127 37.169L13.161 37.169M10.206 38.176c.025.068.046.137.071.206" transform="translate(1 1)"/>
        <path d="M38.35 38.176c3.031.968 4.852 2.205 4.852 3.558 0 3.091-9.511 6.145-21.242 6.145-11.733 0-21.242-3.054-21.242-6.145 0-1.353 1.82-2.592 4.853-3.558M23.403.718c-3.03.696-3 4.396-2.188 6.757 1.027 2.978 4.29 5.63.57 8.249M28.07 7.709c-1.81 2.619 1.925 5.408.245 8.03M15.587 5.848c-2.183 1.574 2.65 5.712.3 6.332" transform="translate(1 1)"/>
    </g>
</svg>
