<?xml version="1.0" encoding="UTF-8"?>
<svg width="59px" height="59px" viewBox="0 0 59 59" version="1.1" xmlns="http://www.w3.org/2000/svg" xmlns:xlink="http://www.w3.org/1999/xlink">
    <title>bookmark</title>
    <g id="Page-1" stroke="none" stroke-width="1" fill="none" fill-rule="evenodd">
        <g id="01-About-Qatar" transform="translate(-661.000000, -6270.000000)">
            <g id="Group-44" transform="translate(153.000000, 6188.000000)">
                <g id="Group-39" transform="translate(114.000000, 0.000000)">
                    <g id="Group-38" transform="translate(0.000000, 82.000000)">
                        <g id="Group-37-Copy" transform="translate(394.000000, 0.000000)">
                            <g id="bookmark">
                                <circle id="Oval" fill="#F1F1F1" cx="29.5" cy="29.5" r="29.5"></circle>
                                <g transform="translate(21.000000, 20.000000)" fill="#B51647" fill-rule="nonzero" id="Shape">
                                    <path d="M16.3818224,0 L0.606187594,0 C0.280381944,0 0.0159034611,0.264241507 0.0159034611,0.590277778 L0.0159034611,19.2977946 C0.015448691,19.7407335 0.262858073,20.1465495 0.656684028,20.3489963 C1.05074055,20.5512126 1.52480739,20.5159342 1.88427734,20.2574571 L8.49400502,15.5193251 L15.1039632,20.2572266 C15.4636637,20.5152425 15.9372694,20.5502903 16.3310954,20.348074 C16.7246908,20.1458577 16.9723307,19.7402724 16.9723307,19.2977946 L16.9723307,0.590277778 C16.9723307,0.264241507 16.7078586,0 16.3818224,0 Z M15.7915446,19.297564 L8.83825685,14.3131754 C8.63258194,14.1658366 8.35588923,14.1658366 8.15044488,14.3131754 L1.19692656,19.2977946 L1.19692656,1.18055556 L15.7915446,1.18055556 L15.7915446,19.297564 Z"></path>
                                </g>
                            </g>
                        </g>
                    </g>
                </g>
            </g>
        </g>
    </g>
</svg>