<svg xmlns="http://www.w3.org/2000/svg" width="14" height="14" viewBox="0 0 14 14">
    <path fill="#1C1517" stroke="#1C1517" stroke-width=".5" d="M11.453 1.938h-1.078v-.563c0-.207-.168-.375-.375-.375s-.375.168-.375.375v.563h-5.25v-.563C4.375 1.168 4.207 1 4 1s-.375.168-.375.375v.563H2.547C1.694 1.938 1 2.63 1 3.484v7.97C1 12.305 1.694 13 2.547 13h8.906c.853 0 1.547-.694 1.547-1.547V3.484c0-.853-.694-1.546-1.547-1.546zm-8.906.75h1.078v.374c0 .208.168.376.375.376s.375-.168.375-.376v-.374h5.25v.374c0 .208.168.376.375.376s.375-.168.375-.376v-.374h1.078c.44 0 .797.357.797.796v.891H1.75v-.89c0-.44.357-.797.797-.797zm8.906 9.562H2.547c-.44 0-.797-.357-.797-.797V5.125h10.5v6.328c0 .44-.357.797-.797.797z"/>
</svg>
