<svg xmlns="http://www.w3.org/2000/svg" width="21" height="21" viewBox="0 0 21 21">
    <g fill="none" fill-rule="evenodd" stroke="#FFF" stroke-linecap="round" stroke-linejoin="round" stroke-width="1.3">
        <path d="M10.501 4.43c-.229-.252-.562-.407-.939-.407-.765-.016-1.282.674-1.282 1.267.001.585.515 1.276 1.286 1.265.416-.006.78-.197 1.009-.499L10.5 4.43zM4.548 5.934V4.687c.078-.26.234-.41.52-.429.191-.012.38-.064.567-.112.164-.042.291-.144.372-.297.093-.176.065-.355-.027-.512-.115-.198-.253-.383-.393-.565-.131-.17-.15-.383-.019-.55.264-.332.558-.636.9-.888.202-.147.432-.14.622.027.174.154.36.287.575.377.266.11.528.032.677-.213.054-.087.094-.186.116-.286.04-.181.056-.367.095-.548.015-.076.058-.147.096-.216.087-.158.257-.154.402-.201h1.024c.02.01.04.024.06.028.288.055.412.2.441.489.015.153.036.31.079.458.15.538.523.68 1 .386.143-.09.274-.201.408-.306.144-.112.4-.131.536-.028.357.269.675.578.946.934.035.046.082.103.079.152-.01.16-.019.315-.145.45-.139.15-.26.326-.353.508-.137.268-.096.665.346.795.212.062.432.102.652.128.129.015.232.054.305.153.06.082.1.176.148.266v1.247c-.05.08-.09.166-.15.237-.107.127-.252.168-.417.17-.24.003-.474.046-.689.158-.173.09-.261.232-.259.432.003.162.043.31.134.44.105.154.22.3.328.45.133.186.125.414-.019.591-.243.302-.523.565-.827.807-.12.095-.237.13-.387.118-.103-.01-.178-.05-.255-.113-.214-.174-.423-.353-.705-.411-.175-.037-.336 0-.451.124-.093.1-.168.23-.21.36-.053.174-.078.361-.094.546-.01.118-.036.222-.133.292-.087.063-.185.112-.279.167H8.961c-.258-.077-.414-.231-.427-.52-.007-.16-.048-.322-.084-.48-.087-.39-.477-.664-.93-.388-.158.096-.306.21-.45.324-.177.14-.405.15-.587.014-.347-.259-.659-.553-.92-.899-.044-.06-.068-.145-.077-.222-.02-.14.048-.25.134-.362.14-.18.282-.368.377-.573.159-.347.024-.638-.337-.756-.173-.056-.361-.088-.544-.097-.286-.014-.473-.14-.568-.409z" transform="translate(1 1)"/>
        <path d="M14.895 5.031h3.226c.404 0 .73.327.73.731v11.972c0 .404-.326.731-.73.731H1.005c-.404 0-.731-.327-.731-.73V5.761c0-.404.327-.73.73-.73h2.323" transform="translate(1 1)"/>
    </g>
</svg>
