<svg xmlns="http://www.w3.org/2000/svg" xmlns:xlink="http://www.w3.org/1999/xlink" width="56" height="56" viewBox="0 0 56 56">
    <defs>
        <filter id="prefix__a" width="120%" height="120%" x="-10%" y="-8%" filterUnits="objectBoundingBox">
            <feOffset dy="1" in="SourceAlpha" result="shadowOffsetOuter1"/>
            <feGaussianBlur in="shadowOffsetOuter1" result="shadowBlurOuter1" stdDeviation="1.5"/>
            <feComposite in="shadowBlurOuter1" in2="SourceAlpha" operator="out" result="shadowBlurOuter1"/>
            <feColorMatrix in="shadowBlurOuter1" values="0 0 0 0 0 0 0 0 0 0 0 0 0 0 0 0 0 0 0.091673951 0"/>
        </filter>
        <circle id="prefix__b" cx="25" cy="25" r="25"/>
    </defs>
    <g fill="none" fill-rule="evenodd" transform="translate(3 2)">
        <use fill="#000" filter="url(#prefix__a)" xlink:href="#prefix__b"/>
        <circle cx="25" cy="25" r="24.5" fill="#FFF" stroke="#6A6A6B" stroke-linejoin="square"/>
        <path fill="#1C1517" d="M18.636 18.636c.27-.27.709-.27.98 0l5.383 5.385 5.386-5.385c.27-.27.709-.27.979 0s.27.709 0 .98L25.979 25l5.385 5.385c.27.27.27.709 0 .979s-.709.27-.98 0L25 25.979l-5.384 5.385c-.27.27-.709.27-.979 0s-.27-.709 0-.98L24.02 25l-5.384-5.385c-.27-.27-.27-.709 0-.979z"/>
    </g>
</svg>
