<svg xmlns="http://www.w3.org/2000/svg" width="60" height="70" viewBox="0 0 60 70">
    <path fill-rule="evenodd" d="M9.422 82.5c9.163 2.423 20.321 12.89 20.574 13.127l.004.004S23.554 106.284 20.33 110C9.96 100.049 0 96.126 0 96.126S3.967 89.685 9.422 82.5zm41.156 0C56.033 89.685 60 96.126 60 96.126S50.041 100.05 39.67 110C36.446 106.284 30 95.63 30 95.63S41.31 84.95 50.578 82.5zm50.092 0C111.04 92.451 121 96.374 121 96.374s-3.967 6.441-9.422 13.626C102.31 107.55 91 96.87 91 96.87s6.446-10.654 9.67-14.37zm-19.34 0c3.175 3.66 9.475 14.048 9.666 14.362l.004.007S79.69 107.55 70.422 110C64.967 102.815 61 96.374 61 96.374S70.959 92.45 81.33 82.5zM9.422 55c9.163 2.423 20.321 12.89 20.574 13.127l.004.004S23.554 78.784 20.33 82.5C9.96 72.549 0 68.626 0 68.626S3.967 62.185 9.422 55zm41.156 0C56.033 62.185 60 68.626 60 68.626S50.041 72.55 39.67 82.5C36.446 78.784 30 68.13 30 68.13S41.31 57.45 50.578 55zm50.092 0C111.04 64.951 121 68.874 121 68.874s-3.967 6.441-9.422 13.626C102.31 80.05 91 69.37 91 69.37s6.446-10.654 9.67-14.37zm-19.34 0c3.175 3.66 9.475 14.048 9.666 14.362l.004.007S79.69 80.05 70.422 82.5C64.967 75.315 61 68.874 61 68.874S70.959 64.95 81.33 55zM9.422 27.5c9.163 2.423 20.321 12.89 20.574 13.127l.004.004S23.554 51.284 20.33 55C9.96 45.049 0 41.126 0 41.126S3.967 34.685 9.422 27.5zm41.156 0C56.033 34.685 60 41.126 60 41.126S50.041 45.05 39.67 55C36.446 51.284 30 40.63 30 40.63S41.31 29.95 50.578 27.5zm50.092 0C111.04 37.451 121 41.374 121 41.374s-3.967 6.441-9.422 13.626C102.31 52.55 91 41.87 91 41.87s6.446-10.654 9.67-14.37zm-19.34 0c3.175 3.66 9.475 14.048 9.666 14.362l.004.007S79.69 52.55 70.422 55C64.967 47.815 61 41.374 61 41.374S70.959 37.45 81.33 27.5zM9.422 0c9.163 2.423 20.321 12.89 20.574 13.127l.004.004S23.554 23.784 20.33 27.5C9.96 17.549 0 13.626 0 13.626S3.967 7.185 9.422 0zm41.156 0C56.033 7.185 60 13.626 60 13.626S50.041 17.55 39.67 27.5C36.446 23.784 30 13.13 30 13.13S41.31 2.45 50.578 0zm50.092 0C111.04 9.951 121 13.874 121 13.874s-3.967 6.441-9.422 13.626C102.31 25.05 91 14.37 91 14.37S97.446 3.715 100.67 0zM81.33 0c3.175 3.66 9.475 14.048 9.666 14.362l.004.007S79.69 25.05 70.422 27.5C64.967 20.315 61 13.874 61 13.874S70.959 9.95 81.33 0z" opacity=".08"/>
</svg>
