<svg xmlns="http://www.w3.org/2000/svg" width="24" height="17" viewBox="0 0 24 17">
    <g fill="#6A6A6B" stroke="#6A6A6B" stroke-width=".3">
        <path d="M21.583 15H.417C.187 15 0 14.813 0 14.583c0-.23.187-.416.417-.416h21.166c.23 0 .417.186.417.416 0 .23-.187.417-.417.417z" transform="translate(1 1)"/>
        <path d="M6.417 15H2.25c-.23 0-.417-.187-.417-.417V4.167c0-.46.375-.834.834-.834H6c.46 0 .833.374.833.834v10.416c0 .23-.186.417-.416.417zm-3.75-.833H6v-10H2.667v10zM13.083 15H8.917c-.23 0-.417-.187-.417-.417V.833C8.5.374 8.874 0 9.333 0h3.334c.459 0 .833.374.833.833v13.75c0 .23-.187.417-.417.417zm-3.75-.833h3.334V.833H9.333v13.334zM19.75 15h-4.167c-.23 0-.416-.187-.416-.417V6.667c0-.46.374-.834.833-.834h3.333c.46 0 .834.374.834.834v7.916c0 .23-.187.417-.417.417zM16 14.167h3.333v-7.5H16v7.5z" transform="translate(1 1)"/>
    </g>
</svg>
