<svg xmlns="http://www.w3.org/2000/svg" width="47" height="39" viewBox="0 0 47 39">
    <g fill="none" fill-rule="evenodd" stroke="#B51647" stroke-linecap="round" stroke-linejoin="round" stroke-width="1.7">
        <path d="M31.51 3.396h9.693c1.81 0 3.277 1.453 3.277 3.245v27.143c0 1.79-1.467 3.245-3.277 3.245H3.941c-1.81 0-3.278-1.454-3.278-3.245V6.641c0-1.792 1.469-3.245 3.278-3.245H31.51M9.095.663L9.095 6.154M22.572.663L22.572 6.154M36.049.663L36.049 6.154" transform="translate(1 1)"/>
        <path d="M22.572 11.492L25.406 17.234 31.742 18.154 27.156 22.623 28.239 28.932 22.572 25.954 16.905 28.932 17.986 22.623 13.402 18.154 19.738 17.234z" transform="translate(1 1)"/>
    </g>
</svg>
