<svg xmlns="http://www.w3.org/2000/svg" width="48" height="47" viewBox="0 0 48 47">
    <g fill="none" fill-rule="evenodd" stroke="#CD4A04" stroke-linecap="round" stroke-linejoin="round" stroke-width="1.5">
        <path d="M15.186 20.13H9.649l-6.13 5.142-.198-5.142C1.937 20.13.75 18.943.75 17.56V3.32C.75 1.936 1.937.75 3.321.75h19.973c1.385 0 2.572 1.186 2.572 2.57v12.064"/>
        <path d="M19.34 39.313h16.81l7.513 6.328.198-6.328c1.78 0 3.165-1.385 3.165-3.164v-17.6c0-1.78-1.385-3.165-3.165-3.165H19.34c-1.779 0-3.164 1.384-3.164 3.164V36.15c0 1.78 1.385 3.164 3.164 3.164z"/>
        <path d="M26.854 32.787L31.205 20.724 35.753 32.787M28.436 28.436L33.776 28.436M17.165 13.604c-.396 0-.791.198-1.188.198-.792 0-1.78.198-2.57 0-.791 0-1.78-.396-2.373-.79-.792-.595-.99-1.583-.595-2.374.396-.594.791-.989 1.386-1.187.988-.593 2.175-.989 3.36-1.186h.396V7.078h-4.943c-.198 0-.396 0-.396.198-.395.395-.594.791-.79 1.384M12.813 4.507c.198.198.594.396.79.593"/>
    </g>
</svg>
