<svg xmlns="http://www.w3.org/2000/svg" width="35" height="35" viewBox="0 0 35 35">
    <g fill="none" fill-rule="evenodd">
        <path fill="#3966B8" d="M17.33 34.659C7.758 34.659 0 26.9 0 17.329 0 7.76 7.759 0 17.33 0c9.57 0 17.329 7.759 17.329 17.33 0 9.57-7.76 17.329-17.33 17.329z"/>
        <path fill="#FFF" fill-rule="nonzero" d="M20.616 11.003L18.969 11c-1.85 0-3.045 1.226-3.045 3.124v1.44H14.27c-.143 0-.259.117-.259.26v2.087c0 .143.116.259.259.259h1.655v5.267c0 .143.116.258.26.258h2.159c.143 0 .259-.115.259-.258V18.17h1.935c.143 0 .26-.116.26-.259v-2.087c0-.069-.027-.135-.076-.183-.048-.049-.114-.076-.183-.076h-1.936v-1.221c0-.587.14-.885.904-.885h1.11c.142 0 .258-.117.258-.26v-1.937c0-.143-.116-.26-.258-.26z"/>
    </g>
</svg>
