<svg xmlns="http://www.w3.org/2000/svg" width="78" height="53" viewBox="0 0 78 53">
    <path fill="#FFF" fill-rule="evenodd" d="M8.245 38.07c3.571 3.528 5.958 11.208 6.041 11.476l.002.007S8.502 52.7 6.034 53.536C3.867 46.226.3 41.78.3 41.78l.047-.025c.428-.226 3.778-1.98 7.897-3.685zm19.01 10.975c.625 4.735.76 8.735.76 8.735s-5.635-.865-13.049.913c-.509-2.556-.678-9.14-.678-9.14s8.04-1.86 12.967-.508zm22.961 13.09c2.167 7.31 5.733 11.758 5.733 11.758l-.02.01c-.296.157-3.707 1.954-7.924 3.7-3.635-3.592-6.043-11.484-6.043-11.484s5.786-3.146 8.254-3.983zm-8.932-5.156c.498 2.5.67 8.855.678 9.13v.01s-8.04 1.86-12.967.508c-.625-4.735-.76-8.734-.76-8.734s5.635.864 13.049-.914zM15.495 25.512c3.571 3.528 5.958 11.208 6.041 11.477l.002.007s-5.786 3.145-8.254 3.983c-2.167-7.31-5.733-11.757-5.733-11.757l.047-.024c.428-.227 3.778-1.981 7.897-3.686zm19.01 10.976c.625 4.735.76 8.734.76 8.734s-5.635-.864-13.049.914c-.509-2.557-.678-9.14-.678-9.14s8.04-1.861 12.967-.508zm22.961 13.09c2.167 7.31 5.733 11.757 5.733 11.757l-.02.011c-.296.157-3.707 1.954-7.924 3.699-3.635-3.59-6.043-11.484-6.043-11.484s5.786-3.145 8.254-3.982zm-8.932-5.157c.498 2.501.67 8.856.678 9.131v.01s-8.04 1.86-12.967.508c-.625-4.736-.76-8.735-.76-8.735s5.635.865 13.049-.914zM22.745 12.955c3.571 3.528 5.958 11.208 6.041 11.476l.002.008s-5.786 3.145-8.254 3.982c-2.167-7.31-5.733-11.756-5.733-11.756l.047-.025c.428-.226 3.778-1.98 7.897-3.685zm19.01 10.975c.625 4.736.76 8.735.76 8.735s-5.635-.865-13.049.914c-.509-2.557-.678-9.14-.678-9.14s8.04-1.861 12.967-.509zm22.961 13.091c2.167 7.31 5.733 11.757 5.733 11.757l-.02.01c-.296.157-3.707 1.955-7.924 3.7-3.635-3.591-6.043-11.484-6.043-11.484s5.786-3.145 8.254-3.983zm-8.932-5.157c.498 2.5.67 8.856.678 9.13v.01s-8.04 1.861-12.967.508c-.625-4.735-.76-8.734-.76-8.734s5.635.864 13.049-.914zM29.995.398c3.571 3.528 5.958 11.208 6.041 11.476l.002.007s-5.786 3.146-8.254 3.983C25.617 8.554 22.05 4.107 22.05 4.107l.047-.024c.428-.226 3.778-1.981 7.897-3.685zm19.01 10.975c.625 4.735.76 8.734.76 8.734s-5.635-.864-13.049.914c-.509-2.556-.678-9.14-.678-9.14s8.04-1.86 12.967-.508zm22.961 13.09C74.133 31.774 77.7 36.22 77.7 36.22l-.02.011c-.296.157-3.707 1.954-7.924 3.7-3.635-3.592-6.043-11.484-6.043-11.484s5.786-3.146 8.254-3.983zm-8.932-5.156c.498 2.5.67 8.855.678 9.13v.01s-8.04 1.86-12.967.508c-.625-4.735-.76-8.735-.76-8.735s5.635.865 13.049-.913z"/>
</svg>
