<?xml version="1.0" encoding="UTF-8"?>
<svg width="99px" height="82px" viewBox="0 0 99 82" version="1.1" xmlns="http://www.w3.org/2000/svg" xmlns:xlink="http://www.w3.org/1999/xlink">
    <title>ic_latest_news_bg_pattern</title>
    <g id="Page-1" stroke="none" stroke-width="1" fill="none" fill-rule="evenodd" opacity="0.0751674122">
        <g id="03-tourist" transform="translate(-1341.000000, -4117.000000)" fill="#000000">
            <g id="Group-6" transform="translate(0.000000, 3369.000000)">
                <g id="Group-32">
                    <path d="M1350.42167,830.5 C1359.58508,832.923046 1370.74323,843.389158 1370.99564,843.626711 L1371,843.630821 C1371,843.630821 1364.55365,854.283869 1361.33047,858 C1350.95851,848.048864 1341,844.126164 1341,844.126164 C1341,844.126164 1344.96674,837.68459 1350.42167,830.5 Z M1391.57833,830.5 C1397.03326,837.68459 1401,844.126164 1401,844.126164 C1401,844.126164 1391.04149,848.048864 1380.66953,858 C1377.44635,854.283869 1371,843.630821 1371,843.630821 C1371,843.630821 1382.30959,832.950897 1391.57833,830.5 Z M1441.66953,830.5 C1452.04149,840.451136 1462,844.373836 1462,844.373836 C1462,844.373836 1458.03326,850.81541 1452.57833,858 C1443.30959,855.549103 1432,844.869179 1432,844.869179 C1432,844.869179 1438.44635,834.216131 1441.66953,830.5 Z M1422.33047,830.5 C1425.50481,834.159826 1431.8054,844.547952 1431.99559,844.861904 L1432,844.869179 C1432,844.869179 1420.69041,855.549103 1411.42167,858 C1405.96674,850.81541 1402,844.373836 1402,844.373836 C1402,844.373836 1411.95851,840.451136 1422.33047,830.5 Z M1350.42167,803 C1359.58508,805.423046 1370.74323,815.889158 1370.99564,816.126711 L1371,816.130821 C1371,816.130821 1364.55365,826.783869 1361.33047,830.5 C1350.95851,820.548864 1341,816.626164 1341,816.626164 C1341,816.626164 1344.96674,810.18459 1350.42167,803 Z M1391.57833,803 C1397.03326,810.18459 1401,816.626164 1401,816.626164 C1401,816.626164 1391.04149,820.548864 1380.66953,830.5 C1377.44635,826.783869 1371,816.130821 1371,816.130821 C1371,816.130821 1382.30959,805.450897 1391.57833,803 Z M1441.66953,803 C1452.04149,812.951136 1462,816.873836 1462,816.873836 C1462,816.873836 1458.03326,823.31541 1452.57833,830.5 C1443.30959,828.049103 1432,817.369179 1432,817.369179 C1432,817.369179 1438.44635,806.716131 1441.66953,803 Z M1422.33047,803 C1425.50481,806.659826 1431.8054,817.047952 1431.99559,817.361904 L1432,817.369179 C1432,817.369179 1420.69041,828.049103 1411.42167,830.5 C1405.96674,823.31541 1402,816.873836 1402,816.873836 C1402,816.873836 1411.95851,812.951136 1422.33047,803 Z M1350.42167,775.5 C1359.58508,777.923046 1370.74323,788.389158 1370.99564,788.626711 L1371,788.630821 C1371,788.630821 1364.55365,799.283869 1361.33047,803 C1350.95851,793.048864 1341,789.126164 1341,789.126164 C1341,789.126164 1344.96674,782.68459 1350.42167,775.5 Z M1391.57833,775.5 C1397.03326,782.68459 1401,789.126164 1401,789.126164 C1401,789.126164 1391.04149,793.048864 1380.66953,803 C1377.44635,799.283869 1371,788.630821 1371,788.630821 C1371,788.630821 1382.30959,777.950897 1391.57833,775.5 Z M1441.66953,775.5 C1452.04149,785.451136 1462,789.373836 1462,789.373836 C1462,789.373836 1458.03326,795.81541 1452.57833,803 C1443.30959,800.549103 1432,789.869179 1432,789.869179 C1432,789.869179 1438.44635,779.216131 1441.66953,775.5 Z M1422.33047,775.5 C1425.50481,779.159826 1431.8054,789.547952 1431.99559,789.861904 L1432,789.869179 C1432,789.869179 1420.69041,800.549103 1411.42167,803 C1405.96674,795.81541 1402,789.373836 1402,789.373836 C1402,789.373836 1411.95851,785.451136 1422.33047,775.5 Z M1350.42167,748 C1359.58508,750.423046 1370.74323,760.889158 1370.99564,761.126711 L1371,761.130821 C1371,761.130821 1364.55365,771.783869 1361.33047,775.5 C1350.95851,765.548864 1341,761.626164 1341,761.626164 C1341,761.626164 1344.96674,755.18459 1350.42167,748 Z M1391.57833,748 C1397.03326,755.18459 1401,761.626164 1401,761.626164 C1401,761.626164 1391.04149,765.548864 1380.66953,775.5 C1377.44635,771.783869 1371,761.130821 1371,761.130821 C1371,761.130821 1382.30959,750.450897 1391.57833,748 Z M1441.66953,748 C1452.04149,757.951136 1462,761.873836 1462,761.873836 C1462,761.873836 1458.03326,768.31541 1452.57833,775.5 C1443.30959,773.049103 1432,762.369179 1432,762.369179 C1432,762.369179 1438.44635,751.716131 1441.66953,748 Z M1422.33047,748 C1425.50481,751.659826 1431.8054,762.047952 1431.99559,762.361904 L1432,762.369179 C1432,762.369179 1420.69041,773.049103 1411.42167,775.5 C1405.96674,768.31541 1402,761.873836 1402,761.873836 C1402,761.873836 1411.95851,757.951136 1422.33047,748 Z" id="ic_latest_news_bg_pattern"></path>
                </g>
            </g>
        </g>
    </g>
</svg>