<?xml version="1.0" encoding="UTF-8"?>
<svg width="50px" height="34px" viewBox="0 0 50 34" version="1.1" xmlns="http://www.w3.org/2000/svg" xmlns:xlink="http://www.w3.org/1999/xlink">
    <title>ic_planning_journey</title>
    <g id="Page-1" stroke="none" stroke-width="1" fill="none" fill-rule="evenodd" stroke-linecap="round" stroke-linejoin="round">
        <g id="03-tourist" transform="translate(-182.000000, -1099.000000)" stroke="#B51647" stroke-width="1.5">
            <g id="Group-Copy-8" transform="translate(151.000000, 986.000000)">
                <g id="Group-14-Copy" transform="translate(0.000000, 82.000000)">
                    <g id="Group-13" transform="translate(32.000000, 32.000000)">
                        <g id="ic_planning_journey">
                            <path d="M9.66336,22.83888 L8.34336,22.41488 C7.62176,22.18608 7.04576,21.63408 6.78336,20.92368 L2.69056,9.79408 C2.47936,9.21808 2.77056,8.58288 3.34496,8.36848 L19.61536,2.32688 C20.34336,2.05648 21.16096,2.23408 21.70816,2.78128 L25.40736,6.46928 C25.89376,6.95248 26.59616,7.15088 27.26496,6.99408 L32.60896,5.73168 C34.28096,5.33648 35.97856,6.27888 36.52736,7.90928 L38.24896,13.02128 L36.11136,13.90608" id="Stroke-1"></path>
                            <path d="M17.95248,20.31088 C18.24688,22.20688 16.94928,23.97968 15.05328,24.27568 C13.16048,24.56848 11.38608,23.27248 11.09008,21.37648 C10.79568,19.48048 12.09328,17.70768 13.98768,17.41168 C15.88368,17.11888 17.65808,18.41488 17.95248,20.31088 Z" id="Stroke-3"></path>
                            <path d="M34.71184,15.31232 C34.99664,17.14272 33.74384,18.85632 31.91344,19.14112 C30.08144,19.42432 28.36944,18.17152 28.08464,16.34272 C27.80144,14.51232 29.05264,12.79872 30.88304,12.51392 C32.71344,12.22912 34.42704,13.48192 34.71184,15.31232 Z" id="Stroke-5"></path>
                            <line x1="19.56176" y1="19.57792" x2="26.62896" y2="17.16992" id="Stroke-7"></line>
                            <line x1="4.6072" y1="15.00768" x2="26.2264" y2="6.95808" id="Stroke-9"></line>
                            <line x1="7.57424" y1="7.17792" x2="9.79984" y2="13.07392" id="Stroke-11"></line>
                            <line x1="14.89152" y1="4.82176" x2="17.00192" y2="9.98496" id="Stroke-13"></line>
                            <line x1="3.46176" y1="5.54368" x2="17.09536" y2="0.59968" id="Stroke-15"></line>
                            <polyline id="Stroke-17" points="5.13376 20.78576 3.27616 21.45456 0.59936 14.02256 2.45696 13.35376"></polyline>
                            <path d="M2.62112,31.292 C3.34432,31.292 34.26112,19.4168 37.22272,20.3032 C40.18592,21.188 47.40032,26.908 47.40032,26.908" id="Stroke-19"></path>
                        </g>
                    </g>
                </g>
            </g>
        </g>
    </g>
</svg>