<?xml version="1.0" encoding="UTF-8"?>
<svg width="30px" height="30px" viewBox="0 0 30 30" version="1.1" xmlns="http://www.w3.org/2000/svg" xmlns:xlink="http://www.w3.org/1999/xlink">
    <title>ic_tourist_previous_button</title>
    <g id="Page-1" stroke="none" stroke-width="1" fill="none" fill-rule="evenodd">
        <g id="03-tourist" transform="translate(-265.000000, -481.000000)">
            <g id="banner">
                <g id="Group-8" transform="translate(265.000000, 219.000000)">
                    <g id="Group-2" transform="translate(0.000000, 262.000000)">
                        <g id="ic_tourist_previous_button" transform="translate(15.000000, 15.000000) rotate(-270.000000) translate(-15.000000, -15.000000) ">
                            <circle id="Oval" stroke="#D0D0D0" fill="#FFFFFF" cx="15" cy="15" r="14.5"></circle>
                            <path d="M16.8560854,15.3960411 L13.8388493,18.8358073 C13.6469167,19.0547309 13.3357307,19.0547309 13.1438913,18.8358073 C12.9520362,18.6170783 12.9520362,18.2623211 13.1438913,18.0436099 L15.8136794,14.9999425 L13.1439689,11.9563813 C12.9521139,11.7375638 12.9521139,11.382842 13.1439689,11.1641131 C13.3358239,10.9452956 13.6469943,10.9452956 13.838927,11.1641131 L16.8561631,14.6039323 C16.9520906,14.7133499 17,14.8566019 17,14.9999248 C17,15.1433184 16.9519974,15.2866767 16.8560854,15.3960411 Z" id="Path" stroke="#B51647" fill="#B51647" fill-rule="nonzero" transform="translate(15.000000, 15.000000) rotate(-180.000000) translate(-15.000000, -15.000000) "></path>
                        </g>
                    </g>
                </g>
            </g>
        </g>
    </g>
</svg>