<svg xmlns="http://www.w3.org/2000/svg" width="31" height="25" viewBox="0 0 31 25">
    <g fill="none" fill-rule="evenodd" stroke="#B51647" stroke-linecap="round" stroke-linejoin="round">
        <path d="M15.1.9L15.1 3.3M20.5 2.3L19.3 4.4M24.4 6.2L22.3 7.4M10 2.3L11.2 4.4M6.1 6.2L8.2 7.4M9.7 10.9c0-.1 0-.3.1-.4.5-2.6 2.7-4.6 5.5-4.6 2.9 0 5.3 2.2 5.5 5M10 21.9c2.3 0 2.3 2 4.6 2s2.3-2 4.6-2c1.3 0 1.9.6 2.6 1.2.3.2.5.4.9.5.3.1.7.2 1.2.2 2.3 0 2.3-2 4.6-2M3.4 17.5c1.6 0 1.6 1.3 3.2 1.3s1.6-1.3 3.2-1.3 1.6 1.3 3.2 1.3 1.6-1.3 3.2-1.3M.8 12.3c2.4 0 2.4 2.2 4.8 2.2s2.4-2.2 4.8-2.2 2.4 2.2 4.8 2.2 2.4-2.2 4.8-2.2 2.4 2.2 4.8 2.2 2.4-2.2 4.8-2.2M23.4 10.7L25.5 10.7M5.6 10.7L7.7 10.7"/>
    </g>
</svg>
