<?xml version="1.0" encoding="utf-8"?>
<!-- Generator: Adobe Illustrator 24.1.1, SVG Export Plug-In . SVG Version: 6.00 Build 0)  -->
<svg version="1.1" id="Layer_1" xmlns="http://www.w3.org/2000/svg" xmlns:xlink="http://www.w3.org/1999/xlink" x="0px" y="0px"
	 viewBox="0 0 32 32" style="enable-background:new 0 0 32 32;" xml:space="preserve">
<style type="text/css">
	.st0{fill:none;stroke:#cd4a04;stroke-width:0.75;stroke-linecap:round;stroke-linejoin:round;stroke-miterlimit:10;}
	.st1{fill:none;stroke:#cd4a04;stroke-width:0.75;stroke-linecap:round;stroke-linejoin:round;stroke-miterlimit:10;}
	.st2{fill:none;stroke:#cd4a04;stroke-width:0.75;stroke-linecap:round;stroke-miterlimit:10;}
	.st3{fill:none;stroke:#cd4a04;stroke-width:0.75;stroke-linecap:round;stroke-miterlimit:10;}
	.st4{fill:#cd4a04;}
	.st5{fill:#cd4a04;}
	.st6{fill:none;stroke:#FFFFFF;stroke-miterlimit:10;}
	.st7{fill:none;stroke:#0D143A;stroke-width:2;stroke-linecap:round;stroke-linejoin:round;stroke-miterlimit:10;}
</style>
<rect x="10.9" y="5.9" class="st1" width="10.6" height="23.1"/>
<rect x="21.5" y="10.6" class="st1" width="9.1" height="18.5"/>
<rect x="2.7" y="14.2" class="st1" width="8.2" height="14.9"/>
<g>
	<line class="st1" x1="13.4" y1="9.8" x2="14.6" y2="9.8"/>
	<line class="st1" x1="17.8" y1="9.8" x2="19.1" y2="9.8"/>
</g>
<g>
	<line class="st1" x1="13.4" y1="14.7" x2="14.6" y2="14.7"/>
	<line class="st1" x1="17.8" y1="14.7" x2="19.1" y2="14.7"/>
</g>
<g>
	<g>
		<line class="st1" x1="23.2" y1="15.3" x2="24.5" y2="15.3"/>
		<line class="st1" x1="27.7" y1="15.3" x2="28.9" y2="15.3"/>
	</g>
	<g>
		<line class="st1" x1="23.2" y1="19.8" x2="24.5" y2="19.8"/>
		<line class="st1" x1="27.7" y1="19.8" x2="28.9" y2="19.8"/>
	</g>
	<g>
		<line class="st1" x1="23.2" y1="24.4" x2="24.5" y2="24.4"/>
		<line class="st1" x1="27.7" y1="24.4" x2="28.9" y2="24.4"/>
	</g>
</g>
<g>
	<g>
		<line class="st1" x1="4.5" y1="17" x2="5.4" y2="17"/>
		<line class="st1" x1="8" y1="17" x2="9" y2="17"/>
	</g>
	<g>
		<line class="st1" x1="4.5" y1="21.6" x2="5.4" y2="21.6"/>
		<line class="st1" x1="8" y1="21.6" x2="9" y2="21.6"/>
	</g>
	<g>
		<line class="st1" x1="4.5" y1="26.2" x2="5.4" y2="26.2"/>
		<line class="st1" x1="8" y1="26.2" x2="9" y2="26.2"/>
	</g>
</g>
<g>
	<line class="st1" x1="13.4" y1="19.6" x2="14.6" y2="19.6"/>
	<line class="st1" x1="17.8" y1="19.6" x2="19.1" y2="19.6"/>
</g>
<rect x="14.6" y="22.7" class="st1" width="3.2" height="6.3"/>
</svg>
