<svg xmlns="http://www.w3.org/2000/svg" width="41" height="41" viewBox="0 0 41 41">
    <g fill="none" fill-rule="evenodd" stroke="#CD4A04" stroke-linecap="round" stroke-linejoin="round" stroke-width="1.5">
        <path d="M6.201 29.217c-.486.12-.981.217-1.457.368-.423.135-.821.34-1.235.501-.414.162-.753.028-.923-.375-.65-1.555-1.297-3.115-1.937-4.678-.176-.422-.026-.756.395-.937.39-.168.785-.323 1.176-.488 1.503-.63 2.467-2.072 2.469-3.718 0-1.787-.791-3.079-2.425-3.83-.384-.177-.783-.326-1.174-.49-.477-.2-.621-.527-.427-.997.633-1.542 1.273-3.082 1.917-4.622.172-.418.507-.557.936-.388.407.157.804.33 1.207.496 2.726 1.115 5.195-.966 5.572-3.131.135-.78.048-1.53-.254-2.26-.157-.383-.323-.763-.474-1.15-.169-.424-.035-.765.385-.94 1.546-.647 3.097-1.288 4.65-1.925.436-.182.773-.031.958.403.161.381.313.766.478 1.147.674 1.582 2.08 2.48 3.86 2.474 1.698-.006 3.065-.918 3.723-2.486.16-.381.312-.768.475-1.148.179-.417.516-.569.939-.395 1.563.638 3.121 1.286 4.68 1.935.401.168.535.51.374.923-.165.424-.357.837-.516 1.264-.609 1.652-.267 3.107.965 4.343 1.237 1.235 2.702 1.549 4.35.96.407-.147.802-.333 1.205-.496.477-.192.802-.061 1 .416.633 1.521 1.263 3.043 1.891 4.567.196.471.052.808-.412 1.005-.4.17-.81.318-1.203.501-1.526.711-2.359 1.905-2.391 3.597-.038 1.97.846 3.279 2.662 4.028.324.135.653.268.978.41.402.172.557.51.39.916-.644 1.571-1.295 3.14-1.95 4.705-.163.39-.497.523-.897.368-.415-.159-.821-.345-1.237-.504-1.603-.604-3.05-.333-4.288.85-1.303 1.247-1.68 2.744-1.055 4.458.15.41.332.805.494 1.21.181.456.045.787-.41.978-1.52.632-3.044 1.264-4.567 1.892-.498.206-.814.074-1.022-.418-.163-.393-.31-.791-.489-1.176-.718-1.555-1.95-2.367-3.654-2.415-1.772-.048-3.066.745-3.838 2.35-.197.41-.352.84-.53 1.258-.2.466-.515.606-.975.418-1.541-.635-3.081-1.275-4.621-1.917-.437-.183-.568-.514-.4-.96.241-.643.563-1.268.704-1.93.59-2.72-1.852-4.97-4.052-4.893l-.02-.074z" transform="translate(1 1)"/>
        <path d="M19.825 19.824l10.148.036c-.02 5.553-4.596 10.112-10.148 10.112-5.566 0-10.148-4.582-10.148-10.148S14.26 9.676 19.825 9.676c.114 0 .226.002.34.007l-.34 10.141z" transform="translate(1 1)"/>
        <path d="M30.591 17.321c0-4.344-3.523-7.867-7.866-7.867v7.867h7.866z" transform="translate(1 1)"/>
    </g>
</svg>
