<svg xmlns="http://www.w3.org/2000/svg" width="26" height="26" viewBox="0 0 26 26">
    <g fill="none" fill-rule="evenodd">
        <path fill="#E35205" d="M13 26C5.82 26 0 20.18 0 13S5.82 0 13 0s13 5.82 13 13-5.82 13-13 13z"/>
        <path fill="#FFF" fill-rule="nonzero" d="M16.355 9.322c-.726-1.253-2.016-2.02-3.45-2.048-.062-.002-.123-.002-.184 0-1.435.029-2.724.795-3.45 2.048-.743 1.28-.763 2.82-.055 4.116l2.967 5.43.004.007c.13.227.364.363.626.363.26 0 .495-.136.625-.363l.004-.007 2.967-5.43c.708-1.297.688-2.835-.054-4.116zm-3.542 3.372c-.928 0-1.683-.754-1.683-1.682 0-.928.755-1.683 1.683-1.683.927 0 1.682.755 1.682 1.683s-.755 1.682-1.682 1.682z"/>
    </g>
</svg>
