<svg xmlns="http://www.w3.org/2000/svg" xmlns:xlink="http://www.w3.org/1999/xlink" width="58" height="59" viewBox="0 0 58 59">
    <defs>
        <path id="3qa5xw9s7a" d="M0 0.356L58 0.356 58 58.356 0 58.356z"/>
    </defs>
    <g fill="none" fill-rule="evenodd">
        <mask id="577bo93xqb" fill="#fff">
            <use xlink:href="#3qa5xw9s7a"/>
        </mask>
        <path fill="#B51647" d="M45.135 45.149l-.62.646-2.264-2.182-.998 2.182-3.394-7.41 7.276 3.153-2.13 1.374 2.13 2.237zm-7.711-1.993c-2.634 0-4.77-2.134-4.77-4.769 0-2.633 2.136-4.768 4.77-4.768 2.633 0 4.769 2.135 4.769 4.768 0 .33-.034.651-.097.962l-5.814-2.566 2.663 6.102c-.48.164-.986.271-1.521.271zM26.99 47.283c-3.531 0-9.344-2.386-9.599-10.847-.108-3.624 1.587-8.178 2.63-9.357.37-.536.138-.7-.119-.95-.624-.741-.885-1.388-.832-1.546.82.421 1.366.643 1.709.817.342.175.573-.179.654-.312 1.351-1.853 1.797-1.954 1.946-2.168.147-.215.03-.286-.165-.402-1.734-1.115-3.982-2.75-4.694-3.22-1.466-1.007-.75-2.899-.713-3.226.038-.328.644-1.067 1.428-1.545.598-.352 1.24-.93 3.415-.877 3.709.047 10.48.148 16.177.967.571.081.978-.007.787.578-.6 1.726-.655 2.266-1.278 2.51-5.789 2.34-4.454 1.79-6.223 2.54-1.769.752-3.136 1.33-4.308 2.05-1.172.721-1.697.84-1.56 1.293.427 1.456.26 1.747.179 1.886-.873-.855-1.241-1.534-2.318-.668-.593.489-1.45 1.182-1.485 1.352 1.164.523 5.288.203 10.457.297 8.148-.311 9.02 4.865 8.911 8.434-.289-.331-.614-.629-.972-.888-.085-.468-1.014-4.625-6.662-4.62-5.983.005-9.58.466-12.656-1.664-.314-.24-.35-.165-.519.06-.587.763-3.43 3.771-2.525 9.224.914 5.505 4.656 6.9 8.289 6.863 2.313-.023 4.579-.805 6.158-1.438.592.715 1.352 1.286 2.217 1.654-2.256 1.575-5.043 3.205-8.33 3.203zM29 .356c-16.017 0-29 12.983-29 29 0 16.016 12.983 29 29 29s29-12.984 29-29c0-16.017-12.983-29-29-29z" mask="url(#577bo93xqb)"/>
        <path fill="#B51647" d="M26.938 20.711c1.484-1.07 4.513-2.246 5.581-3.106-.028-.045-.158-.136-.587-.195-1.018-.107-4.017-.376-6.169-.436-4.56-.18-5.915.219-6.243.27-.328.053-.5.301-.235.496.112.077.297.162.588.39 1.432.93 3.669 2.61 4.597 3.376.74.708.835.161 2.468-.795"/>
    </g>
</svg>
