<svg xmlns="http://www.w3.org/2000/svg" xmlns:xlink="http://www.w3.org/1999/xlink" width="53" height="53" viewBox="0 0 53 53">
    <defs>
        <filter id="0k24gykzya" width="126.7%" height="126.7%" x="-13.3%" y="-13.3%" filterUnits="objectBoundingBox">
            <feOffset in="SourceAlpha" result="shadowOffsetOuter1"/>
            <feGaussianBlur in="shadowOffsetOuter1" result="shadowBlurOuter1" stdDeviation="2"/>
            <feComposite in="shadowBlurOuter1" in2="SourceAlpha" operator="out" result="shadowBlurOuter1"/>
            <feColorMatrix in="shadowBlurOuter1" values="0 0 0 0 0 0 0 0 0 0 0 0 0 0 0 0 0 0 0.146170236 0"/>
        </filter>
        <circle id="e8fnm9f37b" cx="22.5" cy="22.5" r="22.5"/>
    </defs>
    <g fill="none" fill-rule="evenodd" transform="translate(4 4)">
        <use fill="#000" filter="url(#0k24gykzya)" xlink:href="#e8fnm9f37b"/>
        <circle cx="22.5" cy="22.5" r="22" fill="#FFF" stroke="#DCDCDC" stroke-linejoin="square"/>
        <g fill="#000" fill-rule="nonzero" stroke="#000" stroke-width=".6">
            <path d="M18.417 14.59l-3.828-2.552c-.486-.322-1.137-.216-1.496.243l-1.115 1.433c-.144.19-.404.244-.611.129l-.213-.117c-.703-.383-1.578-.86-3.34-2.624C6.05 9.34 5.573 8.463 5.189 7.762l-.116-.213c-.117-.207-.063-.469.126-.613L6.632 5.82c.458-.359.564-1.01.243-1.496L4.322.497C3.993.002 3.333-.146 2.824.16l-1.6.961C.72 1.417.35 1.896.193 2.458-.383 4.558.05 8.183 5.39 13.523c4.247 4.247 7.41 5.39 9.583 5.39.5.002.998-.063 1.481-.194.562-.157 1.04-.527 1.336-1.03l.963-1.6c.306-.509.158-1.17-.337-1.498zm-.206 1.176l-.96 1.6c-.213.364-.557.631-.962.746-1.939.532-5.326.091-10.453-5.035C.71 7.951.27 4.564.802 2.624c.115-.405.382-.75.746-.962l1.6-.96c.221-.134.508-.07.65.146L5.186 2.93 6.35 4.675c.14.211.094.494-.105.65L4.811 6.439c-.436.334-.56.937-.292 1.416l.114.207c.402.739.903 1.658 2.732 3.486 1.828 1.828 2.747 2.329 3.485 2.731l.207.115c.479.268 1.082.144 1.416-.293l1.115-1.433c.156-.198.438-.244.649-.105l3.828 2.553c.215.143.279.43.146.65z" transform="translate(13.421 13.421)"/>
        </g>
    </g>
</svg>
