<svg xmlns="http://www.w3.org/2000/svg" width="18" height="18" viewBox="0 0 18 18">
    <path fill="#B51647" fill-rule="evenodd" stroke="#B51647" stroke-width=".4" d="M8.423 1.039c-.147.147-.238.351-.238.576l-.001 6.569H1.615c-.225 0-.429.092-.576.24C.89 8.57.8 8.773.8 9c0 .225.091.429.239.577.147.147.351.238.576.238h6.569v6.57c0 .225.092.429.24.576.147.148.35.239.576.239.225 0 .429-.091.577-.239.147-.147.238-.351.238-.576v-6.57h6.57c.225 0 .429-.09.576-.238.148-.148.239-.352.239-.577 0-.225-.091-.429-.239-.577-.147-.147-.351-.238-.576-.238l-6.57-.001V1.615c0-.225-.09-.429-.238-.576-.135-.135-.291-.282-1.154 0z"/>
</svg>
