<svg xmlns="http://www.w3.org/2000/svg" width="72" height="72" viewBox="0 0 72 72">
    <g fill="none" fill-rule="evenodd">
        <circle cx="36" cy="36" r="36" fill="#CD4A04"/>
        <g stroke="#FFF" stroke-linecap="round" stroke-linejoin="round" stroke-width="1.5">
            <path d="M17.857 2.257c2.65 0 4.798 2.149 4.798 4.798 0 2.65-2.147 4.798-4.798 4.798-2.65 0-4.798-2.148-4.798-4.798s2.148-4.798 4.798-4.798zM7.465 23.827c0-5.7 4.693-10.393 10.392-10.393 5.7 0 10.393 4.694 10.393 10.393H7.465zM5.89.559c1.316 0 2.382 1.066 2.382 2.381 0 1.316-1.066 2.382-2.382 2.382S3.508 4.256 3.508 2.94C3.508 1.625 4.574.56 5.89.56zM.559 12.186c0-2.932 2.399-5.197 5.197-5.197 2.8 0 5.198 2.399 5.198 5.197H.56zM29.929.559c1.316 0 2.381 1.066 2.381 2.381 0 1.316-1.066 2.382-2.381 2.382-1.316 0-2.383-1.066-2.383-2.382 0-1.315 1.067-2.381 2.383-2.381zM24.597 12.186c0-2.932 2.4-5.197 5.197-5.197 2.8 0 5.2 2.399 5.2 5.197H24.596z" transform="translate(19 24)"/>
        </g>
    </g>
</svg>
