<svg xmlns="http://www.w3.org/2000/svg" width="72" height="72" viewBox="0 0 72 72">
    <g fill="none" fill-rule="evenodd">
        <circle cx="36" cy="36" r="36" fill="#CD4A04"/>
        <g stroke="#FFF" stroke-linecap="round" stroke-linejoin="round" stroke-width="1.3">
            <path d="M4.97 22.501V17.22c0-2.57.904-5.069 2.6-7 1.995-2.27 5.24-5.118 10.67-7.491l.141-.06.12.06c5.431 2.373 8.643 5.22 10.637 7.49 1.696 1.932 2.6 4.432 2.6 7.001v5.282M18.502 2.728L18.502.479M35.11 29.37H1.597c-.617 0-1.119-.501-1.119-1.119 0-.617.502-1.119 1.12-1.119H35.11c.618 0 1.12.502 1.12 1.12 0 .617-.502 1.118-1.12 1.118zM3.237 24.98L33.332 24.98M9.832 21.41L9.832 22.501M14.093 21.41L14.093 22.501M18.355 21.41L18.355 22.501M22.615 21.41L22.615 22.501M26.876 21.41L26.876 22.501" transform="translate(18 21)"/>
        </g>
    </g>
</svg>
