<svg xmlns="http://www.w3.org/2000/svg" width="41" height="45" viewBox="0 0 41 45">
    <g fill="none" fill-rule="evenodd" stroke="#B51647" stroke-linecap="round" stroke-linejoin="round" stroke-width="1.5">
        <path d="M10.733 27.63c-.318.078-.636.141-.946.24-.274.087-.533.218-.802.326-.267.104-.487.017-.598-.245-.422-1.01-.84-2.021-1.256-3.034-.114-.274-.017-.49.256-.607.253-.109.51-.212.763-.317.974-.409 1.6-1.343 1.601-2.412 0-1.157-.513-1.997-1.571-2.484-.252-.114-.51-.21-.763-.317-.309-.13-.403-.342-.277-.646.411-1.001.825-2 1.241-2.998.114-.272.332-.36.609-.252.264.102.523.216.783.322 1.767.724 3.37-.628 3.614-2.032.088-.506.031-.991-.164-1.466-.103-.247-.209-.494-.309-.744-.109-.276-.021-.497.25-.61 1.003-.42 2.009-.837 3.016-1.25.283-.116.501-.018.621.263.104.247.204.497.31.744.437 1.025 1.349 1.609 2.504 1.605 1.1-.005 1.986-.596 2.413-1.613.105-.247.205-.497.309-.745.116-.27.334-.368.61-.257 1.013.415 2.024.835 3.034 1.256.26.109.347.331.243.599-.107.275-.231.542-.334.82-.396 1.071-.175 2.014.625 2.815.802.803 1.752 1.006 2.82.625.266-.098.522-.218.782-.322.31-.126.521-.04.648.269.413.987.822 1.973 1.228 2.963.125.305.034.522-.268.651-.258.11-.525.206-.781.324-.989.463-1.529 1.237-1.55 2.335-.024 1.277.549 2.124 1.726 2.611.213.089.424.173.635.266.26.111.36.33.253.593-.417 1.02-.838 2.037-1.264 3.051-.106.253-.323.34-.583.239-.268-.103-.531-.223-.801-.325-1.039-.393-1.98-.217-2.782.55-.844.809-1.088 1.78-.684 2.892.097.265.217.521.32.783.119.298.029.511-.266.634-.985.411-1.973.821-2.961 1.228-.322.133-.527.048-.662-.271-.107-.254-.201-.513-.317-.763-.468-1.008-1.265-1.536-2.371-1.566-1.149-.031-1.987.483-2.489 1.525-.128.265-.228.544-.344.815-.129.302-.333.392-.63.27-1.001-.411-2-.825-2.999-1.242-.282-.119-.368-.332-.26-.622.158-.417.365-.821.459-1.253.38-1.763-1.201-3.223-2.63-3.173l-.011-.048z" transform="translate(1 1)"/>
        <path d="M17.735 40.483C8.083 39.56.536 31.43.536 21.539c0-9.138 6.44-16.772 15.029-18.61.618-.133 1.247-.235 1.887-.306.694-.077.684-.116 1.4-.116M23.957 3.016C32.352 4.998 38.6 12.54 38.6 21.54c0 9.13-6.43 16.759-15.009 18.606M18.909.536L18.909 5.33 21.628 2.817zM22.988 42.542L22.988 37.748 20.27 40.261z" transform="translate(1 1)"/>
        <path d="M22.941 21.539c0 1.864-1.51 3.373-3.373 3.373-1.864 0-3.376-1.509-3.376-3.373 0-1.864 1.512-3.373 3.376-3.373 1.863 0 3.373 1.509 3.373 3.373z" transform="translate(1 1)"/>
    </g>
</svg>
