<svg xmlns="http://www.w3.org/2000/svg" width="72" height="72" viewBox="0 0 72 72">
    <g fill="none" fill-rule="evenodd">
        <circle cx="36" cy="36" r="36" fill="#B51647"/>
        <g stroke="#FFF" stroke-linecap="round" stroke-linejoin="round" stroke-width="1.5">
            <path d="M1.459 17.69h-.082c-.504 0-.911-.408-.911-.91V8.167c0-.503.407-.91.91-.91h.083c.503 0 .911.407.911.91v8.613c0 .502-.408.91-.911.91zM22.14 24.316h-.203c-1.248 0-2.258-1.01-2.258-2.258V2.723c0-1.246 1.01-2.258 2.258-2.258h.203c1.248 0 2.259 1.012 2.259 2.258v19.335c0 1.248-1.01 2.258-2.259 2.258zM19.678 2.826S13.135 8.664 2.371 8.582v8.115s11.262-.413 17.307 5.258" transform="translate(18 24)"/>
            <path d="M13.6 18.87c-.48 2.653-3.018 4.415-5.67 3.936-2.652-.48-4.414-3.018-3.935-5.67" transform="translate(18 24)"/>
            <path d="M11.749 18.064c-.296 1.638-1.864 2.725-3.502 2.43-1.639-.296-2.726-1.864-2.43-3.501M31.374 5.09c4.276 3.564 4.853 9.92 1.288 14.198M29.184 7.716c2.824 2.355 3.206 6.556.851 9.381M27.16 10.144c1.484 1.238 1.684 3.444.446 4.93" transform="translate(18 24)"/>
        </g>
    </g>
</svg>
