<svg xmlns="http://www.w3.org/2000/svg" width="16" height="20" viewBox="0 0 16 20">
    <g fill="#6A6A6B" stroke="#6A6A6B" stroke-width=".3">
        <path d="M12.537 18.412H2.022C.907 18.412 0 17.504 0 16.39V4.449c0-1.115.907-2.023 2.022-2.023H3.64c.223 0 .404.182.404.405 0 .223-.181.404-.404.404H2.022C1.353 3.235.81 3.78.81 4.45v11.94c0 .67.544 1.214 1.213 1.214h10.515c.669 0 1.213-.544 1.213-1.213V4.449c0-.67-.544-1.214-1.213-1.214h-1.618c-.223 0-.404-.18-.404-.404 0-.223.18-.405.404-.405h1.618c1.115 0 2.022.908 2.022 2.023v11.94c0 1.115-.907 2.023-2.022 2.023z" transform="translate(1 1)"/>
        <path d="M10.11 4.853H4.45c-.67 0-1.214-.544-1.214-1.213V2.022c0-.223.181-.404.405-.404h1.658C5.485.696 6.303 0 7.279 0c.977 0 1.794.696 1.982 1.618h1.658c.223 0 .405.18.405.404V3.64c0 .669-.545 1.213-1.214 1.213zM4.044 2.426V3.64c0 .223.182.404.405.404h5.661c.223 0 .405-.181.405-.404V2.426H8.897c-.223 0-.404-.18-.404-.404 0-.669-.545-1.213-1.214-1.213-.668 0-1.213.544-1.213 1.213 0 .223-.181.404-.404.404H4.044zM11.728 9.088H2.83c-.223 0-.405-.18-.405-.404 0-.223.182-.405.405-.405h8.897c.223 0 .404.182.404.405 0 .223-.18.404-.404.404zM11.728 11.515H2.83c-.223 0-.405-.181-.405-.405 0-.223.182-.404.405-.404h8.897c.223 0 .404.181.404.404 0 .224-.18.405-.404.405zM11.728 13.941H2.83c-.223 0-.405-.181-.405-.404 0-.223.182-.405.405-.405h8.897c.223 0 .404.182.404.405 0 .223-.18.404-.404.404z" transform="translate(1 1)"/>
    </g>
</svg>
