<svg xmlns="http://www.w3.org/2000/svg" width="72" height="72" viewBox="0 0 72 72">
    <g fill="none" fill-rule="evenodd">
        <circle cx="36" cy="36" r="36" fill="#BA0C2F"/>
        <g stroke="#FFF" stroke-linecap="round" stroke-linejoin="round" stroke-width="1.5">
            <path d="M.524 30.949L29.769 30.949M25.44 30.95s7.47-8.753-1.068-13.77c-8.539-5.016-9.2-5.923-9.2-5.923s-.713.907-9.252 5.924c-8.539 5.016-1.068 13.768-1.068 13.768M15.125 8.862L15.125 11.257M15.528 8.71c-.523-.08-1.035-.196-1.507-.446-1.343-.713-2.134-1.82-2.308-3.334-.212-1.854.808-3.591 2.511-4.324.083-.036.184-.123.258-.06.067.057-.011.161-.034.242-.686 2.398.873 4.866 3.331 5.265.614.1 1.224.065 1.826-.105.095-.026.187-.071.291-.063v.038l-.083.189c-.42 1.014-1.137 1.745-2.123 2.216-.434.207-.9.308-1.371.381h-.791z" transform="translate(21 20)"/>
        </g>
    </g>
</svg>
