<?xml version="1.0" encoding="UTF-8"?>
<svg width="22px" height="23px" viewBox="0 0 22 23" version="1.1" xmlns="http://www.w3.org/2000/svg" xmlns:xlink="http://www.w3.org/1999/xlink">
    <title>ic_advance_search_resources_inactive</title>
    <g id="Page-1" stroke="none" stroke-width="1" fill="none" fill-rule="evenodd" stroke-linecap="round" stroke-linejoin="round">
        <g id="07-search" transform="translate(-483.000000, -500.000000)" stroke="#1C1517" stroke-width="1.2">
            <g id="Group-4-Copy" transform="translate(152.000000, 474.000000)">
                <g id="Group-14" transform="translate(332.000000, 24.000000)">
                    <g id="ic_advance_search_resources_inactive" transform="translate(0.000000, 3.000000)">
                        <line x1="11.5916667" y1="9.3285" x2="19.4333333" y2="6.556" id="Stroke-1"></line>
                        <line x1="0.312416667" y1="6.55591667" x2="8.14241667" y2="9.32341667" id="Stroke-3"></line>
                        <path d="M13.2575833,17.1491667 L0.845083333,17.13 C0.55175,17.13 0.312583333,16.8908333 0.312583333,16.5966667 L0.312583333,3.27583333 C0.312583333,2.98083333 0.55175,2.7425 0.845083333,2.7425 L18.9000833,2.7425 C19.19425,2.7425 19.4334167,2.98083333 19.4334167,3.27583333 L19.4334167,12.5566667" id="Stroke-5"></path>
                        <polygon id="Stroke-7" points="8.4425 10.79025 11.3508333 10.79025 11.3508333 8.70191667 8.4425 8.70191667"></polygon>
                        <path d="M6.45825,2.74241667 L6.45825,1.31908333 C6.45825,0.76325 6.90908333,0.312416667 7.46491667,0.312416667 L12.6399167,0.312416667 C13.19575,0.312416667 13.6465833,0.76325 13.6465833,1.31908333 L13.6465833,2.74241667" id="Stroke-9"></path>
                        <path d="M19.3269167,14.3626667 C19.9610833,15.6443333 19.4360833,17.1968333 18.1544167,17.831 C16.8735833,18.4651667 15.3194167,17.9401667 14.6860833,16.6585 C14.0519167,15.3776667 14.5769167,13.8243333 15.8585833,13.1901667 C17.1394167,12.556 18.69275,13.081 19.3269167,14.3626667 Z" id="Stroke-10"></path>
                        <line x1="18.28925" y1="18.10375" x2="19.5950833" y2="20.7429167" id="Stroke-11"></line>
                    </g>
                </g>
            </g>
        </g>
    </g>
</svg>