<svg xmlns="http://www.w3.org/2000/svg" width="18" height="18" viewBox="0 0 18 18">
    <path fill="#FFF" stroke="#FFF" d="M16.756 15.825l-3.874-4.029c.996-1.184 1.542-2.674 1.542-4.225C14.424 3.948 11.476 1 7.853 1 4.229 1 1.28 3.948 1.28 7.571c0 3.624 2.948 6.572 6.572 6.572 1.36 0 2.656-.41 3.764-1.19l3.904 4.06c.163.17.382.263.617.263.223 0 .434-.085.594-.24.34-.327.352-.87.024-1.211zM7.853 2.715c2.678 0 4.857 2.178 4.857 4.856 0 2.679-2.18 4.858-4.857 4.858-2.679 0-4.858-2.18-4.858-4.858 0-2.678 2.18-4.857 4.858-4.857z"/>
</svg>
