<svg xmlns="http://www.w3.org/2000/svg" width="18" height="16" viewBox="0 0 18 16">
    <path fill="#B51647" d="M17.988.657c.088-.409-.313-.753-.703-.604L.339 6.52C.135 6.6 0 6.795 0 7.013c0 .218.134.414.337.493l4.76 1.839v5.79c0 .244.168.457.406.513.236.056.482-.056.593-.275l1.969-3.907 4.804 3.565c.293.217.713.08.819-.27C18.174.055 17.98.694 17.988.658zM13.805 2.51L5.55 8.389 1.998 7.017 13.805 2.51zM6.152 9.255l7.196-5.125c-6.192 6.532-5.868 6.188-5.895 6.225-.04.054.07-.157-1.3 2.562V9.255zm6.745 4.484L8.668 10.6l7.647-8.067-3.418 11.206z"/>
</svg>
