<svg xmlns="http://www.w3.org/2000/svg" width="23" height="23" viewBox="0 0 23 23">
    <path fill="none" fill-rule="evenodd" stroke="#FFF" stroke-linecap="round" stroke-linejoin="round" stroke-width="1.5" d="M12.623 8.794l2.31-.153-.107-2.578m.05 2.31c-.806-.885-1.973-1.43-3.299-1.428-2.683-.059-4.499 2.367-4.497 4.447.002 2.05 1.804 4.479 4.51 4.441 1.463-.02 2.74-.694 3.544-1.752M1 12.726V10.14c.162-.536.483-.848 1.078-.888.394-.025.787-.133 1.171-.231.342-.089.605-.3.772-.616.191-.363.135-.736-.055-1.061-.239-.41-.525-.792-.816-1.168-.27-.352-.312-.795-.037-1.14.546-.69 1.154-1.318 1.865-1.841.416-.306.894-.288 1.288.057.36.317.744.596 1.19.78.552.23 1.093.067 1.403-.44.11-.18.193-.387.239-.594.083-.374.118-.759.197-1.134.033-.156.119-.305.198-.448.18-.327.534-.318.832-.416h2.124c.04.02.08.05.124.058.596.112.853.411.912 1.012.031.32.076.642.163.95.313 1.113 1.084 1.41 2.071.799.3-.185.57-.417.848-.634.299-.232.828-.272 1.11-.059.739.557 1.396 1.199 1.959 1.935.071.095.17.214.164.316-.02.33-.038.65-.3.931-.288.311-.538.676-.731 1.053-.284.555-.2 1.377.716 1.646.44.13.895.212 1.35.265.267.032.483.114.633.318.123.168.206.366.306.55v2.586c-.102.164-.187.344-.31.49-.223.262-.523.348-.866.352-.496.007-.98.094-1.425.328-.36.188-.542.48-.537.894.005.335.09.642.277.914.218.316.455.617.68.93.276.385.259.857-.038 1.225-.504.626-1.085 1.17-1.713 1.67-.25.198-.492.27-.802.243-.215-.017-.37-.103-.532-.233-.44-.358-.875-.729-1.458-.85-.363-.076-.696-.001-.936.256-.191.207-.348.477-.431.746-.113.362-.163.75-.197 1.13-.023.247-.075.461-.274.605-.182.131-.385.234-.578.347H10.14c-.536-.16-.857-.48-.885-1.076-.016-.334-.1-.667-.174-.997-.18-.808-.988-1.374-1.927-.803-.327.199-.633.435-.934.67-.367.289-.836.312-1.214.03-.719-.534-1.365-1.144-1.905-1.862-.093-.124-.14-.3-.161-.46-.04-.29.101-.518.28-.748.288-.375.583-.762.778-1.189.331-.719.051-1.32-.697-1.565-.36-.117-.747-.181-1.128-.2-.59-.031-.98-.292-1.174-.847z" opacity=".8"/>
</svg>
