<?xml version="1.0" encoding="UTF-8"?>
<svg width="23px" height="23px" viewBox="0 0 23 23" version="1.1" xmlns="http://www.w3.org/2000/svg" xmlns:xlink="http://www.w3.org/1999/xlink">
    <title>ic_advance_search_services_inactive</title>
    <g id="Page-1" stroke="none" stroke-width="1" fill="none" fill-rule="evenodd" stroke-linecap="round" stroke-linejoin="round">
        <g id="07-search" transform="translate(-186.000000, -500.000000)" stroke="#1C1517" stroke-width="1.3">
            <g id="Group-4-Copy" transform="translate(152.000000, 474.000000)">
                <g id="Group-6" transform="translate(35.000000, 24.000000)">
                    <path d="M12.3012139,11.5878963 C11.8285549,11.0669144 11.1399527,10.7467748 10.360745,10.7467748 C8.77967806,10.7135527 7.71204263,12.1405902 7.71204263,13.3652752 C7.71355272,14.5733493 8.77514778,16.0018968 10.3682954,15.9792454 C11.2275381,15.9671647 11.9795642,15.5715204 12.4537332,14.9493623 M-9.32587341e-13,14.6971769 L-9.32587341e-13,12.1194489 C0.161579902,11.583366 0.483229615,11.272287 1.07518589,11.2330246 C1.46932005,11.207353 1.86043402,11.1001364 2.24550761,11.0004703 C2.58376835,10.914395 2.84803454,10.7029821 3.01414472,10.3873727 C3.20592647,10.0249505 3.14854296,9.65346775 2.9582713,9.32879786 C2.72118677,8.92107287 2.43577928,8.53750936 2.14584151,8.16300641 C1.87553494,7.81266494 1.83476244,7.37020783 2.10808919,7.02590673 C2.6532326,6.33881462 3.26028981,5.71061612 3.96852321,5.18963419 C4.38379866,4.88610559 4.85947781,4.90120651 5.25210187,5.24701771 C5.6115039,5.56413714 5.99506741,5.84048408 6.44054471,6.02471537 C6.99021839,6.25273934 7.53083152,6.09115944 7.8404005,5.58527844 C7.95063725,5.40557742 8.03369234,5.20020484 8.07899512,4.99332216 C8.16205021,4.6203293 8.19527224,4.23676579 8.27530715,3.86226284 C8.30701909,3.70521322 8.39460446,3.55873424 8.47312927,3.41527545 C8.65283028,3.08909546 9.00468185,3.09815602 9.30368017,3 L11.4208299,3 C11.4616024,3.0196312 11.5023749,3.04983305 11.5446575,3.05889361 C12.139634,3.17215055 12.3963497,3.46963878 12.4567534,4.06763543 C12.4869553,4.38475486 12.5307479,4.70791467 12.6183333,5.01446346 C12.9294124,6.12589157 13.6995596,6.42186971 14.6841399,5.81179232 C14.9816281,5.62756103 15.2519347,5.39651687 15.5297917,5.18057364 C15.82728,4.94952948 16.3558124,4.90875698 16.6366896,5.12168003 C17.3736147,5.67739408 18.030505,6.31767332 18.5907493,7.0515783 C18.6632338,7.14671413 18.7598797,7.26450135 18.7538393,7.36567755 C18.7357182,7.69638782 18.716087,8.01652744 18.454841,8.29589456 C18.1679234,8.60546353 17.9187581,8.96939583 17.7254663,9.34691897 C17.4415689,9.89961284 17.5276442,10.7195931 18.4397401,10.9883896 C18.8776669,11.1167474 19.3337149,11.1998025 19.7867426,11.2526558 C20.054029,11.2843677 20.2669521,11.3659127 20.4179613,11.5697752 C20.5417889,11.7389056 20.6233339,11.9337075 20.723,12.1194489 L20.723,14.6971769 C20.6218238,14.8617769 20.5372586,15.0399679 20.413431,15.1864468 C20.1929575,15.4492029 19.8924491,15.532258 19.5511682,15.5367883 C19.0573679,15.5443388 18.5726282,15.6319241 18.128661,15.8644784 C17.7707691,16.0517299 17.5880479,16.3431777 17.5940882,16.7569431 C17.5986185,17.0921836 17.6816736,17.3972223 17.8704352,17.6675289 C18.0863784,17.9831382 18.3234629,18.2851567 18.5469566,18.5962358 C18.8217935,18.9797993 18.8066926,19.4509482 18.5092043,19.8179007 C18.0063435,20.4415689 17.4279781,20.9852022 16.7997796,21.4835328 C16.5521244,21.6813549 16.3089995,21.7523292 16.0009406,21.7281677 C15.7865075,21.7085365 15.632478,21.6239714 15.4724082,21.4941034 C15.0314612,21.1362115 14.5980646,20.7662388 14.016679,20.6454314 C13.6542568,20.5699268 13.3220364,20.6454314 13.0834418,20.9021471 C12.8916601,21.1090298 12.7361205,21.3763162 12.6515553,21.6451127 C12.5398085,22.0060248 12.4899754,22.3926085 12.4567534,22.7731518 C12.434102,23.0177868 12.3812488,23.2322199 12.1819166,23.3771888 C12.0022156,23.5085669 11.7983531,23.608233 11.6050612,23.723 L9.11944888,23.723 C8.58487612,23.5629302 8.26322641,23.2443007 8.23604474,22.6493242 C8.22094382,22.3155937 8.13637863,21.9833734 8.0623841,21.6556833 C7.88268309,20.8492939 7.07629367,20.2845193 6.14003629,20.8538242 C5.8138563,21.0531564 5.50881761,21.2872207 5.20981928,21.5227952 C4.84437689,21.8112228 4.3747381,21.8323641 3.99872506,21.552997 C3.2814311,21.0184243 2.63662158,20.409857 2.09751855,19.6955832 C2.0054029,19.5702455 1.95707994,19.3950748 1.93744874,19.236515 C1.89667624,18.9450672 2.03711484,18.7200634 2.21530576,18.4875091 C2.50373344,18.1145163 2.79820149,17.7279326 2.99300342,17.3035966 C3.3222036,16.5863026 3.04434657,15.9852858 2.29685076,15.7421609 C1.93895883,15.6258838 1.55086504,15.5609498 1.17334191,15.5413186 C0.582895723,15.5126268 0.194801938,15.2513808 -9.32587341e-13,14.6971769 Z" id="ic_advance_search_services_inactive"></path>
                </g>
            </g>
        </g>
    </g>
</svg>