<svg xmlns="http://www.w3.org/2000/svg" width="14" height="15" viewBox="0 0 14 15">
    <path fill="#B51647" stroke="#F3EFEC" stroke-width=".5" d="M10.825 5.6c1.268 0 2.3-1.032 2.3-2.3 0-1.268-1.032-2.3-2.3-2.3-1.268 0-2.3 1.032-2.3 2.3 0 .18.023.357.062.526l-3.66 2.033C4.512 5.44 3.936 5.18 3.3 5.18c-1.268 0-2.3 1.032-2.3 2.3 0 1.268 1.032 2.3 2.3 2.3.635 0 1.211-.26 1.628-.678l3.66 2.033c-.04.169-.062.345-.062.526 0 1.268 1.031 2.3 2.3 2.3 1.267 0 2.299-1.032 2.299-2.3 0-1.268-1.032-2.3-2.3-2.3-.635 0-1.211.26-1.628.678l-3.66-2.033c.04-.17.062-.345.062-.526 0-.181-.022-.357-.061-.526l3.66-2.033c.416.418.992.677 1.627.677zm0 5.016c.577 0 1.046.47 1.046 1.046 0 .576-.47 1.045-1.046 1.045-.576 0-1.045-.469-1.045-1.045 0-.577.47-1.046 1.045-1.046zM3.3 8.526c-.577 0-1.046-.469-1.046-1.045 0-.577.47-1.046 1.046-1.046.576 0 1.045.47 1.045 1.046 0 .576-.47 1.045-1.045 1.045zm7.525-6.272c.577 0 1.046.47 1.046 1.046 0 .576-.47 1.045-1.046 1.045-.576 0-1.045-.47-1.045-1.045 0-.577.47-1.046 1.045-1.046z"/>
</svg>
