<svg xmlns="http://www.w3.org/2000/svg" width="35" height="35" viewBox="0 0 35 35">
    <g fill="none" fill-rule="evenodd">
        <path fill="#219BEC" d="M17.33 34.659C7.758 34.659 0 26.9 0 17.329 0 7.76 7.759 0 17.33 0c9.57 0 17.329 7.759 17.329 17.33 0 9.57-7.76 17.329-17.33 17.329z"/>
        <path fill="#FFF" fill-rule="nonzero" d="M15.117 24.745c-.748 0-1.518-.06-2.292-.181-1.364-.215-2.745-.928-3.136-1.142l-1.024-.56 1.11-.365c1.212-.399 1.95-.646 2.863-1.033-.915-.443-1.62-1.24-1.959-2.27l-.258-.783.212.032c-.2-.202-.36-.407-.482-.594-.437-.664-.668-1.475-.619-2.17l.049-.683.409.158c-.173-.326-.298-.674-.37-1.04-.18-.89-.03-1.836.42-2.663l.357-.655.477.573c1.509 1.812 3.42 2.887 5.688 3.202-.093-.638-.024-1.255.206-1.807.268-.643.743-1.188 1.376-1.577.702-.432 1.554-.641 2.398-.59.895.056 1.708.391 2.354.972.316-.082.548-.17.862-.288.189-.07.403-.152.671-.244l.988-.34-.644 1.84c.043-.004.086-.007.132-.009l1.055-.048-.623.853c-.036.049-.045.062-.058.082-.05.075-.113.17-.969 1.313-.214.286-.321.659-.301 1.05.076 1.485-.106 2.828-.542 3.993-.412 1.102-1.05 2.048-1.897 2.81-1.048.945-2.385 1.59-3.972 1.921-.779.162-1.615.243-2.48.243z"/>
    </g>
</svg>
