<svg xmlns="http://www.w3.org/2000/svg" width="42" height="39" viewBox="0 0 42 39">
    <g fill="none" fill-rule="evenodd" stroke="#CD4A04" stroke-linecap="round" stroke-linejoin="round" stroke-width="1.5">
        <path d="M32.249 9.281c2.042 2.851 3.077 6.106 3.077 9.883 0 9.612-7.792 17.404-17.404 17.404C8.31 36.568.518 28.776.518 19.164S8.31 1.76 17.922 1.76c4.616 0 8.813 1.798 11.93 4.732" transform="translate(1 1)"/>
        <path d="M28.162 13.042c1.072 1.79 1.69 3.883 1.69 6.121 0 6.59-5.341 11.93-11.93 11.93-6.588 0-11.928-5.34-11.928-11.93 0-6.587 5.34-11.928 11.928-11.928 3.175 0 5.778.982 7.914 3.006" transform="translate(1 1)"/>
        <path d="M23.398 19.164c0 3.023-2.452 5.476-5.476 5.476s-5.475-2.453-5.475-5.476 2.451-5.476 5.475-5.476c.262 0 .517.018.77.054M22.315 15.479L34.008 5.52" transform="translate(1 1)"/>
        <path d="M24.146 17.631L20.426 13.262 18.253 19.164zM36.316.518L34.555 2.017 34.202 5.169 37.293 5.761 39.315 4.039 36.394 3.489z" transform="translate(1 1)"/>
    </g>
</svg>
