<svg xmlns="http://www.w3.org/2000/svg" xmlns:xlink="http://www.w3.org/1999/xlink" width="43" height="44" viewBox="0 0 43 44">
    <defs>
        <path id="prefix__a" d="M0 43.003L41.205 43.003 41.205 0 0 0z"/>
    </defs>
    <g fill="none" fill-rule="evenodd" transform="translate(1)">
        <path stroke="#CD4A04" stroke-linecap="round" stroke-linejoin="round" stroke-width="1.3" d="M3.817 24.31c0 .887-.719 1.606-1.606 1.606-.886 0-1.605-.719-1.605-1.606 0-.887.719-1.604 1.605-1.604.887 0 1.606.717 1.606 1.604zM2.211 25.916L2.211 42.398M21.977 24.31c0 .887-.717 1.606-1.604 1.606-.888 0-1.605-.719-1.605-1.606 0-.887.717-1.604 1.605-1.604.887 0 1.604.717 1.604 1.604zM20.373 25.916L20.373 42.398M40.6 24.31c0 .887-.719 1.606-1.605 1.606-.887 0-1.604-.719-1.604-1.606 0-.887.717-1.604 1.604-1.604.886 0 1.605.717 1.605 1.604zM38.994 25.916L38.994 42.398M2.211 26.84s8.402 7.247 18.162 0M20.373 26.84s8.4 7.247 18.16 0"/>
        <mask id="prefix__b" fill="#fff">
            <use xlink:href="#prefix__a"/>
        </mask>
        <path stroke="#CD4A04" stroke-linecap="round" stroke-linejoin="round" stroke-width="1.3" d="M9.949 17.102L31.876 17.102 31.876 0.606 9.949 0.606z" mask="url(#prefix__b)"/>
        <path stroke="#CD4A04" stroke-linecap="round" stroke-linejoin="round" stroke-width="1.3" d="M12.699 14.311L29.127 14.311 29.127 3.399 12.699 3.399zM29.127 3.399L31.876.606M29.127 14.31L31.876 17.103M12.699 14.31L9.949 17.103M12.699 3.399L9.949.606" mask="url(#prefix__b)"/>
    </g>
</svg>
