<svg xmlns="http://www.w3.org/2000/svg" width="601" height="336" viewBox="0 0 601 336">
    <g fill="none" fill-rule="evenodd" transform="translate(1 1)">
        <path stroke="#0D143A" stroke-linecap="round" stroke-linejoin="round" d="M234.444 189.926C247.852 168 272 153.407 299.63 153.407c27.333 0 51.259 14.37 64.814 35.926M153.926 181.185c16.37-61.037 72.148-106 138.37-106 37.778 0 72.148 14.593 97.704 38.519M236.074 23.185c19.704-5.333 40.445-8.222 61.926-8.222 79.481 0 149.778 39.333 192.519 99.556M84.889 149.63C107.407 102.296 145.259 63.63 192 40"/>
        <ellipse cx="446.815" cy="109.778" fill="#0D143A" fill-rule="nonzero" rx="27.333" ry="10"/>
        <path fill="#FFF" fill-rule="nonzero" stroke="#0D143A" stroke-linecap="round" stroke-linejoin="round" stroke-width="2" d="M472.74 112.148s-19.184 104.296 0 168.222h-52.37s20.445-74.518 0-170.148l49.111 157.111"/>
        <path fill="#B51647" fill-rule="nonzero" d="M470.222 270.148l-24.889-79.704c1.26 3.926.074 10 .519 14.223.518 5.407 1.481 10.74 2.889 16 2 7.333 5.259 14.518 5.481 22.148.148 6.518-3.703 14-1.333 20.666 2.518 6.963 10.74 10.223 14.074 16.815h5.704c-.89-3.259-1.704-6.666-2.445-10.148z"/>
        <path stroke="#0D143A" stroke-linecap="round" stroke-linejoin="round" d="M472.74 112.148s-19.184 104.296 0 168.222h-52.37s20.445-74.518 0-170.148l49.111 157.111"/>
        <path fill="#B51647" fill-rule="nonzero" d="M469.556 264.815c-.741-3.63-1.482-7.26-2.37-10.815.666 4.519 1.407 8.963 2.295 13.26l.075-2.445z"/>
        <g>
            <path fill="#FFF" fill-rule="nonzero" stroke="#0D143A" stroke-linecap="round" stroke-linejoin="round" stroke-width="2" d="M68.296 216.963C51.481 148.148 46.222 94.37 51.704 47.703c1.185-12.74 2.518-23.703 3.703-30.962 1.26-7.408.89-12.148-1.037-14.445C53.407 1.111 52 .593 50.296.741c-5.407.592-13.407 9.555-18.518 20.74-4.667 10.297-6.148 17.63-5.26 26.223C32 94.37 26.742 148.148 9.927 216.889c-.074.37 0 .74.222 1.111.222.296.593.519.963.519h55.926c.37 0 .74-.149.963-.519.296-.222.37-.667.296-1.037z" transform="translate(220 62.222)"/>
            <path fill="#B51647" fill-rule="nonzero" d="M.074 153.333c5.185-4.74 11.482-8.074 18.148-10.444 6.667-2.37 13.778-3.556 20.89-3.556h2.666l2.666.223c1.778.222 3.556.296 5.334.592 3.481.74 6.963 1.333 10.296 2.667l2.519.889 1.259.444 1.185.593 4.667 2.444c1.555.815 2.963 1.852 4.37 2.89 1.407 1.036 2.815 2.073 4.148 3.184-1.703-.37-3.407-.889-5.037-1.407-1.63-.445-3.185-1.111-4.889-1.408-1.63-.37-3.259-.74-4.889-1.185-1.555-.518-3.259-.592-4.888-.963l-2.445-.444c-.815-.148-1.63-.296-2.444-.37-1.63-.149-3.26-.37-4.815-.593-1.63-.148-3.26-.148-4.89-.296-.814-.074-1.629-.149-2.444-.149l-2.444.075c-6.444 0-12.963.592-19.481 1.777-6.37 1.334-12.815 2.963-19.482 5.037z" transform="translate(220 62.222)"/>
            <path fill="#B51647" fill-rule="nonzero" d="M.074 166.222c5.185-4.74 11.482-8.074 18.148-10.444 6.667-2.37 13.778-3.556 20.89-3.556h2.666l2.666.222c1.778.223 3.556.297 5.334.593 3.481.74 6.963 1.333 10.296 2.667l2.519.889 1.259.444 1.185.593 4.667 2.444c1.555.815 2.963 1.852 4.37 2.889 1.407 1.037 2.815 2.074 4.148 3.185-1.703-.37-3.407-.889-5.037-1.407-1.63-.445-3.185-1.111-4.889-1.408-1.63-.37-3.259-.74-4.889-1.185-1.555-.518-3.259-.592-4.888-.963l-2.445-.444c-.815-.148-1.63-.297-2.444-.37-1.63-.149-3.26-.371-4.815-.593-1.63-.148-3.26-.148-4.89-.297-.814-.074-1.629-.148-2.444-.148l-2.444.074c-6.444 0-12.963.593-19.481 1.778-6.37 1.334-12.815 2.963-19.482 5.037z" transform="translate(220 62.222)"/>
            <path fill="#B51647" fill-rule="nonzero" d="M.074 179.037c5.185-4.74 11.482-8.074 18.148-10.444 6.667-2.37 13.778-3.556 20.89-3.556h2.666l2.666.222c1.778.222 3.556.297 5.334.593 3.481.74 6.963 1.333 10.296 2.667l2.519.888 1.259.445 1.185.592 4.667 2.445c1.555.815 2.963 1.852 4.37 2.889 1.407 1.037 2.815 2.074 4.148 3.185-1.703-.37-3.407-.889-5.037-1.407-1.63-.445-3.185-1.112-4.889-1.408-1.63-.37-3.259-.74-4.889-1.185-1.555-.519-3.259-.593-4.888-.963l-2.445-.444c-.815-.149-1.63-.297-2.444-.37-1.63-.149-3.26-.371-4.815-.593-1.63-.149-3.26-.149-4.89-.297-.814-.074-1.629-.148-2.444-.148l-2.444.074c-6.444 0-12.963.593-19.481 1.778-6.37 1.333-12.815 2.963-19.482 5.037z" transform="translate(220 62.222)"/>
            <path fill="#B51647" fill-rule="nonzero" d="M.074 191.926c5.185-4.74 11.482-8.074 18.148-10.445 6.667-2.37 13.778-3.555 20.89-3.555h2.666l2.666.222c1.778.222 3.556.296 5.334.593 3.481.74 6.963 1.333 10.296 2.666l2.519.89 1.259.444 1.185.592 4.667 2.445c1.555.815 2.963 1.852 4.37 2.889 1.407 1.037 2.815 2.074 4.148 3.185-1.703-.37-3.407-.889-5.037-1.408-1.63-.444-3.185-1.11-4.889-1.407-1.63-.37-3.259-.74-4.889-1.185-1.555-.519-3.259-.593-4.888-.963l-2.445-.445c-.815-.148-1.63-.296-2.444-.37-1.63-.148-3.26-.37-4.815-.593-1.63-.148-3.26-.148-4.89-.296-.814-.074-1.629-.148-2.444-.148l-2.444.074c-6.444 0-12.963.593-19.481 1.778-6.37 1.333-12.815 2.963-19.482 5.037z" transform="translate(220 62.222)"/>
            <path fill="#B51647" fill-rule="nonzero" d="M.074 204.815c5.185-4.74 11.482-8.074 18.148-10.445 6.667-2.37 13.778-3.555 20.89-3.555h2.666l2.666.222c1.778.222 3.556.296 5.334.593 3.481.74 6.963 1.333 10.296 2.666l2.519.89 1.259.444 1.185.592 4.667 2.445c1.555.814 2.963 1.852 4.37 2.889 1.407 1.037 2.815 2.074 4.148 3.185-1.703-.37-3.407-.89-5.037-1.408-1.63-.444-3.185-1.11-4.889-1.407-1.63-.37-3.259-.74-4.889-1.185-1.555-.519-3.259-.593-4.888-.963l-2.445-.445c-.815-.148-1.63-.296-2.444-.37-1.63-.148-3.26-.37-4.815-.593-1.63-.148-3.26-.148-4.89-.296-.814-.074-1.629-.148-2.444-.148l-2.444.074c-6.444 0-12.963.593-19.481 1.778-6.37 1.259-12.815 2.963-19.482 5.037zM.074 217.63c5.185-4.741 11.482-8.074 18.148-10.445 6.667-2.37 13.778-3.555 20.89-3.555h2.666l2.666.222c1.778.222 3.556.296 5.334.592 3.481.741 6.963 1.334 10.296 2.667l2.519.889 1.259.444 1.185.593 4.667 2.444c1.555.815 2.963 1.852 4.37 2.89 1.407 1.036 2.815 2.073 4.148 3.185-1.703-.37-3.407-.89-5.037-1.408-1.63-.444-3.185-1.111-4.889-1.407-1.63-.37-3.259-.741-4.889-1.185-1.555-.519-3.259-.593-4.888-.963l-2.445-.445c-.815-.148-1.63-.296-2.444-.37-1.63-.148-3.26-.37-4.815-.593-1.63-.148-3.26-.148-4.89-.296-.814-.074-1.629-.148-2.444-.148l-2.444.074c-6.444 0-12.963.592-19.481 1.778-6.37 1.333-12.815 2.963-19.482 5.037z" transform="translate(220 62.222)"/>
            <g stroke="#0D143A" stroke-linecap="round" stroke-linejoin="round" stroke-width="2">
                <path d="M.074 10.593S18.667-1.185 44.148.296M.074 23.481s14.815-9.333 36.074-10.296M.074 36.296S18.89 24.444 44.52 26M.074 49.185s11.111-7.037 28-9.555M.074 62.074s15.333-9.704 37.26-10.37M.074 74.889S22 61.037 50.89 65.259" transform="translate(220 62.222) translate(0 139.26)"/>
            </g>
            <g stroke="#0D143A" stroke-width="2">
                <path d="M.593 41.852s16.888-10.667 35.555-.074M.593 34.444s16.888-10.666 35.555-.074M.593 27.037s16.888-10.667 35.555-.074M.593 19.63s16.888-10.667 35.555-.074M.593 12.222s16.888-10.666 35.555-.074M.593 4.815S17.48-5.852 36.148 4.74" transform="translate(220 62.222) translate(20.74 5.926)"/>
            </g>
        </g>
        <path stroke="#0D143A" stroke-linecap="round" stroke-linejoin="round" d="M288.296 279.185c-16.815-68.815-22.074-122.592-16.592-169.26 1.185-12.74 2.518-23.703 3.703-30.962 1.26-7.407.89-12.148-1.037-14.444-.963-1.186-2.37-1.704-4.074-1.556-5.407.593-13.407 9.556-18.518 20.74-4.667 10.297-6.148 17.63-5.26 26.223 5.482 46.667.223 100.444-16.592 169.185-.074.37 0 .74.222 1.111.222.297.593.519.963.519h55.926c.37 0 .74-.148.963-.519.296-.222.37-.666.296-1.037z"/>
        <g>
            <path fill="#FFF" fill-rule="nonzero" stroke="#0D143A" stroke-linecap="round" stroke-linejoin="round" d="M64.222 190.222c-.37-2.222-.74-4.592-1.185-7.333h0C52.519 114.444 50.519 58.37 56.889 11.407c0-.222 0-.444-.074-.666-.074-.148-1.185-2.815-4.815-5.482C47.26 1.778 40.74.074 32.444.074 24.222.074 17.63 1.852 12.89 5.26c-3.63 2.667-4.74 5.408-4.815 5.482-.074.222-.148.444-.074.666 6.37 46.963 4.37 103.037-6.148 171.482-.445 2.74-.815 5.26-1.185 7.481-.074.37.074.741.296 1.037.222.297.593.445.963.445h61.037s0 0 0 0c.74 0 1.333-.593 1.333-1.333 0-.075 0-.149-.074-.297z" transform="translate(280 88.889)"/>
            <g fill="#0D143A" fill-rule="nonzero">
                <path d="M9.111 19.778c7.333-3.926 15.556-6.148 23.926-6.148s16.148 2 22.963 5.407c.296-2.593.593-5.111.963-7.704 0-.222 0-.444-.074-.666-.074-.148-1.185-2.815-4.815-5.482C47.334 1.704 40.814 0 32.52 0c-8.223 0-14.815 1.778-19.556 5.185-3.63 2.667-4.74 5.408-4.815 5.482-.074.222-.148.444-.074.666.37 2.815.74 5.63 1.037 8.445zM63.111 182.889c-.37-2.667-.74-5.185-1.185-7.778H3.037c-.37 2.593-.74 5.185-1.185 7.778-.445 2.74-.815 5.26-1.185 7.481-.074.37.074.741.296 1.037.222.297.593.445.963.445h61.037c.74 0 1.333-.593 1.333-1.333 0-.149 0-.223-.074-.37-.296-2.149-.666-4.445-1.11-7.26z" transform="translate(280 88.889)"/>
            </g>
            <path stroke="#FFF" stroke-linecap="round" stroke-linejoin="round" stroke-width="2" d="M12 11.778C18.889 7.48 34.963.37 53.26 11.333M4.593 182.37L18.815 182.37" transform="translate(280 88.889)"/>
            <path fill="#FFF" fill-rule="nonzero" stroke="#0D143A" stroke-linecap="round" stroke-linejoin="round" stroke-width="2" d="M49.259 146.815L38.444 168.37M52 158.148L46.815 168.37" transform="translate(280 88.889)"/>
        </g>
        <path fill="#FFF" fill-rule="nonzero" stroke="#0D143A" stroke-linecap="round" stroke-linejoin="round" stroke-width="2" d="M264.37 114.519L259.111 128.593M266.444 121.556L264.37 128.593"/>
        <g>
            <g fill="#CD4A04" fill-rule="nonzero">
                <path d="M6.519 44.148c-.815 0-1.556-.296-2.223-.815-1.481-1.259-1.63-3.407-.37-4.889l31.111-36.74c1.26-1.482 3.407-1.63 4.889-.37 1.481 1.259 1.63 3.407.37 4.888L9.186 42.963c-.742.74-1.705 1.185-2.667 1.185zM6.519 75.111c-.815 0-1.556-.296-2.223-.815-1.481-1.259-1.63-3.407-.37-4.889L39.11 27.852c1.26-1.482 3.408-1.63 4.889-.37 1.481 1.259 1.63 3.407.37 4.888L9.185 73.926c-.74.74-1.704 1.185-2.666 1.185zM3.852 114.889c-.889 0-1.778-.296-2.445-.889-1.555-1.333-1.777-3.704-.37-5.333l40.519-46.89c1.333-1.555 3.703-1.777 5.333-.37 1.555 1.334 1.778 3.704.37 5.334L6.667 113.556c-.741.888-1.778 1.333-2.815 1.333zM6.519 150.963c-.815 0-1.63-.296-2.297-.815-1.481-1.26-1.63-3.481-.37-4.889L41.185 102c1.26-1.481 3.482-1.63 4.89-.37 1.48 1.259 1.629 3.481.37 4.889L9.11 149.778c-.667.74-1.63 1.185-2.592 1.185z" transform="translate(371.111 102.222) translate(0 25.185)"/>
            </g>
            <path stroke="#0D143A" stroke-linecap="round" stroke-linejoin="round" d="M40.37 36.296c-1.037-7.63-7.11-13.555-14.666-14.518L25.259.593c0-.223-.222-.445-.444-.445s-.445.222-.445.445l-.444 21.185c-7.556.963-13.63 6.963-14.667 14.518C6.963 53.63 5.778 71.333 5.778 88.815v88.518c0 .667.518 1.186 1.185 1.186h35.556c.666 0 1.185-.519 1.185-1.186V88.815c.148-17.482-1.037-35.185-3.334-52.519z" transform="translate(371.111 102.222)"/>
            <g stroke="#FFF" stroke-linecap="round" stroke-linejoin="round" stroke-width="2">
                <path d="M.444 9.704L9.63.296M5.407 10.519L9.63 7.037" transform="translate(371.111 102.222) translate(27.407 160)"/>
            </g>
            <path fill="#FFF" fill-rule="nonzero" stroke="#0D143A" stroke-linecap="round" stroke-linejoin="round" stroke-width="2" d="M36.519 158.593L29.556 170.519M38.815 164.593L35.704 170.519" transform="translate(371.111 102.222)"/>
        </g>
        <g stroke="#0D143A" stroke-linecap="round" stroke-linejoin="round">
            <g>
                <path d="M65.704 22.519c.148-.815.296-1.63.296-2.445 0-5.926-4.815-10.74-10.74-10.74-2.667 0-5.112.962-6.964 2.592C46.148 5.037 39.63 0 32.074 0c-8.74 0-15.852 6.519-16.889 14.963-1.555-1.26-3.407-2-5.555-2-4.963 0-8.963 4-8.963 8.963 0 .222.074.37.074.593M50.074 22.519L74.222 22.519M40.444 22.519L45.407 22.519" transform="translate(468.889 28.889) translate(14.074)"/>
            </g>
            <g>
                <path d="M3.556.741L0 .741M14.741.741L7.333.741" transform="translate(468.889 28.889) translate(0 33.333)"/>
            </g>
        </g>
        <g stroke="#0D143A" stroke-linecap="round" stroke-linejoin="round">
            <path d="M6.148 14.667c-.148-.519-.222-1.037-.222-1.556 0-3.852 3.111-6.889 6.889-6.889 1.704 0 3.26.593 4.518 1.63C18.741 3.407 22.89.222 27.778.222c5.555 0 10.222 4.222 10.889 9.63.963-.815 2.222-1.26 3.555-1.26 3.185 0 5.704 2.593 5.704 5.704 0 .148 0 .297-.074.37M16.148 14.667L.667 14.667M22.37 14.667L19.185 14.667" transform="translate(36.296 80)"/>
            <g>
                <path d="M7.704.667L9.926.667M.519.667L5.185.667" transform="translate(36.296 80) translate(47.407 21.481)"/>
            </g>
        </g>
        <g>
            <path fill="#B51647" fill-rule="nonzero" d="M7.778 146.963L7.778 8.444 14.667 12.074z" transform="translate(481.481 113.333)"/>
            <path stroke="#0D143A" stroke-linecap="round" stroke-linejoin="round" stroke-width="2" d="M20.37 6.444L14.667 12.074 14.667 146.741M14.667 12.074L7.778 8.444 7.778 146.963" transform="translate(481.481 113.333)"/>
            <path fill="#FFF" fill-rule="nonzero" d="M45.481 146.741L24 147.481 24 14.37 50.074 26.815 66.37 79.704 59.185 129.63z" transform="translate(481.481 113.333)"/>
            <path fill="#0D143A" fill-rule="nonzero" d="M20.37 146.963V.37L28.074 4v13.778L45.111 32.37H28.074l8.519 7.334H50l3.63 5.259H40.889l5.037 6.889h10.518l1.334 5.704h-9.63l3.408 6.592h8.074v5.556h-6.074l1.185 5.777h4.889l.074 4.667H55.11l.296 7.778h4.223l.074 5.704h-5.26l-2 6.518h7.334v5.704H50.37l-2.222 6H59.63l-1.334 5.704H48.148l-2.889 6.296h11.408l-2 5.926h-10.89l-2.814 5.185h11.704l-3.63 6.222H38.519l-3.926 5.556h10.814s20.297 7.333 22.741-63.26C70.593 12.89 28 4 28 4v142.74" transform="translate(481.481 113.333)"/>
            <path fill="#B51647" fill-rule="nonzero" d="M4.222 165.63L4.222 150.741 23.556 150.741 23.556 165.63" transform="translate(481.481 113.333)"/>
            <path fill="#CD4A04" fill-rule="nonzero" d="M34 165.556L34 150.741 61.852 150.741zM45.111 165.63L68.296 165.63 68.296 150.741z" transform="translate(481.481 113.333)"/>
            <path stroke="#0D143A" stroke-linecap="round" stroke-linejoin="round" d="M50.074 18.444h0c0-2.296 1.852-4.148 4.148-4.148h5.63c2.296 0 4.148 1.852 4.148 4.148v38.37M.074 166.926L.074 147.741 71.852 147.741 71.852 166.778M28.074 147.741L28.074 166.926" transform="translate(481.481 113.333)"/>
        </g>
        <g fill-rule="nonzero">
            <path fill="#FFF" stroke="#0D143A" stroke-linecap="round" stroke-linejoin="round" d="M12.444 205.852V68.889c0-5.333.741-10.74 2.297-15.852 2.666-8.518 8.222-18.593 19.778-18.593 10.444 0 15.777 11.852 18.37 20.741 1.407 4.815 2.074 9.852 2.074 14.89v135.777H12.444h0zM33.63.37L33.63 34.444" transform="translate(164.444 74.815)"/>
            <g fill="#0D143A">
                <path d="M3.185 16.296c-.889 0-1.704-.37-2.37-1.037C-.296 14-.222 12 1.037 10.89c.296-.222 6.667-5.852 17.852-8.74 10.222-2.593 26.592-3.408 46.592 8 1.482.888 2 2.74 1.186 4.295-.89 1.482-2.741 2-4.297 1.186-34.37-19.556-56.296-.815-57.259 0-.444.444-1.185.666-1.926.666zM3.185 34c-.889 0-1.704-.37-2.37-1.037-1.111-1.26-1.037-3.26.222-4.37.296-.223 6.667-5.852 17.852-8.741 10.222-2.593 26.592-3.408 46.592 8 1.482.815 2 2.74 1.186 4.296-.89 1.482-2.741 2-4.297 1.185-34.37-19.555-56.296-.814-57.259 0-.444.445-1.185.667-1.926.667zM3.185 51.778c-.889 0-1.704-.37-2.37-1.037-1.111-1.26-1.037-3.26.222-4.37.296-.223 6.667-5.852 17.852-8.741 10.222-2.593 26.592-3.408 46.592 8 1.482.889 2 2.74 1.186 4.296-.89 1.481-2.741 2-4.297 1.185-34.37-19.555-56.296-.815-57.259 0-.444.37-1.185.667-1.926.667zM3.185 69.481c-.889 0-1.704-.37-2.37-1.037-1.111-1.259-1.037-3.259.222-4.37.296-.222 6.667-5.852 17.852-8.74 10.222-2.593 26.592-3.408 46.592 8 1.482.814 2 2.74 1.186 4.296-.89 1.481-2.741 2-4.297 1.185C28 49.259 6.074 68 5.111 68.815c-.444.37-1.185.666-1.926.666zM3.185 87.185c-.889 0-1.704-.37-2.37-1.037-1.111-1.26-1.037-3.26.222-4.37.296-.222 6.667-5.852 17.852-8.741 10.222-2.593 26.592-3.407 46.592 8 1.482.815 2 2.74 1.186 4.296-.89 1.482-2.741 2-4.297 1.186-34.37-19.556-56.296-.815-57.259 0-.444.444-1.185.666-1.926.666zM3.185 104.889c-.889 0-1.704-.37-2.37-1.037-1.111-1.26-1.037-3.26.222-4.37.296-.223 6.667-5.852 17.852-8.741 10.222-2.593 26.592-3.408 46.592 8 1.482.815 2 2.74 1.186 4.296-.89 1.482-2.741 2-4.297 1.185-34.37-19.555-56.296-.815-57.259 0-.444.445-1.185.667-1.926.667zM3.185 122.593c-.889 0-1.704-.37-2.37-1.037-1.111-1.26-1.037-3.26.222-4.37.296-.223 6.667-5.853 17.852-8.742 10.222-2.592 26.592-3.407 46.592 8 1.482.815 2 2.741 1.186 4.297-.89 1.481-2.741 2-4.297 1.185-34.37-19.556-56.296-.815-57.259 0-.444.444-1.185.667-1.926.667zM3.185 140.37c-.889 0-1.704-.37-2.37-1.037-1.111-1.259-1.037-3.259.222-4.37.296-.222 6.667-5.852 17.852-8.74 10.222-2.593 26.592-3.408 46.592 8 1.482.814 2 2.74 1.186 4.296-.89 1.481-2.741 2-4.297 1.185-34.37-19.556-56.296-.815-57.259 0-.444.37-1.185.666-1.926.666zM3.185 158.074c-.889 0-1.704-.37-2.37-1.037-1.111-1.26-1.037-3.26.222-4.37.296-.223 6.667-5.852 17.852-8.741 10.222-2.593 26.592-3.407 46.592 8 1.482.815 2 2.74 1.186 4.296-.89 1.482-2.741 2-4.297 1.185-34.37-19.555-56.296-.814-57.259 0-.444.37-1.185.667-1.926.667z" transform="translate(164.444 74.815) translate(0 43.704)"/>
            </g>
        </g>
        <g>
            <g fill-rule="nonzero">
                <path fill="#FFF" stroke="#0D143A" stroke-linecap="round" stroke-linejoin="round" stroke-width=".75" d="M22.148 20.889C20.518 22.667 9.185 34 9.185 34 6.667 17.556 20 15.111 20 15.111M26.593 14.444s10.74 3.482 11.481 15.778l-14.148-8" transform="translate(128.148 217.037)"/>
                <path fill="#FFF" stroke="#0D143A" stroke-linecap="round" stroke-linejoin="round" stroke-width=".75" d="M22.963 15.704s10-4.815 19.704-.667c0 0-1.852-14.593-17.778-5.481" transform="translate(128.148 217.037)"/>
                <path fill="#FFF" stroke="#0D143A" stroke-linecap="round" stroke-linejoin="round" stroke-width=".75" d="M23.926 11.778s1.333-6 8.889-9.926c0 0-8.74-6.519-13.111 6M17.704 15.852s-10-2.148-17.556 3.852c0 0-1.407-12.074 15.408-10.223" transform="translate(128.148 217.037)"/>
                <path fill="#FFF" stroke="#0D143A" stroke-linecap="round" stroke-linejoin="round" stroke-width=".75" d="M17.185 11.185c-1.852-2.815-9.63-7.11-9.63-7.11S15.63-1.556 20 9.258M20.889 22.222s4.37 25.482.667 41.926h7.777s-.37-30.667-3.11-40.667" transform="translate(128.148 217.037)"/>
                <path fill="#B51647" d="M25.037 28.296c.074 2 .148 4 .815 5.852.592 1.556 1.333 3.037 1.481 4.74.148 1.556-.222 3.112-.592 4.668-.445 1.63-.815 3.259-.445 4.888.37 1.482 1.26 2.89 1.26 4.519 0 1.556-.89 2.815-1.852 3.926-.815.889-1.334 1.778-1.704 2.963-.37 1.26-.74 2.889-.74 4.37h6s-.371-30.666-3.112-40.666l-.74-.149c-.371 1.556-.445 3.186-.371 4.89z" transform="translate(128.148 217.037)"/>
            </g>
            <g>
                <path stroke="#0D143A" stroke-linecap="round" stroke-linejoin="round" stroke-width=".75" d="M20.444 27.556s5.408.518 7.63 0M21.926 34.148s5.407.519 7.63 0M21.926 39.704s5.407.518 7.63 0M21.926 45.185s5.407.519 7.63 0M21.926 50.74s5.407.52 7.63 0M21.926 56.296s5.407.519 7.63 0" transform="translate(128.148 217.037) translate(0 1.481)"/>
                <path fill="#0D143A" fill-rule="nonzero" d="M22.148 18.667S11.556 22.37 9.111 31.852l13.037-12.445M23.926 20.74s3.926-6.221 13.852 7.334l-13.852-7.333zM19.704 13.333S9.11 5.703.148 17.703c0 0 7.037-5.036 17.778-3.48l1.778-.89zM22.963 14c-.37.148 8.963-10.222 19.63-.815 0 0-8.149-3.852-19.63.815zM32.444.148s-1.555 0-3.407.519c-4.296 1.11-6.74 5.703-5.481 9.926 0 0 3.407-7.334 8.888-10.445zM7.778 2.444s8.37-.444 9.407 7.26l-9.407-7.26z" transform="translate(128.148 217.037) translate(0 1.481)"/>
                <path stroke="#0D143A" stroke-linecap="round" stroke-width=".75" d="M10.222 62.667L38.444 62.667M2.444 62.667L6.963 62.667" transform="translate(128.148 217.037) translate(0 1.481)"/>
            </g>
        </g>
        <g>
            <path fill="#B51647" fill-rule="nonzero" d="M20.593 31.926c-.074 2.222-.149 4.518-.963 6.593-.667 1.777-1.482 3.407-1.704 5.333-.148 1.778.222 3.555.667 5.26.444 1.851.888 3.629.518 5.555-.37 1.703-1.407 3.333-1.407 5.11 0 1.779.963 3.186 2.074 4.371.889 1.037 1.555 2 2 3.333.444 1.408.889 3.26.815 4.963h-6.815s.444-34.666 3.555-46l.815-.222c.445 1.852.445 3.778.445 5.704z" transform="translate(336.296 208.889)"/>
            <path fill="#FFF" fill-rule="nonzero" stroke="#0D143A" stroke-linecap="round" stroke-linejoin="round" d="M23.778 23.481c1.852 2 14.666 14.815 14.666 14.815 2.815-18.592-12.222-21.333-12.222-21.333M18.815 16.222S6.667 20.148 5.852 34.074l16-9.037" transform="translate(336.296 208.889)"/>
            <path fill="#FFF" fill-rule="nonzero" stroke="#0D143A" stroke-linecap="round" stroke-linejoin="round" d="M22.963 17.704S11.63 12.296.667 16.963c0 0 2.074-16.519 20.074-6.148" transform="translate(336.296 208.889)"/>
            <path fill="#FFF" fill-rule="nonzero" stroke="#0D143A" stroke-linecap="round" stroke-linejoin="round" d="M21.852 13.26S20.37 6.443 11.778 2c0 0 9.852-7.333 14.815 6.815M28.889 17.778s11.333-2.445 19.852 4.296c0 0 1.555-13.704-17.408-11.63" transform="translate(336.296 208.889)"/>
            <path fill="#FFF" fill-rule="nonzero" stroke="#0D143A" stroke-linecap="round" stroke-linejoin="round" d="M29.481 12.519c2.075-3.186 10.89-8.075 10.89-8.075s-9.112-6.37-14.075 5.852" transform="translate(336.296 208.889)"/>
            <path stroke="#0D143A" stroke-linecap="round" stroke-linejoin="round" d="M25.333 25.037s-4.963 28.815-.74 47.407h-8.741s.444-34.666 3.555-46" transform="translate(336.296 208.889)"/>
            <g>
                <path stroke="#0D143A" stroke-linecap="round" stroke-linejoin="round" stroke-width=".75" d="M25.037 31.26s-6.074.592-8.593 0M23.333 38.74s-6.074.593-8.592 0M23.333 44.963s-6.074.593-8.592 0M23.333 51.26s-6.074.592-8.592 0M23.333 57.481s-6.074.593-8.592 0M23.333 63.778s-6.074.592-8.592 0" transform="translate(336.296 208.889) translate(.74 1.481)"/>
                <path fill="#0D143A" fill-rule="nonzero" d="M23.111 21.185s12 4.222 14.74 14.89L23.112 22M21.111 23.556s-4.37-7.037-15.63 8.296l15.63-8.296zM25.852 15.185S37.778 6.52 48 20.075c0 0-8-5.63-20.074-3.927l-2.074-.963zM22.222 15.926c.445.148-10.074-11.63-22.222-.963-.074.074 9.185-4.37 22.222.963zM11.481.296s1.704 0 3.852.519c4.89 1.26 7.63 6.444 6.223 11.26-.075 0-3.852-8.297-10.075-11.779zM39.333 2.889s-9.481-.519-10.592 8.222L39.333 2.89z" transform="translate(336.296 208.889) translate(.74 1.481)"/>
                <path stroke="#0D143A" stroke-linecap="round" stroke-width=".75" d="M36.593 70.963L4.667 70.963M45.407 70.963L40.296 70.963" transform="translate(336.296 208.889) translate(.74 1.481)"/>
            </g>
        </g>
        <g>
            <path fill="#FFF" fill-rule="nonzero" stroke="#0D143A" stroke-linecap="round" stroke-linejoin="round" d="M0.593 95.63H98.074V121.92599999999999H0.593z" transform="translate(35.556 157.778)"/>
            <path fill="#CD4A04" fill-rule="nonzero" d="M92.222 102.963c-2.444 3.185-6.222 4.889-10.148 5.63-8.444 1.703-17.481-.741-25.481 2.814-7.482 3.408-14.519 7.556-22.963 8.297-9.334.74-21.926-3.334-30.519 1.185h94.37v-24.37c-2.444 1.63-3.555 4.222-5.259 6.444z" transform="translate(35.556 157.778)"/>
            <path fill="#FFF" fill-rule="nonzero" stroke="#0D143A" stroke-linecap="round" stroke-linejoin="round" d="M46.296 46.667V8.593c0-4.667 3.778-8.445 8.445-8.445h0c4.666 0 8.444 3.778 8.444 8.445v31.851" transform="translate(35.556 157.778)"/>
            <path fill="#FFF" fill-rule="nonzero" stroke="#0D143A" stroke-linecap="round" stroke-linejoin="round" d="M70.074 52.667L70.074 38.444 40.37 48.667 40.37 58.741M26.593 67.556H84.074V95.63H26.593z" transform="translate(35.556 157.778)"/>
            <path stroke="#0D143A" stroke-linecap="round" stroke-linejoin="round" stroke-width="2" d="M33.259 67.556L33.259 60.148 77.185 51.259 77.185 67.556" transform="translate(35.556 157.778)"/>
            <path fill="#0D143A" fill-rule="nonzero" d="M33.259 67.556L33.259 60.148 77.185 51.259 77.185 67.556M63.111 12.963v-4.37c0-4.667-3.778-8.445-8.444-8.445-4.667 0-8.445 3.778-8.445 8.445v4.37h16.89z" transform="translate(35.556 157.778)"/>
            <path stroke="#0D143A" stroke-linecap="round" stroke-linejoin="round" stroke-width="2" d="M43.111 12.963L59.481 12.963M41.407 98.444v-11.11c0-1.853.741-3.704 2.074-5.038l.297-.296c2.889-2.889 7.555-2.74 10.296.296h0c1.111 1.26 1.778 2.89 1.778 4.519l.222 8.74" transform="translate(35.556 157.778)"/>
            <g stroke="#0D143A" stroke-linecap="round" stroke-linejoin="round" stroke-width="2">
                <path d="M.889 0L.889 8.741M19.926 0L19.926 8.741M38.963 0L38.963 8.741M58 0L58 8.741M77.037 0L77.037 8.741" transform="translate(35.556 157.778) translate(10.37 104.444)"/>
            </g>
            <path stroke="#FFF" stroke-linecap="round" stroke-width="2" d="M72.667 54.074L67.111 65.556M75.111 60.222L73.259 63.778" transform="translate(35.556 157.778)"/>
        </g>
        <path stroke="#0D143A" stroke-linecap="round" stroke-linejoin="round" d="M0.37 281.333L599.481 281.333"/>
        <g transform="translate(345.926 294.815)">
            <path fill="#008099" fill-rule="nonzero" d="M90.148 35.185c-6.815 0-19.555.815-28.889-1.704C53.63 30.963 46 36 38.37 33.481c-2.222-.592-4.148-1.851-6.148-3.185l4.37 8.297h83.927l7.333-10.667c-11.333 5.333-24.296 7.704-37.704 7.26z"/>
            <path stroke="#0D143A" stroke-linecap="round" stroke-linejoin="round" d="M29.63 25.407L71.778 25.407 137.407 14.074 120.519 38.593 36.593 38.593z"/>
            <path stroke="#0D143A" stroke-linecap="round" stroke-linejoin="round" d="M52 25.407L65.185 2.296 99.185.148 106.222 19.481M68.889 16.963L68.889 9.852M81.185 16.37L81.185 9.185M93.481 15.704L93.481 8.519M45.185 25.407h-11.11v-2.74c0-1.852 1.48-3.334 3.332-3.334H42c1.852 0 3.333 1.482 3.333 3.334v2.74h-.148z"/>
            <circle cx="111.333" cy="27.556" r="4.148" stroke="#0D143A" stroke-linecap="round" stroke-linejoin="round"/>
            <path stroke="#0D143A" stroke-linecap="round" stroke-linejoin="round" stroke-width="2" d="M10.593 38.593L.667 38.593M68.444 38.593L20.963 38.593"/>
        </g>
        <g>
            <path fill="#008099" fill-rule="nonzero" d="M104.815 2c-4.519 5.926-9.408 11.333-7.037 19.556h.889L104.815 2zM50.444 26.519c-8.518-2.519-15.259 5.11-23.777 3.407-3.408-1.704-5.926-2.519-9.334-1.704-2.444 1.185-5.777 1.556-8.074 3.26l.297.148c.222.074.444.148.666.148h68.741l17.63-7.482c-.667.223-1.334.37-2 .519-14.37 1.704-29.704 5.926-44.149 1.704z" transform="translate(125.185)"/>
            <path stroke="#0D143A" stroke-linecap="round" stroke-linejoin="round" d="M81.111 21.481L98.148 0.37 105.333 0.37 98.667 21.481" transform="translate(125.185)"/>
            <path stroke="#0D143A" stroke-linecap="round" stroke-linejoin="round" d="M63.481 21.481H9.407c-1.185 0-2.37.223-3.481.741L2 23.926c-1.704.74-1.704 3.555 0 4.296l7.63 3.334c.222.074.444.148.666.148h68.741l24.222-10.223h-28" transform="translate(125.185)"/>
            <path stroke="#0D143A" stroke-linecap="round" stroke-linejoin="round" d="M39.333 31.704L67.556 20.148 76 10.296 74.667 22.444 60 31.704z" transform="translate(125.185)"/>
            <path fill="#FFF" fill-rule="nonzero" stroke="#0D143A" stroke-linecap="round" stroke-linejoin="round" stroke-width="2" d="M12.444 25.704L13.185 25.704M17.852 25.704L18.519 25.704M23.185 25.704L23.926 25.704M28.593 25.704L29.333 25.704M34 25.704L34.741 25.704M39.407 25.704L40.148 25.704" transform="translate(125.185)"/>
        </g>
        <g fill="#FFF" fill-rule="nonzero" stroke="#0D143A" stroke-linecap="round" stroke-linejoin="round" stroke-width="2">
            <path d="M22.444.889L25.111.889M8.37.889L18.963.889M.667 5.63L5.926 5.63" transform="translate(213.333 33.333)"/>
        </g>
        <path fill="#FFF" fill-rule="nonzero" stroke="#0D143A" stroke-linecap="round" stroke-linejoin="round" stroke-width="2" d="M460.222 166.222L457.259 186.963M453.111 176.593L452.148 185.926"/>
    </g>
</svg>
