<?xml version="1.0" encoding="UTF-8"?>
<svg width="1440px" height="831px" viewBox="0 0 1440 831" version="1.1" xmlns="http://www.w3.org/2000/svg" xmlns:xlink="http://www.w3.org/1999/xlink">
    <title>ic_tourist_news_bg</title>
    <defs>
        <path d="M-3.63797881e-12,99.5683063 C218.639104,1.95179269 443.623502,-23.8873016 674.9392,22.0502136 C1019.18453,90.414683 1290.86166,132.257578 1440,119.064675 C1440,119.064675 1440,155.517952 1440,228.424507 L-3.63797881e-12,228.424507 C-3.63797881e-12,142.520373 -3.63797881e-12,99.5683063 -3.63797881e-12,99.5683063 Z" id="path-1"></path>
    </defs>
    <g id="Page-1" stroke="none" stroke-width="1" fill="none" fill-rule="evenodd">
        <g id="03-tourist" transform="translate(0.000000, -3369.000000)">
            <g id="Group-6" transform="translate(0.000000, 3369.000000)">
                <g id="ic_tourist_news_bg">
                    <polygon id="Rectangle" fill="#F8F7F6" points="0 0 1440 0 1440 830 0 830"></polygon>
                    <g id="Combined-Shape" transform="translate(0.000000, 601.575493)">
                        <mask id="mask-2" fill="white">
                            <use xlink:href="#path-1"></use>
                        </mask>
                        <use id="Mask" fill="#008099" xlink:href="#path-1"></use>
                        <path d="M1350.42167,228.924507 C1359.58508,231.347553 1370.74323,241.813665 1370.99564,242.051218 L1371,242.055328 C1371,242.055328 1364.55365,252.708377 1361.33047,256.424507 C1350.95851,246.473371 1341,242.550672 1341,242.550672 C1341,242.550672 1344.96674,236.109097 1350.42167,228.924507 Z M1391.57833,228.924507 C1397.03326,236.109097 1401,242.550672 1401,242.550672 C1401,242.550672 1391.04149,246.473371 1380.66953,256.424507 C1377.44635,252.708377 1371,242.055328 1371,242.055328 C1371,242.055328 1382.30959,231.375404 1391.57833,228.924507 Z M1441.66953,228.924507 C1452.04149,238.875644 1462,242.798343 1462,242.798343 C1462,242.798343 1458.03326,249.239918 1452.57833,256.424507 C1443.30959,253.973611 1432,243.293687 1432,243.293687 C1432,243.293687 1438.44635,232.640638 1441.66953,228.924507 Z M1422.33047,228.924507 C1425.50481,232.584333 1431.8054,242.97246 1431.99559,243.286411 L1432,243.293687 C1432,243.293687 1420.69041,253.973611 1411.42167,256.424507 C1405.96674,249.239918 1402,242.798343 1402,242.798343 C1402,242.798343 1411.95851,238.875644 1422.33047,228.924507 Z M1350.42167,201.424507 C1359.58508,203.847553 1370.74323,214.313665 1370.99564,214.551218 L1371,214.555328 C1371,214.555328 1364.55365,225.208377 1361.33047,228.924507 C1350.95851,218.973371 1341,215.050672 1341,215.050672 C1341,215.050672 1344.96674,208.609097 1350.42167,201.424507 Z M1391.57833,201.424507 C1397.03326,208.609097 1401,215.050672 1401,215.050672 C1401,215.050672 1391.04149,218.973371 1380.66953,228.924507 C1377.44635,225.208377 1371,214.555328 1371,214.555328 C1371,214.555328 1382.30959,203.875404 1391.57833,201.424507 Z M1441.66953,201.424507 C1452.04149,211.375644 1462,215.298343 1462,215.298343 C1462,215.298343 1458.03326,221.739918 1452.57833,228.924507 C1443.30959,226.473611 1432,215.793687 1432,215.793687 C1432,215.793687 1438.44635,205.140638 1441.66953,201.424507 Z M1422.33047,201.424507 C1425.50481,205.084333 1431.8054,215.47246 1431.99559,215.786411 L1432,215.793687 C1432,215.793687 1420.69041,226.473611 1411.42167,228.924507 C1405.96674,221.739918 1402,215.298343 1402,215.298343 C1402,215.298343 1411.95851,211.375644 1422.33047,201.424507 Z M1350.42167,173.924507 C1359.58508,176.347553 1370.74323,186.813665 1370.99564,187.051218 L1371,187.055328 C1371,187.055328 1364.55365,197.708377 1361.33047,201.424507 C1350.95851,191.473371 1341,187.550672 1341,187.550672 C1341,187.550672 1344.96674,181.109097 1350.42167,173.924507 Z M1391.57833,173.924507 C1397.03326,181.109097 1401,187.550672 1401,187.550672 C1401,187.550672 1391.04149,191.473371 1380.66953,201.424507 C1377.44635,197.708377 1371,187.055328 1371,187.055328 C1371,187.055328 1382.30959,176.375404 1391.57833,173.924507 Z M1441.66953,173.924507 C1452.04149,183.875644 1462,187.798343 1462,187.798343 C1462,187.798343 1458.03326,194.239918 1452.57833,201.424507 C1443.30959,198.973611 1432,188.293687 1432,188.293687 C1432,188.293687 1438.44635,177.640638 1441.66953,173.924507 Z M1422.33047,173.924507 C1425.50481,177.584333 1431.8054,187.97246 1431.99559,188.286411 L1432,188.293687 C1432,188.293687 1420.69041,198.973611 1411.42167,201.424507 C1405.96674,194.239918 1402,187.798343 1402,187.798343 C1402,187.798343 1411.95851,183.875644 1422.33047,173.924507 Z M1350.42167,146.424507 C1359.58508,148.847553 1370.74323,159.313665 1370.99564,159.551218 L1371,159.555328 C1371,159.555328 1364.55365,170.208377 1361.33047,173.924507 C1350.95851,163.973371 1341,160.050672 1341,160.050672 C1341,160.050672 1344.96674,153.609097 1350.42167,146.424507 Z M1391.57833,146.424507 C1397.03326,153.609097 1401,160.050672 1401,160.050672 C1401,160.050672 1391.04149,163.973371 1380.66953,173.924507 C1377.44635,170.208377 1371,159.555328 1371,159.555328 C1371,159.555328 1382.30959,148.875404 1391.57833,146.424507 Z M1441.66953,146.424507 C1452.04149,156.375644 1462,160.298343 1462,160.298343 C1462,160.298343 1458.03326,166.739918 1452.57833,173.924507 C1443.30959,171.473611 1432,160.793687 1432,160.793687 C1432,160.793687 1438.44635,150.140638 1441.66953,146.424507 Z M1422.33047,146.424507 C1425.50481,150.084333 1431.8054,160.47246 1431.99559,160.786411 L1432,160.793687 C1432,160.793687 1420.69041,171.473611 1411.42167,173.924507 C1405.96674,166.739918 1402,160.298343 1402,160.298343 C1402,160.298343 1411.95851,156.375644 1422.33047,146.424507 Z" fill="#000000" opacity="0.0751674122" mask="url(#mask-2)"></path>
                    </g>
                </g>
            </g>
        </g>
    </g>
</svg>