<svg xmlns="http://www.w3.org/2000/svg" width="35" height="35" viewBox="0 0 36 35">
    <g fill="none" fill-rule="evenodd">
        <path fill="#FD2020" d="M17.33 34.659C7.758 34.659 0 26.9 0 17.329 0 7.76 7.759 0 17.33 0c9.57 0 17.329 7.759 17.329 17.33 0 9.57-7.76 17.329-17.33 17.329z" transform="translate(.659)"/>
        <path fill="#FFF" fill-rule="nonzero" d="M9.63 14.214v6.08c0 1.462 1.184 2.646 2.645 2.646h11.069c1.461 0 2.646-1.184 2.646-2.645v-6.081c0-1.461-1.185-2.646-2.646-2.646H12.275c-1.461 0-2.646 1.185-2.646 2.646zm6.182 6.327v-6.574l4.984 3.287-4.984 3.287z" transform="translate(.659)"/>
    </g>
</svg>
