<svg xmlns="http://www.w3.org/2000/svg" width="72" height="72" viewBox="0 0 72 72">
    <g fill="none" fill-rule="evenodd">
        <circle cx="36" cy="36" r="36" fill="#BA0C2F"/>
        <g stroke="#FFF" stroke-linecap="round" stroke-width="1.5">
            <path d="M20.46 7.78c.79-2.108 2.767-3.556 5.006-3.556 3.03 0 5.4 2.37 5.4 5.4 0 1.976-1.054 3.82-2.767 4.742M19.011 2.511L19.934 3.565M25.73.536L25.73 1.984M31.788 2.511L30.998 3.565M34.686 8.307L33.368 8.307M33.368 14.102L32.051 13.576" transform="translate(19 24)"/>
            <path d="M7.648 12.126c1.318-3.029 4.347-5.268 7.903-5.268 4.478 0 8.167 3.556 8.562 7.903.526-.264 1.185-.395 1.844-.395 2.766 0 5.136 2.239 5.136 5.137 0 2.897-2.37 5.268-5.268 5.268h-10.01c-.264.132-8.957 0-8.957 0-3.425 0-6.322-2.765-6.322-6.322 0-3.556 2.766-6.323 6.322-6.323s6.323 2.767 6.323 6.323" transform="translate(19 24)"/>
        </g>
    </g>
</svg>
