<svg xmlns="http://www.w3.org/2000/svg" width="43" height="43" viewBox="0 0 43 43">
    <g fill="none" fill-rule="evenodd" stroke="#CD4A04" stroke-linecap="round" stroke-linejoin="round" stroke-width="1.5">
        <path d="M20.923 5.457c8.542 0 15.467 6.924 15.467 15.466 0 8.542-6.925 15.467-15.467 15.467-8.542 0-15.466-6.925-15.466-15.467 0-8.542 6.924-15.466 15.466-15.466z" transform="translate(1 1)"/>
        <path d="M20.923.685c11.177 0 20.238 9.061 20.238 20.238 0 11.178-9.06 20.239-20.238 20.239C9.746 41.162.685 32.101.685 20.923.685 9.746 9.746.685 20.923.685z" transform="translate(1 1)"/>
        <path d="M17.796 13.519v12.67c0 1.315-.987 2.303-2.302 2.303-1.317 0-2.305-.988-2.305-2.304V23.72M20.594 12.86v9.708c0 .988.988 1.81 2.303 1.81 1.317 0 2.304-.822 2.304-1.81v-1.81M27.834 22.733s3.62 5.76-3.62 6.253M22.898 26.846L22.898 26.846M20.1 26.846L20.1 26.846" transform="translate(1 1)"/>
    </g>
</svg>
