<svg xmlns="http://www.w3.org/2000/svg" width="24" height="21" viewBox="0 0 24 21">
    <g fill="none" fill-rule="evenodd" stroke-linecap="round" stroke-linejoin="round">
        <g stroke="#CD4A04" stroke-width="1.2">
            <g>
                <g>
                    <path d="M11.73 13.857H1.175c-.497 0-.9-.403-.9-.9V1.174c0-.496.403-.899.9-.899h16.338c.416 0 .753.337.753.753V8.408" transform="translate(-174 -235) translate(151 203) translate(24 33)"/>
                    <path d="M.626.434L9.12 7.253 17.971.434M17.667 13.29c-.23-.252-.56-.406-.937-.406-.763-.016-1.279.672-1.278 1.263 0 .583.513 1.273 1.282 1.262.415-.006.778-.197 1.006-.498l-.073-1.621zm-5.937 1.5v-1.244c.078-.259.233-.41.52-.428.19-.012.378-.063.563-.112.164-.042.292-.144.371-.296.092-.175.066-.354-.026-.51-.115-.198-.253-.383-.392-.563-.13-.17-.15-.383-.019-.55.263-.33.556-.634.899-.885.2-.148.43-.139.619.027.173.153.358.287.573.376.266.11.526.032.676-.212.053-.086.093-.187.115-.286.04-.18.056-.366.095-.546.015-.075.057-.147.095-.216.087-.157.258-.153.4-.2h1.023c.02.009.039.024.06.028.287.054.41.198.44.487.014.154.035.31.077.458.151.535.522.679.997.384.144-.089.275-.2.409-.305.144-.112.398-.13.535-.028.354.268.672.577.942.932.035.045.082.102.08.152-.01.158-.019.312-.145.448-.139.15-.26.325-.352.507-.137.267-.096.662.345.792.211.062.43.102.65.128.128.015.231.055.304.153.06.08.1.176.147.265v1.244c-.049.08-.089.165-.15.236-.106.127-.25.168-.416.17-.238.004-.471.045-.686.158-.172.09-.261.23-.258.43.002.161.043.309.133.44.105.153.22.298.327.447.133.186.125.414-.018.59-.243.302-.522.564-.825.804-.12.096-.236.13-.386.118-.103-.01-.178-.05-.256-.112-.212-.173-.421-.351-.702-.41-.174-.036-.335 0-.45.124-.092.1-.168.229-.208.358-.054.175-.078.362-.095.545-.01.118-.036.221-.132.291-.087.063-.185.112-.278.167h-1.2c-.257-.077-.413-.231-.426-.518-.008-.16-.048-.321-.084-.48-.087-.388-.476-.661-.928-.386-.157.096-.304.209-.449.322-.177.139-.403.15-.584.015-.346-.258-.658-.551-.918-.897-.044-.06-.067-.144-.077-.221-.02-.14.049-.25.134-.361.14-.18.281-.367.375-.571.16-.347.025-.637-.336-.755-.173-.056-.36-.087-.542-.096-.285-.015-.472-.14-.566-.408z" transform="translate(-174 -235) translate(151 203) translate(24 33)"/>
                </g>
            </g>
        </g>
    </g>
</svg>
