<svg xmlns="http://www.w3.org/2000/svg" width="23" height="23" viewBox="0 0 23 23">
    <g fill="none" fill-rule="evenodd" stroke-linecap="round" stroke-linejoin="round">
        <g stroke="#CD4A04" stroke-width="1.2">
            <g>
                <g>
                    <path d="M20.574 10.451c0 2.016-.589 3.893-1.604 5.47-.483.752 1.604 4.653 1.604 4.653s-4.352-1.778-4.924-1.434c-1.52.911-3.297 1.434-5.199 1.434C4.86 20.574.328 16.043.328 10.451.328 4.861 4.86.33 10.45.33c5.59 0 10.123 4.531 10.123 10.122z" transform="translate(-174 -814) translate(151 203) translate(24 612)"/>
                    <path d="M7.306 8.869v-.975c0-1.497 1.213-2.711 2.711-2.711h.869c1.497 0 2.71 1.214 2.71 2.711 0 1.01-.561 1.938-1.458 2.405l-.227.119c-.897.467-1.46 1.394-1.46 2.405v.886M10.451 15.124L10.451 15.721" transform="translate(-174 -814) translate(151 203) translate(24 612)"/>
                </g>
            </g>
        </g>
    </g>
</svg>
