<?xml version="1.0" encoding="UTF-8"?>
<svg width="40px" height="43px" viewBox="0 0 40 43" version="1.1" xmlns="http://www.w3.org/2000/svg" xmlns:xlink="http://www.w3.org/1999/xlink">
    <title>ic_leaving_qatar</title>
    <g id="Page-1" stroke="none" stroke-width="1" fill="none" fill-rule="evenodd" stroke-linecap="round" stroke-linejoin="round">
        <g id="03-tourist" transform="translate(-968.000000, -1093.000000)" stroke="#B51647" stroke-width="1.5">
            <g id="Group-Copy-8" transform="translate(151.000000, 986.000000)">
                <g id="Group-14-Copy-3" transform="translate(780.000000, 82.000000)">
                    <g id="Group-13" transform="translate(38.000000, 26.000000)">
                        <g id="ic_leaving_qatar">
                            <line x1="28.57215" y1="31.93995" x2="34.99365" y2="31.93995" id="Stroke-1"></line>
                            <line x1="28.7583" y1="19.65285" x2="31.4088" y2="19.65285" id="Stroke-2"></line>
                            <g id="Group-25" transform="translate(0.000000, 0.525150)">
                                <path d="M30.66105,13.1907 C30.43605,13.0347 30.19755,7.7772 30.19755,7.7772 L34.14255,7.7772 L32.94255,14.2662" id="Stroke-3"></path>
                                <line x1="16.29315" y1="15.552" x2="23.35815" y2="11.079" id="Stroke-5"></line>
                                <line x1="16.29315" y1="24.51975" x2="23.35815" y2="20.04675" id="Stroke-7"></line>
                                <line x1="19.0017" y1="33.49935" x2="24.8322" y2="29.42085" id="Stroke-9"></line>
                                <path d="M35.1963,11.07555 C35.9268,12.12855 36.1563,13.16505 35.6883,13.82205 C34.9203,14.90355 32.5698,14.54955 30.4353,13.03605 C28.2993,11.52105 27.1908,9.41655 27.9588,8.33655 C28.2633,7.90605 28.8198,7.70355 29.5128,7.70955" id="Stroke-11"></path>
                                <path d="M35.68845,13.82205 L34.81695,20.14905 C34.48995,22.51755 34.42545,24.91605 34.62795,27.29805 L35.69295,39.93705 L38.06445,39.93705" id="Stroke-13"></path>
                                <line x1="20.63415" y1="0.03795" x2="20.63415" y2="4.74795" id="Stroke-15"></line>
                                <path d="M12.02895,12.07455 C12.02895,12.92355 10.14645,13.61355 7.82445,13.61355 C5.50245,13.61355 3.61995,12.92355 3.61995,12.07455 C3.61995,11.22705 5.50245,10.53705 7.82445,10.53705 C10.14645,10.53705 12.02895,11.22705 12.02895,12.07455 Z" id="Stroke-17"></path>
                                <line x1="8.5434" y1="27.8319" x2="11.5029" y2="37.3014" id="Stroke-19"></line>
                                <path d="M7.6344,24.92265 L3.6204,12.07515 C6.9009,27.42165 3.6204,39.38565 3.6204,39.38565 L0.5619,39.38565" id="Stroke-21"></path>
                                <path d="M12.02895,12.38205 C12.02895,12.38205 8.95245,29.13105 12.02895,39.38505 L16.29345,39.38505 L16.29345,11.78805 C16.29345,10.69155 16.44045,9.59805 16.76445,8.54955 C17.30445,6.80655 18.44145,4.75305 20.80545,4.74704376 C22.94295,4.74255 24.03645,7.17255 24.55695,8.99505 C24.84195,9.98655 24.97395,11.01405 24.97395,12.04455 L24.97395,39.38505 L27.84495,39.38505 L28.96695,26.78055 C29.13645,24.79905 29.12145,22.80855 28.92645,20.83305 L27.84495,9.90705" id="Stroke-23"></path>
                            </g>
                        </g>
                    </g>
                </g>
            </g>
        </g>
    </g>
</svg>