<?xml version="1.0" encoding="utf-8"?>
<!-- Generator: Adobe Illustrator 24.1.1, SVG Export Plug-In . SVG Version: 6.00 Build 0)  -->
<svg version="1.1" id="Layer_1" xmlns="http://www.w3.org/2000/svg" xmlns:xlink="http://www.w3.org/1999/xlink" x="0px" y="0px"
	 viewBox="0 0 32 32" style="enable-background:new 0 0 32 32;" xml:space="preserve">
<style type="text/css">
	.st0{fill:none;stroke:#cd4a04;stroke-width:0.75;stroke-linecap:round;stroke-linejoin:round;stroke-miterlimit:10;}
	.st1{fill:none;stroke:#cd4a04;stroke-width:0.75;stroke-linecap:round;stroke-linejoin:round;stroke-miterlimit:10;}
	.st2{fill:none;stroke:#cd4a04;stroke-width:0.75;stroke-linecap:round;stroke-miterlimit:10;}
	.st3{fill:none;stroke:#cd4a04;stroke-width:0.75;stroke-linecap:round;stroke-miterlimit:10;}
	.st4{fill:#cd4a04;}
	.st5{fill:#cd4a04;}
	.st6{fill:none;stroke:#FFFFFF;stroke-miterlimit:10;}
	.st7{fill:none;stroke:#cd4a04;stroke-width:2;stroke-linecap:round;stroke-linejoin:round;stroke-miterlimit:10;}
</style>
<g>
	<g>
		<polygon class="st1" points="13.2,20.5 21.1,17.5 26,19.4 29,20.5 26.5,21.3 21.1,23.1 		"/>
		<polyline class="st1" points="16.7,22.1 16.7,27.4 25.6,27.4 25.6,21.9 		"/>
	</g>
	<polyline class="st1" points="24.4,20.3 28.2,22.4 28.2,23.8 	"/>
	<g>
		<g>
			<line class="st1" x1="6.9" y1="4.6" x2="6.9" y2="7.5"/>
			<line class="st1" x1="15.1" y1="4.6" x2="15.1" y2="7.5"/>
			<line class="st1" x1="23.3" y1="4.6" x2="23.3" y2="7.5"/>
			<path class="st1" d="M14.5,24.4H4.4C3.6,24.4,3,23.8,3,23V7.2c0-0.8,0.6-1.4,1.4-1.4H26c0.8,0,1.4,0.6,1.4,1.4v10.4"/>
			<line class="st1" x1="3" y1="9.6" x2="25.1" y2="9.6"/>
		</g>
		<line class="st1" x1="6.9" y1="13.9" x2="8.1" y2="13.9"/>
		<line class="st1" x1="6.9" y1="20.1" x2="8.1" y2="20.1"/>
		<line class="st1" x1="14.5" y1="13.9" x2="15.7" y2="13.9"/>
		<line class="st1" x1="22.1" y1="13.9" x2="23.3" y2="13.9"/>
	</g>
</g>
</svg>
