<svg xmlns="http://www.w3.org/2000/svg" width="35" height="35" viewBox="0 0 35 35">
    <g fill="none" fill-rule="evenodd">
        <path fill="#467AA7" d="M17.33 34.659C7.758 34.659 0 26.9 0 17.329 0 7.76 7.759 0 17.33 0c9.57 0 17.329 7.759 17.329 17.33 0 9.57-7.76 17.329-17.33 17.329z"/>
        <g fill="#FFF" fill-rule="nonzero">
            <path d="M.178 4.503H3.277V13.81H.178zM13.449 5.353c-.651-.71-1.512-1.066-2.583-1.066-.394 0-.753.049-1.075.146-.323.097-.595.233-.817.408-.222.176-.4.339-.53.489-.126.142-.248.309-.367.497V4.503h-3.09l.01.451c.006.3.009 1.227.009 2.78 0 1.553-.006 3.578-.019 6.076h3.09V8.617c0-.32.034-.573.103-.761.132-.32.33-.587.597-.803.266-.216.596-.324.99-.324.539 0 .935.186 1.189.559.253.372.38.887.38 1.545v4.977h3.09V8.476c0-1.371-.326-2.412-.977-3.123zM1.747.023c-.52 0-.94.152-1.263.456C.16.782 0 1.166 0 1.629c0 .457.157.84.47 1.146.313.307.726.46 1.24.46h.018c.526 0 .95-.153 1.273-.46.322-.307.48-.689.474-1.146-.006-.463-.166-.847-.48-1.15C2.684.175 2.267.023 1.748.023z" transform="translate(10.59 10.59)"/>
        </g>
    </g>
</svg>
