<svg xmlns="http://www.w3.org/2000/svg" width="392" height="542" viewBox="0 0 392 542">
    <g fill="none" fill-rule="evenodd">
        <text fill="#C1B7AF" font-family="Cairo-Black, Cairo" font-size="198" font-weight="700" opacity=".204">
            <tspan x="0" y="562">قطر</tspan>
        </text>
        <g fill="#C1B7AF" fill-rule="nonzero" opacity=".46">
            <path d="M206.6 319.8l-11.2 4.6-9.6-15.7 10.3-6.5 10.5 17.6zm5.1-20.7l-1.2 1.3-3.8-5.8 1.7-1 3.3 5.5zm45.3-19.3l.8.7v.9l-.5.4h-.5l.7-.6-.4-.8-1.5-.1 1.4-.5zm-18.2-16l1.1.5-.1 3.5-2.3-1.4-2.2-.5.8-1.6 1.4.6 1.3-1.1zm-5.5-20l.2.7 2.9 1.2.6.7.2 1.3h-1.8l-1 .9-.1-1.8-1-.5-.2-1.1-.6-.5.8-.9zm11.4 56.4l-9.1.8-7.8 2.5-.3-1.4-1.8-.3-4.6-2.4-7.1-5.1-2.9-1.6 3.5-2.7-6.1-8-1.8-9.3-1.5-4.3-3.8-7.8-.4-1.8 13.6-8.9-2-5.5-3.8-18.1h10.5l.5 2.6 5.3 4.1.9.3.6-.5 1 .3 1.2-.8-.2 1.1-.7.1.4 1.1-.6-.4-.7.3-4.4-3.4-1.9-.4.9 1.1.5 2 .9.4.3.6.5-.1-.2 1.8-.5.4v.4l.5.2.1 1.2-.6 1.8-.2-.4-.6.1-.2.6.3 1.8.7 1.9.4.1-.4 3.4.7 2.2-.2 1.2 1 2.2 2.6-.6.2.3-1.9 1.8-.1.6-1.4.4-.2 1.4 1.2 1.2-.1.7-2.1-.8-.2 1-.6.3.2.9.8.2.1.9-.9.4-.1.4 1.4.4.3.5v-.9h1.1l.2.7-.6 2-1.8 1.7-.2 1.7.6.9.7.3 2.8-.4 1.5 2.3-.1.6h-.8v1.8l-2.1.5-1.7-.1-1.5 1.3-.3 1.6-.4.3-.1 1.8 1.2 1.5 1.4.8 1.6.4.6-1.1.3.4-.2.8.8.3.2-1.2 2-.4-.5-1.1.3-.5.5.1.3.8.7-.3-.2-1.8 2.5-1.1.9 1.9-1 .4-.7-1.5-1 .4 1.2 2.8-.2.5-.5-.1-.4-.9-.3.4h-.9v.6l.6-.2-.6.5.2.8.6.4 1.1-.1.1.7.7.4.9-.4-.7-.2-.1-.4.9-.3.5.4.5-1.1 1.2-.8-.1-.7 1.6 1 .9-.1v-1.8l.3-.2 1 .7-.5 1.8.2 1.6.9.1.1.8.8.3 1-.5.6.2 2.4-2.8.8-2.1 1.7-.5.8 2.2.6.6.2 1.5 2.3 5.9 1 1.1.1 1.4-5.1-12.4-1.4.4-.6 1.8-2.2 3 2.2-1.4 1 1.1-.4.5 1.6 2.1-.5 1.3.4 2.2-.6.5-.3 2 3.3.4 1.9.9.6-.4.1.4-.7.3-1.9-.9-3.5-.3.1 2h-1l-1 .8.7.6-.2.6-.7.2.6 2.5zM237.1 135.4l-.2 1.2h-.6l.1-.9.7-.3zm-.3-1.5l-.4 1.4-.3-1.1.7-.3zm5.6-.5l.5.4-1.9 1.7-1.8.8.2-.8h1.1l1.2-1.8.7-.3zm-51.9-62.1l2.1 1.5 4.4 1.8.1.4 1.2-.2.3.4 2.5.1.9-1 .9.3.9-.4-.1-1.5.6 1.4-1.4.9 9-1.8.3-2.3v2.4l2.3-.2.2.4 4.7 1 2.8 1.8 3.5 3.8 2.8 1.6 1-.2L233 83l3.5 2.1.8-.3 7.1-6.6 1 .1 5.6 2.5v.4h-.4l-4.7-2.2-1.4-.3-2.9 2.6-.2.9 3.7-1.2 1 1.7-1.3.4-.5-.8-1 .3-.6-.4-1.4.8-3.3 2.8v.5l.6.4-.2 1.4 1.2-.2 8.3-4.4-.5-1.1.7 1 1-.5.2-.6.1.7-9.9 5.3-1.8.2-.7.5.2 1.7-.3.2-.4 3.2.2 3.6.8.9.3 3.5h.7l-.3 1.8.7.3.4 1.2h1.6l-1.5.3.7 2.5-.1 1.1.4.5.2 6.5.7 2.1h.3l1.6 3.3v1.8l-.7 1-.4 2.8.5.3v.8l-1 1.3.6 1.1-.1 1-1.6 1.7-.3 1.4-1.3.2-.4 1.4-1 .5-.7-.9 1.1-1.8-.9.1-.2.6-.2-.9.7-1-.2-1.3.5-.7-1.4-1.3h-1.1l.8.9-2.3 3.7-.2 3-1.7 3.2-1.9.1-1.2-1.3-2.2-1.1.2 1.9.6.8 1.1-.6 1.2.9.7 1.6 2.3 1 .2.5.6-.3 1.7.6.2.6.1-1.8.7-1h1l.2-1.3h1v.6l.6.5 1.5.7-.6 1.1 2.5 2.5.2 1.2-.6.9.2 1.8-.5-.1-1.1 1.7v.7l.6.5-1.7.5-.6.8.1 1.1 1.1.1-1 .2-.2.7 1.2-.2-1 .7v2.1l-.3.7-1.4.5.2 1.1-1.5-1.2-.6.4-.6-1-1-.4-4.8.4-.6-2.1.7-.3.6.5.3-.2-.7-1.2-.6-1.1.2-.4 1.4.4.1-.4-1.1-1.8-1.4-.6.1-.6-.8.4-1.3-.2-1.2.9-.6-.1-1.8 1.1-.8.1-1 1-.6-.8h-.6l-2.3 1.2-.3.5 1.2 1.4 1.4.1.6-.6.2 1.1 2.8-.1.2 1.6.7-1.2 2.9.2-.5 2.3-1.2.2-.6 1.1.2 1.1 1.1.6-.2 1.6.7.1.5-.5 1.5.2v.9l1.3-.5.2.6 1.1.2-.1 1.2-1 1.3.5 4.2-1.4 1.3.3 1.1-6.8-2.5-9-.5-10.1-5-3.8 2.3-2.4.6-6.3 6.3-2 .6-1.7-.1 3.5 18.1L163 197l-15.1-9-6.5-10.8 4.3-13.8.6-9.3-.2-2.2 4.2-4.7H105v-18H67.2l-.6-1.2-.6-3.1 2.1-.8 1-1.8-.3-1.6-1.5-.2 1-2.8-.6-1.4.2-.8-.8-.3.1-1h-1l-.2-.4-1.5.4-1.4-.2-.9.7-.2-.8-.6.1-.3-1.1h-.7l-.6-.5v-1.1l-.8.1.9-.5-.2-2.4 1-2.1H105V74.3h43.4l.4 17.2 21.2-.1 1.4 14.6 1.4-.3 17.2.4.5-34.8z" opacity=".24" transform="translate(69)"/>
            <path d="M76.7 57.5l1.4.8.2.6-.4.3-1.4-.3-.2-1c0 .1.4-.4.4-.4zM97.1 34l.2.4-.5.4-.2-.7c-.1 0 .5-.1.5-.1zm35.7-21.4l.2.4-1 .2v-.5h.8v-.1zm11.3-4l2.3.9.3.5h.4l-.2-.8.3.3 1.4-.4.2.5-1-.1.1.9-.5-.8.2 1.7 2.1.4.6.4-.2.4 1.4.4.5.9 2.5.4 1.9 1.1 1.2-.2 3.7 1.4 1.5 1.1.8 1.2 2.6 1.1.9 1.4.9.3.6-.3.2 1.1 1.4 1.3 1.3.2 1.2 1.2 2.5.9.6 1.4-1 4.2.1 1.4.9 2.2-.9 1.2v1.2l2.1.1.3.8-1.1-.6-1.4.4.2 3.5 1.8 3 .8.4 1 2.4 3.1 2.8-.3.4-.2-.4-1.3-.5-.2.7L181 52l5.7 3.3.4 4.4-.5 2.7.6 2.1v4.4l.8 1.1h.9l1.7 1.2v.1l.1 34.9-17.2-.4-1.4.3-1.4-14.6-21.2.1-.4-17.2h-43.4v32.1H61.3l-.2-1.1-.7-.5.1-.7 1.9-1.7.4-1-.6.4v-.5l.8-1.8.5-.3.5.3-.2 1.1.4 1.2h1l2-1.2.2-.6-1.2-1.1-.1-.7-1.5-.9-.4-.8 1-.4.2-1.1 1.2-.5-.2-2-.5-.4 1.2.4 1-.3 1-.9-.2-.7.9-.2.5-1.3-.2-1.1.4-.1-.5-1.1.4-.1v-1l.9-1L71 83l.5-.4-.6-.6-.6-2.8.4-3-.6-1.4.4-1.4-.2-.9-1-.4.1-2.8-.6-.5-.4-1.8.8-.9V64l.5.4.2-.7.6-.2.3.9.8.6.7-.6v.4l-1 .8v.5l1 1v1.1l-.6.3.5.4.1 1 .7-.2v1l.5.8.6.1-.1.5.4-.3.7.3-.1-.9.6-.3v-.5h.5l.9-1 .4.4 1.7-1.2-.4-.5v-1.6l.7-.8-.3-2.6.5-.2 1.1.7 1.7-.4.6-.7-.1-.4-1-.5.5-1.7-.5-.8.3-1.3-.5-.4 1-1.5-.3-1.4 1 .2.2-.4.1-1.2L83 52l.3-.4-.3-1.1.6-.2.2-1.1-.4-.6.7-.7-.4-.3-.2-1.8-1.4-.8.1-.4 2-.1.4-.5 1-.1 1.4-1.1h.6l.2-.4 3.7-.8 2.1-1.1 1.8-1.5-.2-1 1.3-1.1.6-1.3 1.8.2v.7l1.1.7 1.8-.8.2-1.1.9-.1 1.2-2.1 1.8.3v.6l.8.8.2 1.3 1.1.3 1.2-.4.9-1 1.8-.7 4-2.7.6-.9-.1-1.8 1-1.3-.5-1v-1.2l.6-2.1 3.6-2.9 1.1-.2.1-.8 1.5-.4.8-1 .9-.2.8-2.1h-.9l-.8-1.1.3-.8.7-.2.5-1.3.6.1.1 2.3.5.3 2.1-.6 2.9.2 1-.4.3-.8.6-.4 1.1.4.8 1h1.3l2.1-1.3.6-1.6 1.1-1.3v-.6l1.4-.7 1.5-.3zM133.4.5l.8 1.8.8.4 1.9-.1 3.8-1.3 1.5.4 1.4 1.1-2.1-1h-1.2l-1.5.4-.3.4-2.1.4-1.5 1.1v1.6l-.5-.9.2-1.5-.8-.5.2-.5h-.2l-.4-.6V.5zM10.2 207.3l.2.6-.4.1-.2-.5.4-.2zm39.3-29.2l.4.7h.6l.2.5.8.3.2 1.1-.8-.3-.4-1-.7-.1-.4-1 .1-.2zm3.9-59.1l1.5.6.7-.2.7 1.6.6.2.4-.4.6 1.7 1.3 1.6.6.1-.2.7.6.1.5 1.1.4.1-.2.9.5.9-.1 1-1.5 1.8v3.1l-.7-.4-.4.4.2.6.3-.5 1 .4-.2-.8.3-.3 1.6.2 1.4-.5.3-.6-.2-1.3 1.8.3 1.5-.8 1.1-1.2h37.8v18h45.3l-4.2 4.7.2 2.2-.6 9.3-4.3 13.8 6.5 10.8v62l19.4.5 8.1.9 11.1 3.8v7.3l6 .1-.9-4 .9-.4 2.9.2 1.4 1.2 1.2 2.8 2.7-1.5 3.8 7.8 1.5 4.3 1.8 9.3 6.1 8-3.5 2.7 2.9 1.6 7.1 5.1 4.6 2.4 1.8.3.3 1.4-3.4 1.1 2.1 7.3-8.6 3.8-11.2 4.1-10.6-18-10.3 6.5 9.6 15.7-1.9 1.4-8.5 3.6 5.5 5.8-.1 21.4-2-1-25.6-8.7-29.1-8.3-.2 37H105l.4 139.4.4 26.2-4.7.3-29.7-10.2-19.8-13.8L31.1 476l-13.5-21.1 4.5-1.1 3.9-2.9 5.4-3 1.3-1.8 1.2-5.2 1.1-1.2.3-3.4-1-3-.6-.1-2.1-2.8-1-3.5.2-1.7 1-1.2-.1-1.4 1-3.9v-1l-1.1-1.7.6-.8.1-2.8.8-.7-.8-.5.2-2.4-.7-.9.2-3.3-.2-.4-.6-.1-.2-1-1.6-1.6.3-2.4-2.1-1.7-.6-1.1-.6-.2-.3-1.7-.9-.6-1.4-.1-.9-1-1.2-5.6-2.3-1.5-.5-1.5-1.1-.4-2.1-2.8-.1-1-1.2-.9-.2-3.7.5-1.6-.4-.5.1-3.2 1.2-2.9-.4-.4.8-1.4 2.5-2.3.6-1.3-.7-5.9-1.5-3.5v-1.8l-1.7-2-.5-1.2-2.2.9.2-.5 1.8-.5-.6-1.3-2.8-3.3-3.7-2.4-.8-1.6.2-3.7.7-3-.2-1.7.6-1.6-.6-1.6.6-1.9-.3-2.4-2-6.1.2-.5-.6-.2.3-1.9-.8-3.1 1-2.3v-.4l-.6-.2.1-1.5-.6-.8 1.1-5.9-1-1.3.3-.8-.7-3.6.2-2.6-.5-1.4.6-1.2-.4-2.8.2-3.2 1.4-2 .3-3.1-1-5.9.2-2.4-.6-.5.3-2.2-.2-3.2-.4-.3-1 .4-.3-.4.9-1.2.1-2.4-.5-.5.4-.8-1-6.7 1-.8.4-1.1-1.3-1.8-1.7-.5 1.8-3.8-1.3-2-1.2.4-.2-.9v-1.1l1.7-3.1-.4-2.4 1-2.3 1-4 .1-3 2.1-5.4-.4-.7.2-1.7-.7-1.5-1.2-.9-1.2 1.3-.4-1.4 1.1-.8 1-1.7 3.3-1.5.4-.8 1.4-.4.9-1.1 1.2-.3.9-1-.8-.4.3-1 2.7.4 1.8 3.3 1.1.7.5 3.1.8 1.1-.3.7.3 1.4 2.1.8.6 2.8-.8 1.2.4.7.6 4.5 2.9 1.5.4-.4 1.1.2 2.5-1.5.2-.9-.6-.6.4-.9-1-.5-.5.2-.2-1.2-1.4-1.1-.5.1-.2-1.1-.8-.8.6-.3-.2-.4 1 .3.6-.4.6.3.5-.3-.1-.6-1.5-1.8.2-.3-1.7-1.5 1.2-1.1v-.6l-1.4-1.9-.9-.4-.6-1.8-1.9.2-.3-.4.3-1.8 1.2-2.4-.2-1.1 1.9-.7 1.5-2.8v-1l-1-1.1.2-.6 1.1-.8-.2-2.3-.4-.4.2-.7-2.5-5.3.6-.4-.2-1.2-1.1-.7-2.2.1-2.9 2.3-1.2-.5-.9.1-.6-.5v-1l-.8-.2-.3-.5 1.8-3.2-.2-.4.6-1.5.8-.2.6.4.8-.7 1.4.1.6-.5-.1-1 .5-.3.9.2v.4l-.6.4.2.6.8-.4.6-1.6 1.4.4 2-.4.5 1.1 1.5 1.7.3-.1-1.8-1.9-.3-1.2 2-.1 1.3.5-.1-.4-1.6-.6-.1-.7.5.1-.5-.9-1.3-.5 1.7-.4.2-.8.5-.2-.7-1v-.6l.7-.4-.7-1.4.2-.9.7-.5.7.2-.4.4-.1 1.2.8 2.5 2 .3.4-.4 1.4-.1.7.4.6 1.3-.2.6.8.2.3.6h.5l.2-.7.4-.1 1.8.7-.2 1.9-.3.2.3 1.4-.5 1.3-1.1 1.2.2 1.1-.8 1.8.1.9-1.1 2.4-1.1.5-1.4 2.1.4.7-.2 2.3 1.4.9 1.4-.3-.1 1.2.7 1.7-1.2 6 .7.7.6-.5 1.9-.3.3.9-.6-.1-.1.5.6 1 1.1-.4.2.4 1.7.1.1 1.4 1.4.6 1 1.2-.6 2.5 3.2 2.2.2-.5.7.1.1-.8-1.8-1.8.2-.6 1.8-1.2.6-1.9-.7-1.2-.9-.4-.3-1.1 1.2-1.1-.2-1.8.6-1.1v-2.4l1.9-1.9-1.4-2.1.4-1.1-.7-1.1 1.2-.4-1-.6h1.3l1.8-2-1-.2.3-.9-1.1-.9 1.3-1.4-.1-.4 1.4.3 1.3-1.5-.3-1.1-1-.5.6-.4.5.3.8-.4.2 1.7 1.4.4.3-.9-.2-.6-.5-.1.1-.7.2-.2.3.6.5-.4-.2 1.8 1.2 1.1.6 1.8.9.1.6 1.1 3.5-.3 1.4-1.3-.5-3.1-1-.6.4-1.1 1.3-.7.9-1.8 1.1-.5.3-.9-.6-.7.2-.9-.8.3.2.6-.5 1-2.5 1.2-1.2-.2.1.5-2.8-.4-1.6-1.3-2.4 1.8-1.4-.4-.9.3-1.1-2-1.8-.4-.2-.5-1.7-1.1-1.1-2-.6.3.1-1.1-1.4-1.6-.1-.7.2-1.1h.7l-1.1-2.2.2-.8-.6-2.9.3-1.9.7-.9-1-1.6-.6-2.2.3-.7-.3-.4.6-.6-.9-1.3-1.3-.4.8-.9-.6-.3v-1.5l.5-1.2.7-.4.1-.9 1.5-.9-.2-2.4 2.6-1 .3-.7 1.3-.7-.1-1.1.6-.3-.6-.2v-.6l.6-.4-1.5-.2.4-.9-.3-.4h-.7l-.1-1.1-.6-.4-.5-1.3-.3-1.5.3-.6-.4-.3.7-1.8-.3-1.7.6-.4-.5-.6.5-.6.7-.3.4.3.3-.7 1.9-.9.6-.8-.2-.5.8-.2 1.4-4.4 1.4-.1zm153.3 175.6l3.8 5.8 1.2-1.3-3.3-5.5-1.7 1z" opacity=".24" transform="translate(69)"/>
            <path d="M148.5 187.9L163.6 196.9 191 195.3 191 195.3 189.5 212.2 189.8 232.3 190.7 236.7 200.8 258.9 200.8 258.9 201.2 260.7 201.2 260.7 198.5 262.2 197.3 259.4 195.9 258.2 193 258 192.1 258.4 193 262.4 187 262.3 187 255 175.9 251.2 167.8 250.3 148.4 249.8zM142.1 486l-.2 1.8-.6-.1-.6-1.2 1.4-.5zm102.6-185.7l.1 1.7.7.9.2 1.2.8.7v.6h.9l1.8 1.8 1 .3.2 1.1 1.4.4-.2.7-.8-.4-.7.4-.2 2.3.5 2.4-1 1.6.3 1-.6.6v.7l.5.4-1.9.9.7.8-.6.5v.7l1.7 1.1.2.9-1.5-1.5-.7.2-.6.8.3 1 1.6 1.1 1.8 3-.2 1.7-1.1 2.5 1.1 3.4-.2 3.7-.6 2.1 1 3.7-.5.4-.2 2.2-.5 1.6-.9 1.1-.3 1.7-.4.1-.2 1.1-.8-.2-.4.4 1.6 3.1 1.1 6.4.7 1.4 2.7 2.9-.6 2.4-.6.4-.4 3.6-1.3 1.6-1.8.5-1.9 3.3-1.1-.4-.7 1-.9-.1-3.2 3-.8 1.5-.2 1.3 2.1.5.8-.7 1 1-.9 2.6-2.5 3.1-.3 1.5-1.3 1.7-1.8 3.7.8 1-.5.1-.8-.8-.5 1 1 1-1.1-.6-1.8 3.1.6.8-.2.4-.5.1-.2-.6-1-.3-.3.6.3 1-.9 1h-.7l-3.4 4.8h-.4l-1.4 2.8-1.3 1.3-.8.2-3.3 2.4-1.4 2-1.9 5.7-3.3 5.9-.6 6.2-2.4 4.4.1 6.3-.4 1.6-.7 2-1.8 2.4-.9 1.9-2.8 3.5-2.5 5.1-.5 3.1-2.1 5.8-.2 2.7-1.8 5.7-1.1 1-.7.2v-.8l-1 .3-1.8 3.7-1.9.5-1.8-.1-1.8 1-1.7.2.2-1.3-.5-1.3-.1.6-.4.1.4 1.8h-1l-.2-.5-1 .6v1.9l-2.1 5.7.2 2.7-.4.4.6 2.3-.4.1h-.9l.2 2-.4.2.1 1.4-1.2.7h-1.6l-.5.4-.6 1.1-.8.1-1.5 1.2-.6 1.3-2.9 3-1 .3h-1l-.1-.3 1.1-.6.6-4.6-.8-1.6-1.4-.8-.2-3.8-1-.6-.4-1.3.5-1.3-.1-2.2 1-.7 1.6.5-.3.6.2 1.1 1.5.5.2 1 1 .3-.6-4.3 1.6-.6-.3 1.9-.7.5.2 1.1.5-.4.4-1.7 1.7-1.5.6-1.2-.4-1 .3-.7-.3-1.2.7-3.1-.7-.8-.7.7.2 1.7-.6-.3.2 2.8h-.5l-.6-.9.2 1.3.6.9-.3 1-2.1 1.1v-2.4l.8-2 .3-4-.6-.4.4-.7-.5-.3-.1-1 1-.5.1-1.5-.8-.1-.3 1.2-.6-.1-1.7 4.5-.6-.2.6.8.7-.1.3 1 .8.4v.3l-1.1-.3.8 1.2-1.1-.3-.2.5-.6-.1-.4-1.5-1.8-2.4.4-.6h-.5l-.2-.4-1 .5.3 1.3-.9.2-1.1-2 .2 1.7-1-.9.1-.7-.7-.5-.4 1-.6-.4.3 1.5-.7.2-1.6-2 .2-1.3-1-.3-.2-.4-1 .7-.6 1.2.3.1-.3 2-1.3 1.2.2 1.5-.5.3-.2-1-.6-.1.1-1.5.8-1 .6.5.6-2.5 1-1.6-.1-1.3.5-1-.6-.8-.1-2.7-.5-.9-1.2.7 1 1.8.1 1-.3.4-.5-1-.7-.3-.1-.4-.4.1.3 2 .2.3-.4.1-.3 3.1-2 1.7h-.3l.3-.7-.2-1.7-1-1.6h-1l-2.4 1.1-.4.8.2 1.2-2.1-1.4-2.5.3-.9.5-.6 1.5-.6.1-1 1-1.4-.6v-1.2l-.2-.7-.6 1.3-.7-.2-.2.4.5.8.6-.2.1.4-1.8.8-.1.9-.6.1-.2.7v.3h1.6l.1.6-.8.8v.8l.3.1v.9l.8.6 1.8 1 .9-.3 1.3 1 1.3.1 2.5-.3 1.6.3 3.1-1.3 1.1.5.7 1.2.8.1 1.9-1.4.3.5-.4.6v1.9l2.9 1 1.6 3.6 2-.8.4-1.9.5-.2 1 .9.4 1.4-.3 1-1.9 1.7-.4 1.9-1.2 2.3.6 6.1-.3 4 .3 3-2 2.9.6 3.3 1 1.1-52.5 12.3-.4-26.2-.4-139.4h28.3l.2-37 29.1 8.3L188 356l2 1 .1-21.4-5.5-5.8 8.5-3.6 1.9-1.4 11.2-4.6 11.2-4.1 8.6-3.8-2.1-7.3 3.4-1.1 7.9-2.5 9.5-1.1z" opacity=".24" transform="translate(69)"/>
            <path d="M229.5 176.2L229.6 177.7 229 179.1 228.2 178.7 226.6 180.1 225.6 179.7 223.6 180.8 221.1 180.6 219.8 182.3 220.4 183.5 217.6 183.2 216.6 183.4 216.4 183.9 215.5 183.9 214.9 185 213.8 185.4 213.6 186.8 212.8 187.6 212.7 188.7 213.3 189 213.1 189.6 213.4 190 212.9 190.2 212.4 191.6 212.7 192.1 211.9 192.6 212.3 193.9 213 194.3 212.6 195.4 213 195.9 214.3 195.4 215.6 195.7 214.8 196.8 214.6 199.4 213.6 199.4 213.1 200.5 212.9 202.8 211.6 207.3 211 208.4 210 208.7 208.8 211 208.7 213.1 209.2 215.4 210.9 216.6 211.7 216.7 212.2 217.9 213.2 218.4 213.4 221.5 214.3 223.7 216.3 224.2 216.7 224.8 217.7 225.1 221.1 223.3 222.7 222.9 226.3 223.9 225.4 224.2 223.3 223.2 221.8 223.4 218.1 225.4 219.1 226.5 219.1 226.5 208.6 226.5 212.4 244.6 214.4 250.1 200.8 259 200.8 259 190.7 236.8 189.8 232.4 189.5 212.3 191 195.4 191 195.4 187.5 177.3 189.2 177.4 191.2 176.8 197.5 170.5 199.8 169.9 203.6 167.6 213.7 172.6 222.7 173.1 229.5 175.6 229.5 175.6z" opacity=".24" transform="translate(69)"/>
        </g>
        <g>
            <g>
                <path fill="#FFF" fill-rule="nonzero" stroke="#0D143A" stroke-linecap="round" stroke-linejoin="round" d="M37.7 118.1c-9.1-37.5-12-66.7-9-92.1.7-6.9 1.4-12.9 2-16.9.7-4.1.5-6.6-.6-7.9-.5-.6-1.3-.9-2.2-.8-3 .3-7.3 5.2-10.1 11.3-2.6 5.6-3.4 9.6-2.9 14.3 3 25.4.1 54.7-9 92.1 0 .2 0 .4.1.6.1.2.3.3.5.3h30.4c.2 0 .4-.1.5-.3.3-.2.4-.4.3-.6z" transform="translate(38 43) translate(187 129)"/>
                <g fill="#008099" fill-rule="nonzero">
                    <path d="M.6 8.4C3.4 5.8 6.9 4 10.5 2.7 14.1 1.4 18 .8 21.9.7h1.5c.5 0 1 .1 1.5.1 1 .1 1.9.1 2.9.3 1.9.4 3.8.7 5.6 1.5l1.4.5.7.2.6.3c.9.4 1.7.9 2.5 1.3s1.6 1 2.4 1.6c.8.6 1.5 1.1 2.2 1.7-.9-.2-1.8-.5-2.7-.7-.9-.2-1.7-.6-2.7-.8-.9-.2-1.8-.4-2.6-.6-.9-.3-1.8-.3-2.6-.5l-1.3-.2c-.4-.1-.9-.2-1.3-.2-.9-.1-1.8-.2-2.6-.3-.9-.1-1.8-.1-2.6-.1-.4 0-.9-.1-1.3-.1h-1.3c-3.5 0-7.1.3-10.6 1-3.9.7-7.4 1.6-11 2.7z" transform="translate(38 43) translate(187 129) translate(0 75)"/>
                    <path d="M.6 15.4c2.8-2.6 6.3-4.4 9.9-5.7 3.6-1.3 7.5-1.9 11.4-2h1.5c.5 0 1 .1 1.5.1 1 .1 1.9.1 2.9.3 1.9.4 3.8.7 5.6 1.5l1.4.5.7.2.6.3c.9.4 1.7.9 2.5 1.3s1.6 1 2.4 1.6c.8.6 1.5 1.1 2.2 1.7-.9-.2-1.8-.5-2.7-.7-.9-.2-1.7-.6-2.7-.8-.9-.2-1.8-.4-2.6-.6-.9-.3-1.8-.3-2.6-.5l-1.3-.2c-.4-.1-.9-.2-1.3-.2-.9-.1-1.8-.2-2.6-.3-.9-.1-1.8-.1-2.6-.1-.4 0-.9-.1-1.3-.1h-1.3c-3.5 0-7.1.3-10.6 1-3.9.7-7.4 1.6-11 2.7z" transform="translate(38 43) translate(187 129) translate(0 75)"/>
                    <path d="M.6 22.4c2.8-2.6 6.3-4.4 9.9-5.7 3.6-1.3 7.5-1.9 11.4-2h1.5c.5 0 1 .1 1.5.1 1 .1 1.9.1 2.9.3 1.9.4 3.8.7 5.6 1.5l1.4.5.7.2.6.3c.9.4 1.7.9 2.5 1.3s1.6 1 2.4 1.6c.8.6 1.5 1.1 2.2 1.7-.9-.2-1.8-.5-2.7-.7-.9-.2-1.7-.6-2.7-.8-.9-.2-1.8-.4-2.6-.6-.9-.3-1.8-.3-2.6-.5l-1.3-.2c-.4-.1-.9-.2-1.3-.2-.9-.1-1.8-.2-2.6-.3-.9-.1-1.8-.1-2.6-.1-.4 0-.9-.1-1.3-.1h-1.3c-3.5 0-7.1.3-10.6 1-3.9.7-7.4 1.6-11 2.7z" transform="translate(38 43) translate(187 129) translate(0 75)"/>
                    <path d="M.6 29.4c2.8-2.6 6.3-4.4 9.9-5.7 3.6-1.3 7.5-1.9 11.4-2h1.5c.5 0 1 .1 1.5.1 1 .1 1.9.1 2.9.3 1.9.4 3.8.7 5.6 1.5l1.4.5.7.2.6.3c.9.4 1.7.9 2.5 1.3s1.6 1 2.4 1.6c.8.6 1.5 1.1 2.2 1.7-.9-.2-1.8-.5-2.7-.7-.9-.2-1.7-.6-2.7-.8-.9-.2-1.8-.4-2.6-.6-.9-.3-1.8-.3-2.6-.5l-1.3-.2c-.4-.1-.9-.2-1.3-.2-.9-.1-1.8-.2-2.6-.3-.9-.1-1.8-.1-2.6-.1-.4 0-.9-.1-1.3-.1h-1.3c-3.5 0-7.1.3-10.6 1-3.9.7-7.4 1.6-11 2.7z" transform="translate(38 43) translate(187 129) translate(0 75)"/>
                    <path d="M.6 36.4c2.8-2.6 6.3-4.4 9.9-5.7 3.6-1.3 7.5-1.9 11.4-2h1.5c.5 0 1 .1 1.5.1 1 .1 1.9.1 2.9.3 1.9.4 3.8.7 5.6 1.5l1.4.5.7.2.6.3c.9.4 1.7.9 2.5 1.3s1.6 1 2.4 1.6c.8.6 1.5 1.1 2.2 1.7-.9-.2-1.8-.5-2.7-.7-.9-.2-1.7-.6-2.7-.8-.9-.2-1.8-.4-2.6-.6-.9-.3-1.8-.3-2.6-.5l-1.3-.2c-.4-.1-.9-.2-1.3-.2-.9-.1-1.8-.2-2.6-.3-.9-.1-1.8-.1-2.6-.1-.4 0-.9-.1-1.3-.1h-1.3c-3.5 0-7.1.3-10.6 1-3.9.7-7.4 1.6-11 2.7z" transform="translate(38 43) translate(187 129) translate(0 75)"/>
                    <path d="M.6 43.4c2.8-2.6 6.3-4.4 9.9-5.7 3.6-1.3 7.5-1.9 11.4-2h1.5c.5 0 1 .1 1.5.1 1 .1 1.9.1 2.9.3 1.9.4 3.8.7 5.6 1.5l1.4.5.7.2.6.3c.9.4 1.7.9 2.5 1.3s1.6 1 2.4 1.6c.8.6 1.5 1.1 2.2 1.7-.9-.2-1.8-.5-2.7-.7-.9-.2-1.7-.6-2.7-.8-.9-.2-1.8-.4-2.6-.6-.9-.3-1.8-.3-2.6-.5l-1.3-.2c-.4-.1-.9-.2-1.3-.2-.9-.1-1.8-.2-2.6-.3-.9-.1-1.8-.1-2.6-.1-.4 0-.9-.1-1.3-.1h-1.3c-3.5 0-7.1.3-10.6 1-3.9.7-7.4 1.6-11 2.7z" transform="translate(38 43) translate(187 129) translate(0 75)"/>
                </g>
                <g stroke="#0D143A" stroke-linecap="round" stroke-linejoin="round">
                    <path d="M.6 6.5S10.7.1 24.6.9M.6 13.5s8.1-5.1 19.6-5.6M.6 20.5s10.2-6.5 24.2-5.6M.6 27.5s6.1-3.8 15.2-5.2M.6 34.5s8.4-5.3 20.3-5.6M.6 41.5s11.9-7.6 27.6-5.2" transform="translate(38 43) translate(187 129) translate(0 75)"/>
                </g>
                <g stroke="#0D143A">
                    <path d="M.1 22.9s9.2-5.8 19.4 0M.1 18.9s9.2-5.8 19.4 0M.1 14.9s9.2-5.8 19.4 0M.1 10.8s9.2-5.8 19.4 0M.1 6.8s9.2-5.8 19.4 0M.1 2.8s9.2-5.8 19.4 0" transform="translate(38 43) translate(187 129) translate(12 3)"/>
                </g>
            </g>
            <g>
                <g fill="#BA0C2F" fill-rule="nonzero">
                    <path d="M4.2 24.5c-.4 0-.9-.1-1.2-.4-.8-.7-.9-1.9-.2-2.7l16.9-20c.7-.8 1.9-.9 2.7-.2.8.7.9 1.9.2 2.7l-16.9 20c-.4.3-1 .6-1.5.6zM4.2 41.3c-.4 0-.9-.1-1.2-.4-.8-.7-.9-1.9-.2-2.7L22 15.6c.7-.8 1.9-.9 2.7-.2.8.7.9 1.9.2 2.7L5.7 40.7c-.4.4-1 .6-1.5.6zM2.8 63c-.5 0-1-.2-1.3-.5-.9-.7-1-2-.2-2.9l22.1-25.5c.7-.9 2-1 2.9-.2.9.7 1 2 .2 2.9L4.4 62.3c-.5.4-1.1.7-1.6.7zM4.2 82.6c-.4 0-.9-.2-1.2-.5-.8-.7-.9-1.9-.2-2.7l20.3-23.6c.7-.8 1.9-.9 2.7-.2.8.7.9 1.9.2 2.7L5.6 82c-.3.4-.9.6-1.4.6z" transform="translate(38 43) translate(265 150) translate(0 14)"/>
                </g>
                <path stroke="#0D143A" stroke-linecap="round" stroke-linejoin="round" d="M22.7 20.5c-.5-4.1-3.9-7.4-8-7.9L14.5 1c0-.1-.1-.2-.2-.2s-.2.1-.2.2l-.2 11.6c-4.1.5-7.4 3.8-8 7.9C4.6 29.9 4 39.6 4 49.1v48.2c0 .4.3.7.7.7h19.4c.4 0 .7-.3.7-.7V49.1c-.3-9.6-.9-19.2-2.1-28.6z" transform="translate(38 43) translate(265 150)"/>
            </g>
            <path stroke="#0D143A" stroke-linecap="round" stroke-linejoin="round" d="M224.7 247.1c-9.1-37.5-12-66.7-9-92.1.7-6.9 1.4-12.9 2-16.9.7-4.1.5-6.6-.6-7.9-.5-.6-1.3-.9-2.2-.8-3 .3-7.3 5.2-10.1 11.3-2.6 5.6-3.4 9.6-2.9 14.3 3 25.4.1 54.7-9 92.1 0 .2 0 .4.1.6.1.2.3.3.5.3h30.4c.2 0 .4-.1.5-.3.3-.2.4-.4.3-.6z" transform="translate(38 43)"/>
            <g>
                <path fill="#FFF" fill-rule="nonzero" stroke="#0D143A" stroke-linecap="round" stroke-linejoin="round" d="M35.3 104c-.2-1.2-.4-2.5-.6-4h0C29 62.8 27.9 32.2 31.3 6.6v-.4c0-.1-.6-1.6-2.6-3C26.1 1.3 22.6.4 18.1.4S10 1.4 7.5 3.2c-2 1.4-2.6 2.9-2.6 3 0 .1-.1.2 0 .4C8.4 32.2 7.3 62.7 1.5 100c-.2 1.5-.4 2.8-.6 4.1 0 .2 0 .4.2.6.1.2.3.2.5.2h33.2s0 0 0 0c.4 0 .7-.3.7-.7-.2 0-.2-.1-.2-.2z" transform="translate(38 43) translate(229 143)"/>
                <g fill="#B51647" fill-rule="nonzero">
                    <path d="M5.3 11.2c4-2.1 8.5-3.3 13-3.3 4.6 0 8.8 1.1 12.5 3 .2-1.4.3-2.8.5-4.2v-.4c0-.1-.6-1.6-2.6-3C26.1 1.4 22.6.5 18.1.5S10 1.5 7.5 3.3c-2 1.4-2.6 2.9-2.6 3 0 .1-.1.2 0 .4 0 1.5.2 3 .4 4.5zM34.7 100l-.6-4.2H2l-.6 4.2c-.2 1.5-.4 2.8-.6 4.1 0 .2 0 .4.2.6.1.2.3.2.5.2h33.2c.4 0 .7-.3.7-.7v-.2c-.3-1.2-.5-2.5-.7-4z" transform="translate(38 43) translate(229 143)"/>
                </g>
                <path stroke="#FFF" stroke-linecap="round" stroke-linejoin="round" d="M6.9 6.9c3.8-2.3 12.5-6.2 22.5-.2" transform="translate(38 43) translate(229 143)"/>
            </g>
            <path stroke="#FFF" stroke-linecap="round" stroke-linejoin="round" d="M231.8 242.7L239.6 242.7" transform="translate(38 43)"/>
            <g stroke="#FFF" stroke-linecap="round" stroke-linejoin="round">
                <path d="M.8 5.1L5.8 0M3.6 5.6L5.8 3.7" transform="translate(38 43) translate(280 238)"/>
            </g>
            <path fill="#FFF" fill-rule="nonzero" stroke="#0D143A" stroke-linecap="round" stroke-linejoin="round" d="M296 247.9L298.5 247.9M187.9 247.9L292.9 247.9M256.2 223.4L250.3 235.1M257.6 229.5L254.8 235.1M211.7 157.4L208.8 165.1M212.8 161.2L211.7 165.1M285.5 237.1L281.7 243.6M286.8 240.3L285.1 243.6" transform="translate(38 43)"/>
            <g>
                <path fill="#CD4A04" fill-rule="nonzero" d="M20.7 32.7c1.2.8 2.6 1.2 4 .8 1.1-.3 2.1-.9 2.9-1.8.6-.6 1.1-1.4 1.8-1.9 1.3-1.1 3.1-1.5 4.8-1.1 1.5.3 2.9 1.3 4.4 1.4 2.1.2 3.5-1.7 5-2.9 3.2-2.6 7.6-1.4 11 .3 3 1.5 6 3.6 9.2 3.7-.1-.4-.2-.7-.4-1.1-1.9-5.5-9.7-7.5-9.7-7.5-2.1-2.9-5.8-7.3-12-7.9-6-.6-12 1.9-13.7 8.6-.4 1.8-1.6 3.4-3.3 4.1-3.8 1.6-7.5-1.1-7.5-4.7v-.6c0-1.6.2-3.2.5-4.7.3-1.4.4-2.9.5-4.2-1.2 2.4-3.7 8-3 11.8.8 3.9 2.6 5.8 5.5 7.7zM2.4 2.3h11.9s1-1.4 2.5-1.9c0 0 .4.7.3 1.3v.1c-.8.7-.9 1.8-2.4 2-1.5.2-3.3 2.3-6.1 1.6-2.8-.7-2.9-2.1-2.9-2.1s-2.5.9-3.3-1z" transform="translate(38 43) translate(128 408)"/>
                <path stroke="#0D143A" stroke-linecap="round" stroke-linejoin="round" d="M64.5 86H58s-.3-1.8 2.7-2.6c0 0 .7-1.3 1.1-5.9.4-4.6.7-14.2.7-14.2s-1.4-1.5-2.3-2.7c0 0-2.7 11.5-4 14.3-1.2 2.8-.1 4.8-.5 5.6-.3.8-1.4 2-1.7 2.8-.3.8-.2 2.7-.2 2.7h-5.6s1.2-3 2.5-4.4c1.3-1.3 2.2-2.4 2.2-2.4s.3-7.8.6-9.9c.2-2.1.4-5.3.4-5.3s-1.8-3.1-4.4-5.2c-2.5-2.1-4.9-6.8-5.3-9 0 0-7.2.2-8.4.1 0 0-1 17-.3 27.9 0 0 2.3 3.6 2.2 4.4-.1.8-1.2 2.2-1.2 2.2l.4 1.6h-5.6s1.5-2.2 1.8-4.5c.3-2.2-.1-9.3-.1-9.3s-1.5-3.1-1.5-5v-5.8s-1-5-3.2-7.7v20.8s1 4.1 1.5 5.1c.4.9-.4 2.3-.4 2.4 0 .1.9 4.1.9 4.1h-6.8l2.2-4V71.8s-1.4-2.9-1.4-4.6V61s-1.6-8.9-5.7-17.8c0 0-5.9-1.6-9-6.6-3.2-5 .4-15.3 0-20.7-.4-5.3-3.9-8.4-4.9-8.8 0 0-2.1.3-3.1-.9C1 5.6.9 4.4.9 3.6c0-.7.5-1.2 1.2-1.2h12.2s1-1.4 2.5-1.9c0 0 .4.7.3 1.3v.1l3-.1s.2 2.2-1.9 3.7c0 0 .8 6.3-.3 12-.3 1.6-.5 3.2-.5 4.7v.5c0 2.9 2.3 5.2 5.2 5.2h0c2.6 0 4.9-1.8 5.5-4.4 1.6-6.8 7.7-9.3 13.7-8.8 6.2.6 9.9 5 12 7.9 0 0 7.7 1.9 9.7 7.5 2.4 6.8 2 10.6 1.5 14.3-.5 3.7-.3 8-.3 8s2.1 4.1 2.3 6c.2 1.9-2.6 19.3-2.6 19.3s.8 2.7.8 3.5c0 .8-.7 1.5-.8 2.4-.1 1 .1 2.4.1 2.4zM24.5 81.9L27.7 81.9M33.4 81.9L36.5 81.9M48.9 82.3L52.9 82.3M60.8 83.1L62.7 83.1M11.7 4.7s1-1 2.2 0M60.4 35.4s2 6.6 0 11.2M58.9 41s.3 2.5-.6 3.9" transform="translate(38 43) translate(128 408)"/>
            </g>
            <g>
                <path fill="#008099" fill-rule="nonzero" d="M41.1 11.5c.1 1.2.2 2.4.4 3.5.2 1.3.4 2.6.4 3.9v.4c0 2.4-1.9 4.3-4.3 4.3-2.2 0-4-1.5-4.6-3.6-1.3-5.6-6.4-7.7-11.4-7.3-5.1.5-8.2 4.2-9.9 6.5 0 0-6.4 1.6-8 6.2-.2.5-.3.9-.4 1.3h.2c1.8.4 3.5.3 5.2-.5 1.5-.7 2.9-1.7 4.5-2.3 1.6-.6 3-.2 4.3.8 1.5 1.1 3 1.9 5 2.1 1.8.2 3.4-.5 5.1-.5 1.6 0 2.8 1 4.1 1.9 1.5 1 3.4 1.3 5.1.5.8-.4 1.5-.8 2.2-1.1 2.4-1.7 4-3.2 4.5-6.4.6-3.1-1.4-7.7-2.4-9.7zM54.3 2.4h-9.9s-.9-1.2-2.1-1.5c0 0-.3.6-.2 1.1v.1c.6.6.8 1.5 2 1.7 1.2.2 2.7 1.9 5.1 1.3 2.3-.6 2.4-1.7 2.4-1.7s2.1.6 2.7-1z" transform="translate(38 43) translate(117)"/>
                <path stroke="#0D143A" stroke-linecap="round" stroke-linejoin="round" d="M2.9 71.7h5.4s.3-1.5-2.3-2.1c0 0-.6-1.1-.9-4.9-.3-3.8-.6-11.8-.6-11.8s1.2-1.2 1.9-2.2c0 0 2.3 9.5 3.3 11.9 1 2.3.1 4 .4 4.6.3.6 1.2 1.6 1.4 2.3.2.7.2 2.2.2 2.2h4.6s-1-2.5-2.1-3.6-1.8-2-1.8-2-.3-6.5-.5-8.2c-.2-1.7-.4-4.4-.4-4.4s1.5-2.5 3.6-4.3c2.1-1.8 4-5.6 4.4-7.5 0 0 6 .2 7 .1 0 0 .8 14.1.3 23.1 0 0-1.9 3-1.8 3.7.1.7 1 1.8 1 1.8l-.3 1.3h4.6S29 69.8 28.8 68c-.2-1.8.1-7.7.1-7.7s1.2-2.6 1.2-4.2v-4.8s.9-4.1 2.6-6.4v17.2s-.8 3.4-1.2 4.2c-.4.8.4 1.9.4 2 0 .1-.8 3.4-.8 3.4h5.7l-1.9-3.3v-8.5s1.2-2.4 1.2-3.8V51s1.3-7.4 4.7-14.8c0 0 4.8-1.3 7.5-5.5 2.6-4.2-.3-12.7 0-17.1.3-4.4 3.2-7 4-7.3 0 0 1.7.2 2.5-.7.5-.5.6-1.5.6-2.2 0-.5-.4-1-1-1H44.3s-.9-1.2-2.1-1.5c0 0-.3.6-.2 1.1v.1L39.5 2s-.1 1.8 1.6 3.1c0 0-.7 5.2.2 9.9.2 1.3.4 2.6.4 3.9v.4c0 2.4-1.9 4.3-4.3 4.3h0c-2.2 0-4-1.5-4.6-3.6-1.3-5.6-6.4-7.7-11.4-7.3-5.1.5-8.2 4.2-9.9 6.5 0 0-6.4 1.6-8 6.2-2 5.6-1.7 8.8-1.3 11.9.4 3.1.3 6.6.3 6.6s-1.7 3.4-1.9 5c-.2 1.6 2.2 16 2.2 16s-.7 2.2-.7 2.9c0 .7.6 1.3.7 2 .2.7.1 1.9.1 1.9zM36 68.3L33.3 68.3M28.6 68.3L26.1 68.3M15.8 68.6L12.5 68.6M5.9 69.3L4.4 69.3M46.6 4.3s-.9-.9-1.9 0M6.3 29.8s-1.6 5.5 0 9.3M7.5 34.4s-.2 2.1.5 3.2" transform="translate(38 43) translate(117)"/>
            </g>
            <g>
                <path fill="#BA0C2F" fill-rule="nonzero" d="M23.2 25.5c0 1.8.1 3.5.7 5.2.5 1.4 1.2 2.7 1.3 4.2.1 1.4-.2 2.8-.5 4.2-.4 1.4-.7 2.9-.4 4.4.3 1.3 1.1 2.6 1.1 4s-.8 2.5-1.7 3.5c-.7.8-1.2 1.6-1.5 2.6-.4 1.1-.7 2.6-.6 3.9h5.3s-.3-27.3-2.8-36.2l-.7-.2c-.2 1.4-.3 2.9-.2 4.4z" transform="translate(38 43) translate(51 355)"/>
                <path stroke="#0D143A" stroke-linecap="round" stroke-linejoin="round" d="M20.6 18.9C19.1 20.5 9 30.5 9 30.5c-2.2-14.7 9.6-16.8 9.6-16.8M24.6 13.2s9.5 3.1 10.2 14.1l-12.6-7.1" transform="translate(38 43) translate(51 355)"/>
                <path stroke="#0D143A" stroke-linecap="round" stroke-linejoin="round" d="M21.3 14.3s8.9-4.3 17.6-.6c0 0-1.7-13-15.8-4.9" transform="translate(38 43) translate(51 355)"/>
                <path stroke="#0D143A" stroke-linecap="round" stroke-linejoin="round" d="M22.2 10.8s1.2-5.3 7.9-8.8c0 0-7.8-5.8-11.7 5.4M16.6 14.4S7.7 12.5 1 17.8C1 17.8-.3 7 14.7 8.7" transform="translate(38 43) translate(51 355)"/>
                <path stroke="#0D143A" stroke-linecap="round" stroke-linejoin="round" d="M16.1 10.3C14.4 7.8 7.6 4 7.6 4s7.2-5 11.1 4.6M19.4 20.1s3.9 22.7.6 37.3h6.9s-.3-27.3-2.8-36.2" transform="translate(38 43) translate(51 355)"/>
                <g>
                    <path stroke="#0D143A" stroke-linecap="round" stroke-linejoin="round" d="M18.1 25.2s4.8.5 6.8 0M19.4 31s4.8.5 6.8 0M19.4 36s4.8.5 6.8 0M19.4 40.9s4.8.5 6.8 0M19.4 45.8s4.8.5 6.8 0M19.4 50.7s4.8.5 6.8 0" transform="translate(38 43) translate(51 355) translate(1 1)"/>
                    <path fill="#BA0C2F" fill-rule="nonzero" d="M19.6 17.3S10.1 20.6 8 29l11.6-11.1M21.2 19.1s3.5-5.5 12.3 6.5l-12.3-6.5zM17.4 12.5S8 5.7 0 16.4c0 0 6.3-4.5 15.8-3.1l1.6-.8zM20.3 13.1c-.3.1 8-9.1 17.5-.8 0 .1-7.2-3.4-17.5.8zM28.7.8s-1.4 0-3 .4c-3.8 1-6 5.1-4.9 8.9 0 0 3-6.6 7.9-9.3zM6.8 2.8s7.5-.4 8.4 6.4L6.8 2.8z" transform="translate(38 43) translate(51 355) translate(1 1)"/>
                </g>
                <path stroke="#0D143A" stroke-linecap="round" d="M12.6 57.7L34.2 57.7M6.6 57.7L10.1 57.7" transform="translate(38 43) translate(51 355)"/>
            </g>
            <g>
                <path fill="#CD4A04" fill-rule="nonzero" d="M22.9 25.5c0 1.7.1 3.5.7 5.2.5 1.4 1.2 2.7 1.3 4.2.1 1.4-.2 2.8-.5 4.1-.4 1.4-.7 2.8-.4 4.3.3 1.3 1.1 2.6 1.1 4s-.8 2.5-1.6 3.4c-.7.8-1.2 1.6-1.5 2.6-.4 1.1-.7 2.5-.6 3.9h5.3s-.3-27-2.8-35.9l-.7-.2c-.3 1.5-.4 2.9-.3 4.4z" transform="translate(38 43) translate(56 100)"/>
                <path stroke="#0D143A" stroke-linecap="round" stroke-linejoin="round" stroke-width=".75" d="M20.4 19C19 20.5 9 30.5 9 30.5 6.8 16 18.5 13.9 18.5 13.9M24.3 13.3s9.4 3.1 10.1 13.9l-12.5-7.1" transform="translate(38 43) translate(56 100)"/>
                <path stroke="#0D143A" stroke-linecap="round" stroke-linejoin="round" stroke-width=".75" d="M21 14.5s8.8-4.2 17.4-.6c0 0-1.6-12.9-15.7-4.8" transform="translate(38 43) translate(56 100)"/>
                <path stroke="#0D143A" stroke-linecap="round" stroke-linejoin="round" stroke-width=".75" d="M21.9 11s1.2-5.3 7.8-8.7c0 0-7.7-5.7-11.5 5.3M16.4 14.6S7.6 12.7 1 18C1 18-.2 7.3 14.6 9" transform="translate(38 43) translate(56 100)"/>
                <path stroke="#0D143A" stroke-linecap="round" stroke-linejoin="round" stroke-width=".75" d="M15.9 10.4c-1.6-2.5-8.5-6.3-8.5-6.3s7.1-5 11 4.5M19.2 20.2s3.9 22.4.6 37h6.8s-.3-27-2.8-35.9" transform="translate(38 43) translate(56 100)"/>
                <g>
                    <path stroke="#0D143A" stroke-linecap="round" stroke-linejoin="round" stroke-width=".75" d="M18.8 24.2s4.8.5 6.7 0M20.1 30s4.8.5 6.7 0M20.1 34.9s4.8.5 6.7 0M20.1 39.8s4.8.5 6.7 0M20.1 44.6s4.8.5 6.7 0M20.1 49.5s4.8.5 6.7 0" transform="translate(38 43) translate(56 100) translate(0 2)"/>
                    <path fill="#CD4A04" fill-rule="nonzero" d="M20.3 16.4S10.9 19.7 8.8 28l11.5-11M21.9 18.2s3.4-5.5 12.2 6.5l-12.2-6.5zM18.2 11.7S8.9 5 .9 15.5c0 0 6.2-4.4 15.7-3l1.6-.8zM21 12.3c-.3.1 7.9-9 17.3-.7.1-.1-7.1-3.5-17.3.7zM29.4 0s-1.3 0-3 .4c-3.8 1-6 5-4.8 8.8 0 0 2.9-6.4 7.8-9.2zM7.7 2.1s7.4-.4 8.3 6.4L7.7 2.1z" transform="translate(38 43) translate(56 100) translate(0 2)"/>
                    <path stroke="#0D143A" stroke-linecap="round" stroke-width=".75" d="M9.8 55.1L34.7 55.1M3 55.1L7 55.1" transform="translate(38 43) translate(56 100) translate(0 2)"/>
                </g>
            </g>
            <g>
                <path fill="#BA0C2F" fill-rule="nonzero" d="M17.3 19.9c0 1.4.1 2.8.6 4 .4 1.1.9 2.1 1 3.3.1 1.1-.1 2.2-.4 3.2-.3 1.1-.6 2.2-.3 3.4.2 1 .9 2 .9 3.1s-.6 1.9-1.3 2.7c-.6.6-.9 1.2-1.2 2-.3.9-.5 2-.5 3h4.1s-.3-21.2-2.2-28.1l-.5-.1c-.2 1.2-.2 2.4-.2 3.5z" transform="translate(38 43) translate(244 323)"/>
                <path stroke="#0D143A" stroke-linecap="round" stroke-linejoin="round" stroke-width=".75" d="M15.3 14.8c-1.1 1.2-9 9-9 9-1.7-11.4 7.5-13 7.5-13M18.4 10.4s7.4 2.4 7.9 10.9l-9.8-5.5" transform="translate(38 43) translate(244 323)"/>
                <path stroke="#0D143A" stroke-linecap="round" stroke-linejoin="round" stroke-width=".75" d="M15.8 11.3s6.9-3.3 13.6-.5c0 0-1.3-10.1-12.3-3.8" transform="translate(38 43) translate(244 323)"/>
                <path stroke="#0D143A" stroke-linecap="round" stroke-linejoin="round" stroke-width=".75" d="M16.5 8.6s.9-4.1 6.1-6.9c0 0-6-4.5-9.1 4.2M12.2 11.3S5.3 9.8.1 13.9c0 0-1-8.4 10.6-7.1" transform="translate(38 43) translate(244 323)"/>
                <path stroke="#0D143A" stroke-linecap="round" stroke-linejoin="round" stroke-width=".75" d="M11.8 8.1c-1.3-1.9-6.6-4.9-6.6-4.9s5.6-3.9 8.6 3.6M14.4 15.8s3 17.6.5 29h5.3s-.3-21.2-2.2-28.1" transform="translate(38 43) translate(244 323)"/>
                <g>
                    <path stroke="#0D143A" stroke-linecap="round" stroke-linejoin="round" stroke-width=".75" d="M14.1 19.5s3.7.4 5.3 0M15.1 24s3.7.4 5.3 0M15.1 27.8s3.7.4 5.3 0M15.1 31.7s3.7.4 5.3 0M15.1 35.5s3.7.4 5.3 0M15.1 39.3s3.7.4 5.3 0" transform="translate(38 43) translate(244 323) translate(0 1)"/>
                    <path fill="#BA0C2F" fill-rule="nonzero" d="M15.3 13.3s-7.3 2.6-9 9.1l9-8.6M16.5 14.8s2.7-4.3 9.6 5.1l-9.6-5.1zM13.6 9.7S6.3 4.4.1 12.7c0 0 4.9-3.5 12.3-2.4l1.2-.6zM15.8 10.1c-.3.1 6.2-7.1 13.6-.6 0 0-5.6-2.6-13.6.6zM22.4.5s-1.1 0-2.3.3c-3 .8-4.7 3.9-3.8 6.9 0 0 2.3-5 6.1-7.2zM5.4 2.1s5.8-.3 6.5 5l-6.5-5z" transform="translate(38 43) translate(244 323) translate(0 1)"/>
                    <path stroke="#0D143A" stroke-linecap="round" stroke-width=".75" d="M7.1 43.7L26.6 43.7M1.7 43.7L4.8 43.7" transform="translate(38 43) translate(244 323) translate(0 1)"/>
                </g>
            </g>
            <g>
                <path fill="#FFF" fill-rule="nonzero" stroke="#0D143A" stroke-linecap="round" stroke-linejoin="round" d="M25.8 26.2V5.5C25.8 3 27.9.9 30.4.9h0C32.9.9 35 3 35 5.5v17.3" transform="translate(38 43) translate(11 243)"/>
                <path fill="#FFF" fill-rule="nonzero" stroke="#0D143A" stroke-linecap="round" stroke-linejoin="round" d="M38.7 29.5L38.7 21.7 22.6 27.3 22.6 32.8" transform="translate(38 43) translate(11 243)"/>
                <path stroke="#0D143A" stroke-linecap="round" stroke-linejoin="round" d="M0.9 52.9H54V67.2H0.9z" transform="translate(38 43) translate(11 243)"/>
                <path fill="#B51647" fill-rule="nonzero" d="M51.1 56.9c-1.3 1.8-3.4 2.8-5.6 3.2-4.6 1-9.7-.4-14.1 1.6-4.1 1.9-8 4.3-12.7 4.7-5.1.4-12.1-1.9-16.8.7H54V53.2c-1.3 1-1.9 2.5-2.9 3.7z" transform="translate(38 43) translate(11 243)"/>
                <path fill="#FFF" fill-rule="nonzero" stroke="#0D143A" stroke-linecap="round" stroke-linejoin="round" d="M15.1 37.6H46.4V52.900000000000006H15.1z" transform="translate(38 43) translate(11 243)"/>
                <path stroke="#0D143A" stroke-linecap="round" stroke-linejoin="round" d="M18.7 37.6L18.7 33.6 42.6 28.7 42.6 37.6" transform="translate(38 43) translate(11 243)"/>
                <path fill="#B51647" fill-rule="nonzero" d="M18.7 37.6L18.7 33.6 42.6 28.7 42.6 37.6M35 7.9V5.5C35 3 32.9.9 30.4.9c-2.5 0-4.6 2.1-4.6 4.6v2.4H35z" transform="translate(38 43) translate(11 243)"/>
                <path stroke="#0D143A" stroke-linecap="round" stroke-linejoin="round" d="M24.1 7.9L33 7.9M23.1 54.4v-6c0-1 .4-2 1.1-2.7l.2-.2c1.6-1.6 4.1-1.5 5.6.2h0c.6.7 1 1.6 1 2.5l.1 4.8" transform="translate(38 43) translate(11 243)"/>
                <g stroke="#0D143A" stroke-linecap="round" stroke-linejoin="round">
                    <path d="M.7.7L.7 5.4M11.1.7L11.1 5.4M21.5.7L21.5 5.4M31.8.7L31.8 5.4M42.2.7L42.2 5.4" transform="translate(38 43) translate(11 243) translate(6 57)"/>
                </g>
                <path stroke="#FFF" stroke-linecap="round" d="M40.2 30.2L37.1 36.5M41.5 33.6L40.5 35.5" transform="translate(38 43) translate(11 243)"/>
            </g>
            <g>
                <path fill="#B51647" fill-rule="nonzero" d="M6.9 15.1H1.4c-.4 0-.8.4-.8.8v79.3h6.3V15.1zM18.6 15.1v80.1h5.9V15.9c0-.4-.4-.8-.8-.8h-5.1z" transform="translate(38 43) translate(67 215)"/>
                <path fill="#FFF" fill-rule="nonzero" stroke="#0D143A" stroke-linecap="round" stroke-linejoin="round" d="M18.1 15.1H7.2v-3.8c0-2.7 2.2-4.9 4.9-4.9h1.1c2.7 0 4.9 2.2 4.9 4.9v3.8z" transform="translate(38 43) translate(67 215)"/>
                <path stroke="#0D143A" stroke-linecap="round" stroke-linejoin="round" d="M12.9 0.7L12.9 6.4" transform="translate(38 43) translate(67 215)"/>
            </g>
            <path stroke="#0D143A" stroke-linecap="round" stroke-linejoin="round" d="M104.8 305.8L107.6 305.8M8.7 310.2L97.3 310.2M74.3 230.1L74.3 310.2M85.1 230.1L85.1 310.2M81.9 300.7L80 307.7M83.2 304.6L82.5 307M80 230.1L92.4 230.1" transform="translate(38 43)"/>
            <g>
                <g>
                    <g fill="#CD4A04" fill-rule="nonzero">
                        <path d="M30.8 6.9c-2 .2-4.1.2-6.1.6-1.7.3-3.2 1-4.6 2-.9.7-1.7 1.5-2.5 2.4h23.2s-2.7-5.3-6.3-9.8c-.2.8-.4 1.6-.8 2.4-.6 1.5-1.4 2.2-2.9 2.4zM15.4 6.4l-1.8-2.3c-.9-1.2-2-2.4-3-3.4-.4.1-.8.2-1.2.4-.5.2-1.1.4-1.3.9-.2.4-.1.9-.1 1.4-.1 1.3-.6 2.4-1.7 3.1-1.7 1-4.1.6-5.5 2h13.1c.3-.8.8-1.6 1.5-2.1z" transform="translate(38 43) translate(235 50) translate(4) translate(1 4)"/>
                    </g>
                    <g stroke="#0D143A">
                        <path d="M13.3 15.9S21.8-.5 27.9.2c6.1.7 13.9 15.7 13.9 15.7" transform="translate(38 43) translate(235 50) translate(4)"/>
                        <path d="M.9 12.4s4.8-9.2 7.8-9.3c1.6-.1 3.9 2.5 5.8 4.9l1.9 2.4" transform="translate(38 43) translate(235 50) translate(4)"/>
                    </g>
                </g>
                <path fill="#FFF" fill-rule="nonzero" stroke="#0D143A" stroke-linecap="round" stroke-linejoin="round" d="M49.2 15.9L51.1 15.9M22.6 15.9L47.6 15.9M1.5 12.4L.4 12.4M13.1 12.4L3.5 12.4" transform="translate(38 43) translate(235 50)"/>
            </g>
            <path stroke="#0D143A" stroke-linecap="round" stroke-linejoin="round" d="M14.6 313.8L17.7 313.8M3.7 313.8L11.9 313.8" transform="translate(38 43)"/>
            <g stroke="#0D143A" stroke-linecap="round" stroke-linejoin="round">
                <path d="M18.1 1.1L23.7 1.1M.8 1.1L15.7 1.1" transform="translate(38 43) translate(209 251)"/>
            </g>
            <g stroke="#0D143A" stroke-linecap="round" stroke-linejoin="round">
                <path d="M17.5.5L20.3.5M.2.5L15.1.5" transform="translate(38 43) translate(213 68)"/>
            </g>
            <g>
                <g>
                    <g fill-rule="nonzero">
                        <path fill="#CD4A04" d="M28.6 6.2c-1.9.2-3.9.2-5.8.6-1.6.3-3 .9-4.3 1.9-.9.7-1.6 1.5-2.3 2.3H38s-2.6-5-5.9-9.2c-.2.8-.4 1.6-.7 2.3-.6 1.3-1.3 2-2.8 2.1z" transform="translate(38 43) translate(143 317) translate(4) translate(1 4)"/>
                        <path fill="#B51647" d="M14.1 5.8l-1.7-2.1c-.9-1.1-1.9-2.3-2.8-3.2-.4.1-.8.2-1.1.3-.4.1-1 .4-1.2.9-.2.4-.1.9-.1 1.3-.1 1.2-.6 2.3-1.6 2.9-1.6 1-3.8.6-5.2 1.9h12.3c.3-.8.8-1.6 1.4-2z" transform="translate(38 43) translate(143 317) translate(4) translate(1 4)"/>
                    </g>
                    <g stroke="#0D143A">
                        <path d="M12.2 15S20.2-.4 25.9.2c5.7.6 13 14.8 13 14.8" transform="translate(38 43) translate(143 317) translate(4)"/>
                        <path d="M.6 11.7S5.1 3.1 8 3c1.5-.1 3.7 2.4 5.5 4.7l1.8 2.2" transform="translate(38 43) translate(143 317) translate(4)"/>
                    </g>
                </g>
                <path fill="#FFF" fill-rule="nonzero" stroke="#0D143A" stroke-linecap="round" stroke-linejoin="round" d="M46.3 15L48 15M21.2 15L44.8 15M1.4 11.7L.4 11.7M12.2 11.7L3.3 11.7" transform="translate(38 43) translate(143 317)"/>
                <g stroke="#0D143A" stroke-linecap="round" stroke-linejoin="round">
                    <path d="M12 1L13.8 1M.4 1L10.4 1" transform="translate(38 43) translate(143 317) translate(37 17)"/>
                </g>
            </g>
            <g stroke="#0D143A" stroke-linecap="round" stroke-linejoin="round">
                <path d="M33.7 11.6c.1-.4.1-.8.1-1.3 0-3.1-2.5-5.5-5.5-5.5-1.4 0-2.6.5-3.6 1.3C23.6 2.6 20.3 0 16.3 0c-4.5 0-8.2 3.4-8.7 7.7-.8-.6-1.8-1-2.9-1C2.2 6.7.1 8.8.1 11.3v.3M25.6 11.6L38 11.6M20.7 11.6L23.2 11.6" transform="translate(38 43) translate(268 119)"/>
            </g>
            <g stroke="#0D143A" stroke-linecap="round" stroke-linejoin="round">
                <path d="M3.4 6.7c-.1-.2-.1-.5-.1-.7 0-1.8 1.5-3.2 3.2-3.2.8 0 1.5.3 2.1.8.7-2.1 2.6-3.6 4.9-3.6 2.6 0 4.8 2 5.1 4.5.5-.4 1-.6 1.7-.6 1.5 0 2.7 1.2 2.7 2.7v.2M8.1 6.7L.8 6.7M11 6.7L9.5 6.7" transform="translate(38 43) translate(0 229)"/>
            </g>
            <g stroke="#0D143A" stroke-linecap="round" stroke-linejoin="round">
                <path d="M2.4.6L.6.6M8.2.6L4.4.6" transform="translate(38 43) translate(260 136)"/>
            </g>
        </g>
    </g>
</svg>
