<svg xmlns="http://www.w3.org/2000/svg" width="20" height="20" viewBox="0 0 20 20">
    <g fill="none" fill-rule="evenodd" stroke="#B51647" stroke-linecap="round" stroke-linejoin="round">
        <path d="M12.306 4.668c0 2.445-1.983 4.428-4.428 4.428S3.451 7.113 3.451 4.668 5.433.241 7.878.241c2.445 0 4.428 1.982 4.428 4.427zM.241 17.88c0-4.22 3.419-7.638 7.637-7.638 1.876 0 3.595.676 4.924 1.799M14.773 13.877L14.773 16.316M17.525 15.127c0 1.52-1.232 2.752-2.751 2.752-1.52 0-2.753-1.232-2.753-2.752 0-1.519 1.233-2.751 2.753-2.751s2.751 1.232 2.751 2.751zM13.648 15.096L15.899 15.096" transform="translate(1 1)"/>
    </g>
</svg>
