<svg xmlns="http://www.w3.org/2000/svg" width="43" height="41" viewBox="0 0 43 41">
    <g fill="none" fill-rule="evenodd" stroke="#CD4A04" stroke-linecap="round" stroke-linejoin="round" stroke-width="1.2">
        <path d="M21.58 9.973l-.18-.79c-.378-1.66-1.418-3.095-2.878-3.969l-.095-.057c-2.011-1.205-4.53-1.18-6.519.064-1.125.705-1.997 1.75-2.488 2.985l-.702 1.767M15.149 1.893L15.149.63M16.935 3.793c0-.988-.801-1.787-1.785-1.787-.988 0-1.79.8-1.79 1.787M20.294 20.521c-1.63-3.516 1.287-10.547 1.287-10.547H8.717s2.916 7.03 1.287 10.547c-1.63 3.516-5.317 7.812-4.802 11.066.514 3.254 5.297 7.456 5.297 7.456h9.299s4.783-4.202 5.297-7.456c.514-3.254-3.172-7.55-4.801-11.066z"/>
        <path d="M9.393 11.84c-.99-1.273-2.535-2.644-4.314-2.793-3.793-.318-5.238 4.136-4.037 6.757 1.085 2.37 3.362 3.951 4.771 6.118 1.707 2.623.503 6.964-2.84 8.46M20.294 16.349s3.566-4.098 8.574-2.96c0 0-2.958-3.567-7.435-2.58M40.388 27.612v5.594c0 1.079-.875 1.95-1.95 1.95h-5.66c-1.079 0-1.95-.871-1.95-1.95v-5.594M32.564 37.044L38.459 37.044"/>
        <path d="M41.064 27.612H30.28c-.504 0-.91-.408-.91-.91 0-.505.406-.911.91-.911h10.784c.502 0 .91.406.91.91 0 .503-.408.91-.91.91z"/>
    </g>
</svg>
