<svg xmlns="http://www.w3.org/2000/svg" width="72" height="72" viewBox="0 0 72 72">
    <g fill="none" fill-rule="evenodd">
        <circle cx="36" cy="36" r="36" fill="#CD4A04"/>
        <g stroke="#FFF" stroke-linecap="round" stroke-linejoin="round" stroke-width="1.5">
            <path d="M22.608 5.856L25.906 5.856 25.906 31.262 0.5 31.262 0.5 5.856 14.12 5.856" transform="translate(23 20)"/>
            <path d="M22.494 4.775c0 2.32-4.275 10.382-4.275 10.382s-4.275-8.061-4.275-10.382c0-2.32 1.954-4.275 4.275-4.275 2.32 0 4.275 1.832 4.275 4.275z" transform="translate(23 20)"/>
            <path d="M18.22 3.065c.876 0 1.587.71 1.587 1.588 0 .877-.711 1.588-1.588 1.588-.877 0-1.588-.711-1.588-1.588 0-.877.711-1.588 1.588-1.588zM12.479 12.428L.5 20.431M21.55 21.374L15.119 30.769M5.814 5.856L25.906 25.669" transform="translate(23 20)"/>
        </g>
    </g>
</svg>
