<svg xmlns="http://www.w3.org/2000/svg" width="16" height="21" viewBox="0 0 16 21">
    <path fill="#6A6A6B" d="M15.636 16.057c-.06-.038-.506-.351-.953-1.297-.82-1.737-.993-4.184-.993-5.931v-.023c-.01-2.31-1.392-4.3-3.37-5.192V2.248C10.32 1.008 9.313 0 8.076 0H7.89C6.653 0 5.646 1.008 5.646 2.248v1.365C3.66 4.51 2.276 6.51 2.276 8.83c0 1.747-.173 4.194-.994 5.931-.447.946-.893 1.259-.952 1.297-.25.116-.374.383-.316.654.058.273.314.462.593.462H4.94c.024 1.66 1.38 3.004 3.043 3.004 1.664 0 3.019-1.343 3.043-3.004h4.333c.28 0 .535-.189.593-.462.057-.27-.066-.538-.316-.654zM6.828 2.247c0-.586.476-1.063 1.062-1.063h.186c.585 0 1.062.477 1.062 1.064v.982c-.373-.077-.76-.118-1.155-.118-.396 0-.782.04-1.155.118v-.982zm1.155 16.746c-1.012 0-1.837-.812-1.861-1.82h3.722c-.024 1.008-.85 1.82-1.861 1.82zm2.38-3.004h-8.41c.103-.16.207-.34.31-.544.793-1.562 1.195-3.788 1.195-6.616 0-2.5 2.03-4.533 4.525-4.533 2.495 0 4.525 2.033 4.525 4.535v.021c.002 2.817.404 5.035 1.194 6.593.104.204.208.384.31.544h-3.649z"/>
</svg>
