<svg xmlns="http://www.w3.org/2000/svg" width="50" height="36" viewBox="0 0 50 36">
    <g fill="none" fill-rule="evenodd" stroke="#CD4A04" stroke-linecap="round" stroke-width="1.5">
        <path d="M28.644 10.892c1.106-2.95 3.873-4.979 7.008-4.979 4.241 0 7.56 3.32 7.56 7.561 0 2.766-1.475 5.347-3.873 6.638M26.616 3.516L27.907 4.991M36.021.75L36.021 2.778M44.504 3.516L43.398 4.991M48.56 11.629L46.715 11.629M46.716 19.743L44.872 19.006"/>
        <path d="M10.708 16.977c1.844-4.241 6.085-7.376 11.063-7.376 6.27 0 11.434 4.979 11.987 11.064.737-.369 1.66-.553 2.582-.553 3.872 0 7.19 3.135 7.19 7.192 0 4.056-3.318 7.376-7.375 7.376H22.14c-.37.184-12.54 0-12.54 0-4.794 0-8.851-3.872-8.851-8.852 0-4.978 3.873-8.851 8.852-8.851 4.978 0 8.85 3.873 8.85 8.851"/>
    </g>
</svg>
