<svg xmlns="http://www.w3.org/2000/svg" width="40" height="42" viewBox="0 0 40 42">
    <g fill="none" fill-rule="evenodd" stroke="#B51647" stroke-linecap="round" stroke-linejoin="round" stroke-width="1.5">
        <path d="M30.604 14.927L30.604 0.62 7.208 0.62 0.62 7.651 0.62 39.604 30.604 39.604 30.604 24.71" transform="translate(1 1)"/>
        <path d="M22.269 30.254L34.194 13.78c.516-.712 1.57-.833 2.355-.265.781.567.998 1.605.482 2.317L25.106 32.307l-3.89 2.386 1.053-4.44zM23.823 31.306L25.105 32.307M.62 7.651L7.207 7.651 7.207.619M5.567 13.157L25.657 13.157M5.567 20.111L16.193 20.111M5.567 27.067L20.451 27.067M5.567 34.021L16.684 34.021" transform="translate(1 1)"/>
    </g>
</svg>
