<svg xmlns="http://www.w3.org/2000/svg" width="14" height="21" viewBox="0 0 14 21">
    <g fill="none" fill-rule="evenodd" stroke="#0D143A" stroke-linecap="round" stroke-linejoin="round" stroke-width=".75" opacity=".61">
        <path d="M12.42 19.42l-6.205-5.206L.287 19.42V1.302C.287.741.742.287 1.302.287h10.102c.56 0 1.015.454 1.015 1.015V19.42z" transform="translate(1 1)"/>
        <path d="M6.565 3.702l.898 1.819c.034.07.101.118.178.13l2.007.291c.194.028.272.267.131.404L8.327 7.762c-.056.054-.082.132-.068.209l.343 1.999c.033.193-.17.342-.344.249l-1.795-.943c-.069-.037-.152-.037-.22 0l-1.796.943c-.173.093-.376-.056-.343-.25l.342-1.998c.014-.077-.011-.155-.067-.209L2.926 6.346c-.14-.137-.063-.376.132-.404l2.007-.291c.077-.012.144-.06.178-.13l.897-1.819c.088-.176.339-.176.425 0z" transform="translate(1 1)"/>
    </g>
</svg>
