<svg xmlns="http://www.w3.org/2000/svg" width="22" height="23" viewBox="0 0 22 23">
    <g fill="none" fill-rule="evenodd" stroke="#B51647" stroke-linecap="round" stroke-linejoin="round" stroke-width="1.2">
        <path d="M11.592 9.329L19.433 6.556M.312 6.556L8.142 9.323M13.258 17.15L.845 17.13c-.293 0-.532-.24-.532-.533V3.276c0-.295.239-.533.532-.533H18.9c.294 0 .533.238.533.533v9.28" transform="translate(1 1)"/>
        <path d="M8.443 10.79L11.351 10.79 11.351 8.702 8.443 8.702zM6.458 2.742V1.32c0-.556.451-1.007 1.007-1.007h5.175c.556 0 1.007.451 1.007 1.007v1.423M19.327 14.363c.634 1.281.11 2.834-1.173 3.468-1.28.634-2.835.11-3.468-1.172-.634-1.281-.11-2.835 1.173-3.469 1.28-.634 2.834-.109 3.468 1.173zM18.289 18.104L19.595 20.743" transform="translate(1 1)"/>
    </g>
</svg>
