<svg xmlns="http://www.w3.org/2000/svg" width="72" height="72" viewBox="0 0 72 72">
    <g fill="none" fill-rule="evenodd">
        <circle cx="36" cy="36" r="36" fill="#6E6259"/>
        <g stroke="#FFF" stroke-linecap="round" stroke-linejoin="round" stroke-width="1.2">
            <path d="M14.421 9.978L15.596 11.344 19.303 7.71" transform="translate(19 20)"/>
            <g>
                <path d="M22.517 9.15c-.001-3.07-2.501-5.64-5.486-5.64-2.502-.002-5.787 1.766-5.815 5.617-.021 3.083 2.486 5.639 5.496 5.637 3.214 0 5.805-2.507 5.805-5.614zM20.388 28.773l1.909-4.249 5.32-5.902c.374-.417.989-.522 1.48-.25.585.32.798 1.055.478 1.64l-3.544 4.268" transform="translate(19 20) translate(0 .387)"/>
                <path d="M24.837 31.215l6.541-7.284 2.52-10.988c.1-.627-.332-1.217-.961-1.306-.603-.086-1.167.32-1.276.92l-1.325 5.297M13.964 28.773l-1.909-4.249-5.32-5.902c-.375-.417-.988-.522-1.48-.25-.586.32-.8 1.055-.478 1.64L8.32 24.28" transform="translate(19 20) translate(0 .387)"/>
                <path d="M9.515 31.215l-6.541-7.284-2.52-10.988c-.102-.627.332-1.217.962-1.306.602-.086 1.166.32 1.275.92l1.324 5.297M26.296 9.137c0 .964-1.252 1.718-1.536 2.587-.292.901.27 2.245-.276 2.995-.553.757-2.008.637-2.764 1.187-.75.546-1.082 1.972-1.984 2.263-.868.283-1.97-.665-2.934-.665-.964 0-2.065.948-2.936.665-.9-.293-1.23-1.717-1.981-2.263-.758-.55-2.214-.43-2.764-1.187-.546-.75.014-2.094-.277-2.995-.283-.87-1.536-1.623-1.536-2.587 0-.962 1.253-1.716 1.536-2.586.291-.9-.269-2.245.277-2.996.55-.756 2.006-.636 2.764-1.186.75-.546 1.082-1.971 1.982-2.263.87-.282 1.971.665 2.935.665s2.066-.947 2.934-.665c.902.292 1.234 1.718 1.984 2.263.756.55 2.212.43 2.764 1.188.546.749-.016 2.093.276 2.995.284.869 1.536 1.623 1.536 2.585z" transform="translate(19 20) translate(0 .387)"/>
            </g>
        </g>
    </g>
</svg>
