<svg xmlns="http://www.w3.org/2000/svg" xmlns:xlink="http://www.w3.org/1999/xlink" width="37" height="36" viewBox="0 0 37 36">
    <defs>
        <path id="prefix__a" d="M0 34.714L35.614 34.714 35.614 0.496 0 0.496z"/>
    </defs>
    <g fill="none" fill-rule="evenodd">
        <path stroke="#CD4A04" stroke-linecap="round" stroke-linejoin="round" stroke-width="1.5" d="M17.884 15.678L29.982 11.401" transform="translate(1)"/>
        <g transform="translate(1) translate(0 .79)">
            <path stroke="#CD4A04" stroke-linecap="round" stroke-linejoin="round" stroke-width="1.5" d="M.483 10.611L12.562 14.881M20.454 26.955l-19.15-.03c-.453 0-.821-.368-.821-.822V5.55c0-.455.368-.823.822-.823H29.16c.455 0 .822.368.822.823V19.87"/>
            <mask id="prefix__b" fill="#fff">
                <use xlink:href="#prefix__a"/>
            </mask>
            <path stroke="#CD4A04" stroke-linecap="round" stroke-linejoin="round" stroke-width="1.5" d="M13.027 17.144L17.513 17.144 17.513 13.922 13.027 13.922zM9.965 4.728V2.532c0-.858.694-1.553 1.552-1.553h7.985c.858 0 1.552.695 1.552 1.553v2.196M30.966 23.318h3.114c.58 0 1.053.47 1.053 1.052v8.81c0 .58-.472 1.052-1.053 1.052H22.107c-.581 0-1.053-.472-1.053-1.053v-8.81c0-.58.472-1.051 1.053-1.051h8.859M25.171 22.168L25.171 24.425M30.711 22.168L30.711 24.425M23.653 27.393L24.227 27.393M27.807 27.393L28.38 27.393M31.96 27.393L32.534 27.393M23.653 30.826L24.227 30.826M27.807 30.826L28.38 30.826M31.96 30.826L32.534 30.826" mask="url(#prefix__b)"/>
        </g>
    </g>
</svg>
