<svg xmlns="http://www.w3.org/2000/svg" xmlns:xlink="http://www.w3.org/1999/xlink" width="35" height="35" viewBox="0 0 35 35">
    <defs>
        <path id="prefix__a" d="M0 33.149L33.448 33.149 33.448 0 0 0z"/>
    </defs>
    <g fill="none" fill-rule="evenodd" transform="translate(1 1)">
        <path stroke="#CD4A04" stroke-linecap="round" stroke-linejoin="round" stroke-width="1.5" d="M32.938 29.152c0 1.926-1.56 3.486-3.486 3.486H4.438c1.836 0 3.322-1.487 3.322-3.323V.51h25.178v28.643z"/>
        <path stroke="#CD4A04" stroke-linecap="round" stroke-linejoin="round" stroke-width="1.5" d="M7.76 32.638H4.717c-2.323 0-4.205-1.882-4.205-4.205V6.087c0-.92.745-1.665 1.664-1.665.918 0 1.665.746 1.665 1.665v22.454M2.175 4.422L5.3 4.422"/>
        <mask id="prefix__b" fill="#fff">
            <use xlink:href="#prefix__a"/>
        </mask>
        <path stroke="#CD4A04" stroke-linecap="round" stroke-linejoin="round" stroke-width="1.5" d="M11.395 7.03L29.538 7.03 29.538 4.773 11.395 4.773zM11.395 19.364L19.381 19.364 19.381 11.023 11.395 11.023zM23.114 11.023L29.539 11.023M23.114 15.015L29.539 15.015M23.114 19.009L29.539 19.009M11.396 23.87L29.538 23.87M11.396 28.376L29.538 28.376" mask="url(#prefix__b)"/>
    </g>
</svg>
