<?xml version="1.0" encoding="UTF-8"?>
<svg width="1441px" height="581px" viewBox="0 0 1441 581" version="1.1" xmlns="http://www.w3.org/2000/svg" xmlns:xlink="http://www.w3.org/1999/xlink">
    <title>Group</title>
    <defs>
        <path d="M1.25055521e-12,102.047352 C293.828125,6.39118877 555.742188,-22.0160351 785.742188,16.8256799 C1019.81879,56.3558403 1269.60334,86.2668491 1440.15776,80.6428913 C1440.54622,80.6300821 1440.49879,246.008506 1440.01545,576.778164 L1.25055521e-12,580.114898 L1.25055521e-12,102.047352 Z" id="path-1"></path>
    </defs>
    <g id="Page-1" stroke="none" stroke-width="1" fill="none" fill-rule="evenodd">
        <g id="02-Vision" transform="translate(0.000000, -1175.000000)">
            <g id="Group-8" transform="translate(0.000000, 1175.000000)">
                <g id="Group-4" transform="translate(0.000000, 0.000000)">
                    <g id="Group" transform="translate(0.000000, 0.000000)">
                        <mask id="mask-2" fill="white">
                            <use xlink:href="#path-1"></use>
                        </mask>
                        <use id="Path-2" fill="#8A1538" xlink:href="#path-1"></use>
                        <path d="M1380.42167,550 C1389.58508,552.423046 1400.74323,562.889158 1400.99564,563.126711 L1401,563.130821 C1401,563.130821 1394.55365,573.783869 1391.33047,577.5 C1381.07249,567.658217 1371.21892,563.713105 1371.0036,563.627588 L1371,563.626164 L1380.42167,550 Z M1421.57833,550 C1427.03326,557.18459 1431,563.626164 1431,563.626164 C1431,563.626164 1421.04149,567.548864 1410.66953,577.5 C1407.44635,573.783869 1401,563.130821 1401,563.130821 C1401,563.130821 1412.30959,552.450897 1421.57833,550 Z M1440.07993,559.572058 C1440.00568,566.886473 1440.00182,574.386169 1440.02426,575.633153 C1435.30231,569.236446 1432,563.873836 1432,563.873836 C1432,563.873836 1435.30033,562.573824 1440.07993,559.572058 Z M1380.42167,522.5 C1389.58508,524.923046 1400.74323,535.389158 1400.99564,535.626711 L1401,535.630821 C1401,535.630821 1394.55365,546.283869 1391.33047,550 C1380.95851,540.048864 1371,536.126164 1371,536.126164 C1371,536.126164 1374.96674,529.68459 1380.42167,522.5 Z M1421.57833,522.5 C1427.03326,529.68459 1431,536.126164 1431,536.126164 C1431,536.126164 1421.04149,540.048864 1410.66953,550 C1407.44635,546.283869 1401,535.630821 1401,535.630821 C1401,535.630821 1412.30959,524.950897 1421.57833,522.5 Z M1440.08583,532.068352 C1440.02432,537.863211 1440.06121,548.183229 1439.99042,548.087271 C1435.28654,541.710838 1432,536.373836 1432,536.373836 C1432,536.373836 1435.30304,535.072754 1440.08583,532.068352 Z M1380.42167,495 C1389.58508,497.423046 1400.74323,507.889158 1400.99564,508.126711 L1401,508.130821 C1401,508.130821 1394.55365,518.783869 1391.33047,522.5 C1380.95851,512.548864 1371,508.626164 1371,508.626164 C1371,508.626164 1374.96674,502.18459 1380.42167,495 Z M1421.57833,495 C1427.03326,502.18459 1431,508.626164 1431,508.626164 C1431,508.626164 1421.04149,512.548864 1410.66953,522.5 C1407.44635,518.783869 1401,508.130821 1401,508.130821 C1401,508.130821 1412.30959,497.450897 1421.57833,495 Z M1439.95632,504.649513 C1440.16752,504.517461 1440.41662,521.16567 1439.93555,520.512839 C1435.261,514.16936 1432,508.873836 1432,508.873836 C1432,508.873836 1435.24352,507.5962 1439.95632,504.649513 Z" id="Combined-Shape" fill="#000000" opacity="0.16703869" mask="url(#mask-2)"></path>
                    </g>
                </g>
            </g>
        </g>
    </g>
</svg>