<svg xmlns="http://www.w3.org/2000/svg" width="52" height="48" viewBox="0 0 52 48">
    <g fill="none" fill-rule="evenodd" stroke="#CD4A04" stroke-linecap="round" stroke-linejoin="round" stroke-width="1.3">
        <path d="M40.63 6.495c0 1.137-.92 2.055-2.056 2.055-1.135 0-2.056-.918-2.056-2.055 0-1.135.921-2.055 2.056-2.055s2.055.92 2.055 2.055zM38.574 2.042L38.574.624M41.708 3.331L42.705 2.324M43.028 6.451L44.445 6.438M41.769 9.599L42.785 10.585M38.661 10.948L38.69 12.365M35.502 9.721L34.526 10.746M34.122 6.625L32.705 6.667M35.318 3.455L34.283 2.488M10.066 37.058l-1.375-.441c-.752-.239-1.352-.814-1.625-1.554L2.803 23.47c-.22-.6.083-1.262.681-1.485l16.949-6.293c.758-.282 1.61-.097 2.18.473l3.853 3.841c.507.504 1.238.71 1.935.547l5.567-1.315c1.741-.412 3.51.57 4.081 2.268l1.794 5.325-2.227.922" transform="translate(1 1)"/>
        <path d="M18.7 34.425c.307 1.975-1.044 3.822-3.02 4.13-1.971.305-3.82-1.045-4.128-3.02-.306-1.975 1.045-3.822 3.018-4.13 1.976-.305 3.824 1.045 4.13 3.02zM36.158 29.218c.297 1.907-1.008 3.692-2.915 3.988-1.908.295-3.692-1.01-3.988-2.915-.295-1.906 1.008-3.691 2.915-3.988 1.907-.297 3.691 1.008 3.988 2.915zM20.377 33.661L27.738 31.153M4.799 28.901L27.319 20.516M7.89 20.745L10.208 26.886M15.512 18.29L17.71 23.669M3.606 19.042L17.808 13.892M5.348 34.919L3.413 35.616.624 27.875 2.559 27.178M2.73 45.864c.754 0 32.959-12.37 36.044-11.447 3.086.922 10.601 6.88 10.601 6.88" transform="translate(1 1)"/>
    </g>
</svg>
