<svg xmlns="http://www.w3.org/2000/svg" width="59" height="59" viewBox="0 0 59 59">
    <g fill="none" fill-rule="evenodd">
        <circle cx="29.5" cy="29.5" r="29.5" fill="#B51647"/>
        <g fill="#FFF" fill-rule="nonzero">
            <path d="M19.222 13.838c-.424 0-.769.344-.769.769v4.612c0 .425-.344.769-.768.769H2.309c-.424 0-.768-.344-.768-.769v-4.612c0-.425-.345-.77-.77-.77-.424 0-.768.345-.768.77v4.612c0 1.274 1.033 2.307 2.306 2.307h15.376c1.273 0 2.306-1.033 2.306-2.307v-4.612c0-.425-.344-.77-.769-.77z" transform="translate(20 19)"/>
            <path d="M14.367 13.294c-.298-.287-.77-.287-1.068 0l-2.533 2.532V.769c0-.425-.344-.769-.769-.769-.425 0-.769.344-.769.769v15.057l-2.531-2.532c-.306-.295-.792-.286-1.087.02-.288.297-.288.77 0 1.067l3.843 3.844c.3.3.787.301 1.088.002l.001-.002 3.844-3.844c.295-.305.286-.792-.019-1.087z" transform="translate(20 19)"/>
        </g>
    </g>
</svg>
