<svg xmlns="http://www.w3.org/2000/svg" width="72" height="72" viewBox="0 0 72 72">
    <g fill="none" fill-rule="evenodd">
        <circle cx="36" cy="36" r="36" fill="#CD4A04"/>
        <g stroke="#FFF" stroke-linecap="round" stroke-linejoin="round" stroke-width="1.2">
            <path d="M13.246 33.732V21.105l4.661-6.18V8.179c0-1.422-1.152-2.574-2.574-2.574h-3.496c-.868 0-1.573.704-1.573 1.572 0 .869.705 1.572 1.573 1.572h2.764l-1.464 4.964s-5.257.51-6.287 5.223" transform="translate(27 19)"/>
            <path d="M8.113 11.24h-.14c-.8 0-1.448-.647-1.448-1.446v-7.89c0-.8.648-1.448 1.447-1.448h.141c.8 0 1.446.647 1.446 1.447v7.89c0 .8-.647 1.447-1.446 1.447zM12.966 9.49c0 .839-.68 1.519-1.518 1.519S9.93 10.329 9.93 9.49V2.244c0-.838.68-1.518 1.518-1.518s1.518.68 1.518 1.518v2.65M5.079 10.103h-.141c-.8 0-1.449-.649-1.449-1.446v-6.32c0-.801.65-1.448 1.449-1.448h.14c.8 0 1.447.647 1.447 1.447v6.32c0 .798-.647 1.447-1.446 1.447zM2.043 9.778h-.14c-.8 0-1.448-.649-1.448-1.448V3.908c0-.8.648-1.446 1.447-1.446h.141c.799 0 1.446.647 1.446 1.446V8.33c0 .8-.647 1.448-1.446 1.448zM.455 11.012L.455 16.498 3.057 20.877 3.057 33.732M10.428 28.966c0 1.301-1.056 2.357-2.358 2.357-1.303 0-2.358-1.056-2.358-2.357 0-1.302 1.055-2.357 2.358-2.357 1.302 0 2.358 1.055 2.358 2.357zM8.069 21.538L8.069 26.609M6.525 23.273L9.723 23.273" transform="translate(27 19)"/>
        </g>
    </g>
</svg>
