<svg xmlns="http://www.w3.org/2000/svg" xmlns:xlink="http://www.w3.org/1999/xlink" width="180" height="64" viewBox="0 0 180 64"><defs><style>.cls-1{fill:#0c0d0c;}.cls-2,.cls-4{fill:#76102b;}.cls-3{fill:#eb2136;}.cls-3,.cls-4,.cls-5,.cls-6{fill-rule:evenodd;}.cls-5{fill:#fff;}.cls-6{fill:url(#linear-gradient);}</style><linearGradient id="linear-gradient" x1="40.93" y1="53.51" x2="49.06" y2="47.71" gradientUnits="userSpaceOnUse"><stop offset="0" stop-color="#696969"/><stop offset="0.13" stop-color="#8b8b8b"/><stop offset="0.32" stop-color="#b4b4b4"/><stop offset="0.51" stop-color="#d5d5d5"/><stop offset="0.69" stop-color="#ececec"/><stop offset="0.86" stop-color="#fafafa"/><stop offset="1" stop-color="#fff"/></linearGradient></defs><g id="Hukoomi_logos" data-name="Hukoomi logos"><g id="P8"><path class="cls-1" d="M75.82,18.5V34.84H73.66V27.56H65v7.28H62.84V18.5H65v7h8.66v-7Z"/><path class="cls-1" d="M81.9,33.16a7.72,7.72,0,0,1-1.69-5.37V18.5h2.16v9.2q0,5.25,4.25,5.25a3.92,3.92,0,0,0,3.17-1.3,6,6,0,0,0,1.1-3.95V18.5H93v9.29a7.71,7.71,0,0,1-1.69,5.38,6.84,6.84,0,0,1-9.39,0Z"/><path class="cls-1" d="M102.31,27.58l-2.76,3v4.22H97.39V18.5h2.16v9.13l8.19-9.13h2.46l-6.45,7.35,6.86,9h-2.52Z"/><path class="cls-1" d="M115.05,33.94a7.7,7.7,0,0,1-2.88-3,8.71,8.71,0,0,1-1-4.27,8.71,8.71,0,0,1,1-4.27,7.7,7.7,0,0,1,2.88-3,8.27,8.27,0,0,1,8.21,0,7.64,7.64,0,0,1,2.87,3,8.8,8.8,0,0,1,1,4.28,8.77,8.77,0,0,1-1,4.28,7.64,7.64,0,0,1-2.87,3,8.27,8.27,0,0,1-8.21,0Zm7.1-1.81a5.68,5.68,0,0,0,2.09-2.25,7.08,7.08,0,0,0,0-6.42,5.68,5.68,0,0,0-2.09-2.25,5.52,5.52,0,0,0-3-.82,5.7,5.7,0,0,0-5.12,3.07,7.08,7.08,0,0,0,0,6.42A5.7,5.7,0,0,0,119.17,33,5.52,5.52,0,0,0,122.15,32.13Z"/><path class="cls-1" d="M133.16,33.94a7.63,7.63,0,0,1-2.88-3,9.21,9.21,0,0,1,0-8.54,7.63,7.63,0,0,1,2.88-3,8.27,8.27,0,0,1,8.21,0,7.64,7.64,0,0,1,2.87,3,8.8,8.8,0,0,1,1,4.28,8.77,8.77,0,0,1-1,4.28,7.64,7.64,0,0,1-2.87,3,8.27,8.27,0,0,1-8.21,0Zm7.1-1.81a5.75,5.75,0,0,0,2.09-2.25,7.16,7.16,0,0,0,0-6.42,5.75,5.75,0,0,0-2.09-2.25,5.53,5.53,0,0,0-3-.82,5.61,5.61,0,0,0-3,.82,5.68,5.68,0,0,0-2.12,2.25,7.16,7.16,0,0,0,0,6.42,5.68,5.68,0,0,0,2.12,2.25,5.61,5.61,0,0,0,3,.82A5.53,5.53,0,0,0,140.26,32.13Z"/><path class="cls-1" d="M162.56,34.84l0-11.9-5.46,9.92h-1L150.64,23V34.84h-2.07V18.5h1.77L156.63,30l6.21-11.49h1.77l0,16.34Z"/><path class="cls-1" d="M169.15,18.5h2.16V34.84h-2.16Z"/><path class="cls-1" d="M70.69,51.06a2.48,2.48,0,0,1-.83.66,2.38,2.38,0,0,1-1,.23,2.65,2.65,0,0,1-1.3-.34,6.27,6.27,0,0,1-1.39-1.17,3.92,3.92,0,0,1-1.88-.58A3.72,3.72,0,0,1,63,48.47a4.19,4.19,0,0,1,0-3.91,3.76,3.76,0,0,1,1.4-1.4,4.29,4.29,0,0,1,4,0,3.76,3.76,0,0,1,1.4,1.4,4,4,0,0,1,.5,2A4,4,0,0,1,70,48.27a3.67,3.67,0,0,1-1,1.32,4,4,0,0,1-1.51.74,2.55,2.55,0,0,0,.71.58,1.49,1.49,0,0,0,.7.18,1.75,1.75,0,0,0,1.35-.65Zm-6.77-3a2.83,2.83,0,0,0,1,1.05,2.86,2.86,0,0,0,4-1.05,3.14,3.14,0,0,0,.37-1.5,3.08,3.08,0,0,0-.37-1.49,2.74,2.74,0,0,0-1-1.05A3,3,0,0,0,65,44a2.69,2.69,0,0,0-1,1.05,3,3,0,0,0-.37,1.49A3,3,0,0,0,63.92,48.05Z"/><path class="cls-1" d="M75.6,45.13a2.27,2.27,0,0,1,.62,1.75v3.48h-1V49.6a1.6,1.6,0,0,1-.72.61,2.68,2.68,0,0,1-1.11.22,2.26,2.26,0,0,1-1.5-.47,1.5,1.5,0,0,1-.56-1.23,1.54,1.54,0,0,1,.53-1.23A2.65,2.65,0,0,1,73.61,47h1.6v-.2a1.38,1.38,0,0,0-.38-1,1.57,1.57,0,0,0-1.12-.36,3,3,0,0,0-1,.17,2.49,2.49,0,0,0-.8.45l-.42-.78a3,3,0,0,1,1-.55,4.07,4.07,0,0,1,1.27-.19A2.47,2.47,0,0,1,75.6,45.13Zm-1,4.22a1.52,1.52,0,0,0,.61-.75v-.81H73.65c-.86,0-1.28.3-1.28.89a.82.82,0,0,0,.32.69,1.45,1.45,0,0,0,.91.25A1.82,1.82,0,0,0,74.6,49.35Z"/><path class="cls-1" d="M81.23,50a1.49,1.49,0,0,1-.54.3,2.25,2.25,0,0,1-.68.11,1.75,1.75,0,0,1-1.3-.47,1.82,1.82,0,0,1-.47-1.34V45.45H77.3v-.86h.94V43.33h1v1.26h1.6v.86h-1.6v3.13a1,1,0,0,0,.23.71.82.82,0,0,0,.65.25,1.2,1.2,0,0,0,.79-.27Z"/><path class="cls-1" d="M86.26,45.13a2.3,2.3,0,0,1,.62,1.75v3.48h-1V49.6a1.6,1.6,0,0,1-.72.61,2.68,2.68,0,0,1-1.11.22,2.26,2.26,0,0,1-1.5-.47A1.51,1.51,0,0,1,82,48.73a1.54,1.54,0,0,1,.54-1.23A2.65,2.65,0,0,1,84.27,47h1.6v-.2a1.38,1.38,0,0,0-.38-1,1.57,1.57,0,0,0-1.12-.36,3,3,0,0,0-1,.17,2.49,2.49,0,0,0-.8.45l-.42-.78a3.08,3.08,0,0,1,1-.55,4.13,4.13,0,0,1,1.28-.19A2.47,2.47,0,0,1,86.26,45.13Zm-1,4.22a1.52,1.52,0,0,0,.61-.75v-.81H84.31c-.86,0-1.29.3-1.29.89a.83.83,0,0,0,.33.69,1.45,1.45,0,0,0,.91.25A1.82,1.82,0,0,0,85.26,49.35Z"/><path class="cls-1" d="M90.5,44.8a2.83,2.83,0,0,1,1.26-.26v1h-.24a1.69,1.69,0,0,0-1.29.51,2,2,0,0,0-.46,1.44v2.87h-1V44.59h1v1A1.85,1.85,0,0,1,90.5,44.8Z"/><path class="cls-1" d="M100.93,47.83H96.4a1.82,1.82,0,0,0,.65,1.22,2.06,2.06,0,0,0,1.37.46,2,2,0,0,0,1.62-.7l.55.68a2.45,2.45,0,0,1-.94.7,3.43,3.43,0,0,1-2.83-.14,2.68,2.68,0,0,1-1.06-1,3.08,3.08,0,0,1-.37-1.52A3.19,3.19,0,0,1,95.75,46a2.78,2.78,0,0,1,1-1,2.82,2.82,0,0,1,1.44-.38,2.73,2.73,0,0,1,1.43.38,2.65,2.65,0,0,1,1,1,3.37,3.37,0,0,1,.35,1.55C101,47.59,100.94,47.69,100.93,47.83Zm-4-1.95a1.89,1.89,0,0,0-.57,1.19H100a1.89,1.89,0,0,0-.57-1.19,1.74,1.74,0,0,0-1.22-.46A1.72,1.72,0,0,0,97,45.88Z"/><path class="cls-1" d="M102.1,46.92h2.83v.91H102.1Z"/><path class="cls-1" d="M111.82,46.51h1v3a4,4,0,0,1-1.27.72,4.84,4.84,0,0,1-1.52.25,4,4,0,0,1-2-.51,3.69,3.69,0,0,1-1.41-1.39,4.18,4.18,0,0,1,0-4A3.62,3.62,0,0,1,108,43.16a4.41,4.41,0,0,1,3.64-.2,3.36,3.36,0,0,1,1.23.87l-.66.68a2.91,2.91,0,0,0-2.14-.88,3,3,0,0,0-1.51.37,2.79,2.79,0,0,0-1,1,3,3,0,0,0-.37,1.5,3,3,0,0,0,.37,1.5,2.94,2.94,0,0,0,1,1.05,3.23,3.23,0,0,0,3.23-.11Z"/><path class="cls-1" d="M115.59,50a2.69,2.69,0,0,1-1-1,3,3,0,0,1-.37-1.51,3.06,3.06,0,0,1,.37-1.52,2.67,2.67,0,0,1,1-1,3.13,3.13,0,0,1,3,0,2.64,2.64,0,0,1,1,1,3.06,3.06,0,0,1,.37,1.52,3,3,0,0,1-.37,1.51,2.67,2.67,0,0,1-1,1,3.06,3.06,0,0,1-3,0Zm2.46-.78a1.73,1.73,0,0,0,.67-.72,2.46,2.46,0,0,0,0-2.12,1.73,1.73,0,0,0-.67-.72,1.91,1.91,0,0,0-1-.25,2,2,0,0,0-1,.25,1.79,1.79,0,0,0-.67.72,2.37,2.37,0,0,0,0,2.12,1.79,1.79,0,0,0,.67.72,1.87,1.87,0,0,0,1,.25A1.81,1.81,0,0,0,118.05,49.26Z"/><path class="cls-1" d="M126.17,44.59l-2.45,5.77h-1l-2.44-5.77h1l1.92,4.63,2-4.63Z"/><path class="cls-1" d="M132,47.83h-4.53a1.86,1.86,0,0,0,.65,1.22,2.06,2.06,0,0,0,1.37.46,2,2,0,0,0,1.62-.7l.55.68a2.45,2.45,0,0,1-.94.7,3.15,3.15,0,0,1-1.26.24,3.23,3.23,0,0,1-1.57-.38,2.68,2.68,0,0,1-1.06-1,3.35,3.35,0,0,1,0-3,2.78,2.78,0,0,1,1-1,2.82,2.82,0,0,1,1.44-.38,2.73,2.73,0,0,1,1.43.38,2.65,2.65,0,0,1,1,1,3.37,3.37,0,0,1,.35,1.55C132,47.59,132,47.69,132,47.83ZM128,45.88a1.85,1.85,0,0,0-.58,1.19H131a1.84,1.84,0,0,0-.57-1.19,1.74,1.74,0,0,0-1.22-.46A1.68,1.68,0,0,0,128,45.88Z"/><path class="cls-1" d="M135.15,44.8a2.81,2.81,0,0,1,1.25-.26v1h-.23a1.69,1.69,0,0,0-1.29.51,2,2,0,0,0-.47,1.44v2.87h-1V44.59h1v1A1.85,1.85,0,0,1,135.15,44.8Z"/><path class="cls-1" d="M142.32,45.18A2.52,2.52,0,0,1,143,47v3.32h-1v-3.2a1.79,1.79,0,0,0-.39-1.26,1.43,1.43,0,0,0-1.11-.42,1.72,1.72,0,0,0-1.3.49,2,2,0,0,0-.47,1.42v3h-1V44.59h1v.87a2,2,0,0,1,.82-.68,2.84,2.84,0,0,1,1.19-.24A2.25,2.25,0,0,1,142.32,45.18Z"/><path class="cls-1" d="M153.47,45.17a2.57,2.57,0,0,1,.62,1.87v3.32h-1v-3.2a1.84,1.84,0,0,0-.38-1.26,1.35,1.35,0,0,0-1.07-.42,1.58,1.58,0,0,0-1.22.49,2,2,0,0,0-.45,1.42v3h-1v-3.2a1.89,1.89,0,0,0-.37-1.26,1.36,1.36,0,0,0-1.07-.42,1.59,1.59,0,0,0-1.23.49,2,2,0,0,0-.45,1.42v3h-1V44.59h1v.86a2,2,0,0,1,.8-.68,2.71,2.71,0,0,1,1.13-.23,2.38,2.38,0,0,1,1.15.27,1.83,1.83,0,0,1,.78.8,2.24,2.24,0,0,1,.88-.79,2.79,2.79,0,0,1,1.27-.28A2.22,2.22,0,0,1,153.47,45.17Z"/><path class="cls-1" d="M161,47.83h-4.53a1.82,1.82,0,0,0,.65,1.22,2,2,0,0,0,1.37.46,2,2,0,0,0,1.61-.7l.56.68a2.45,2.45,0,0,1-.94.7,3.43,3.43,0,0,1-2.83-.14,2.61,2.61,0,0,1-1.06-1,3.08,3.08,0,0,1-.37-1.52,3.19,3.19,0,0,1,.36-1.52,2.7,2.7,0,0,1,1-1,2.82,2.82,0,0,1,1.44-.38,2.75,2.75,0,0,1,1.43.38,2.65,2.65,0,0,1,1,1,3.37,3.37,0,0,1,.35,1.55C161,47.59,161,47.69,161,47.83Zm-4-1.95a1.89,1.89,0,0,0-.57,1.19h3.58a1.94,1.94,0,0,0-.57-1.19,1.74,1.74,0,0,0-1.22-.46A1.72,1.72,0,0,0,157.05,45.88Z"/><path class="cls-1" d="M167.1,45.18a2.52,2.52,0,0,1,.63,1.86v3.32h-1v-3.2a1.79,1.79,0,0,0-.39-1.26,1.45,1.45,0,0,0-1.12-.42,1.68,1.68,0,0,0-1.29.49,2,2,0,0,0-.48,1.42v3h-1V44.59h1v.87a2,2,0,0,1,.83-.68,2.76,2.76,0,0,1,1.18-.24A2.25,2.25,0,0,1,167.1,45.18Z"/><path class="cls-1" d="M172.74,50a1.49,1.49,0,0,1-.54.3,2.25,2.25,0,0,1-.68.11,1.74,1.74,0,0,1-1.3-.47,1.82,1.82,0,0,1-.47-1.34V45.45h-.95v-.86h.95V43.33h1v1.26h1.6v.86h-1.6v3.13a1,1,0,0,0,.23.71.82.82,0,0,0,.65.25,1.2,1.2,0,0,0,.79-.27Z"/><path class="cls-2" d="M31.73,50a27.62,27.62,0,0,1-9.59,2.24c-5.66,0-11.49-2.12-12.91-10.69a16.85,16.85,0,0,1,3.93-14.37c.27-.35.32-.46.81-.09,4.79,3.31,10.4,2.6,19.71,2.59,8.8,0,10.24,6.47,10.38,7.19a9.06,9.06,0,0,1,1.51,1.39c.17-5.56-1.19-13.62-13.88-13.14-8-.14-14.47.35-16.28-.46a13.76,13.76,0,0,1,2.31-2.11c1.68-1.34,2.25-.29,3.61,1,.13-.21.39-.67-.28-2.93-.21-.71.61-.89,2.43-2a52.27,52.27,0,0,1,6.71-3.19c2.76-1.17.68-.31,9.69-4,1-.38,1.06-1.22,2-3.9.3-.92-.33-.78-1.22-.91a207.79,207.79,0,0,0-25.2-1.5,7.85,7.85,0,0,0-5.32,1.36A5.07,5.07,0,0,0,7.91,9c-.06.51-.57,4.14,1.71,5.71,1.11.73,4,2.59,6.71,4.33.31.18.49.29.26.63a16,16,0,0,0-3,3.37c-.13.21-.49.76-1,.49s-1.38-.62-2.66-1.27a4.49,4.49,0,0,0,1.29,2.4c.4.39.76.65.19,1.48C9.74,28,7.09,35.05,7.26,40.7c.4,13.17,9.45,16.89,15,16.89,5.12,0,9.46-2.54,13-5A9.15,9.15,0,0,1,31.73,50ZM11.29,11.59a9.27,9.27,0,0,0-.93-.6c-.41-.3-.14-.68.37-.76s2.65-.7,9.84-.42c3.39.09,8.11.51,9.71.67.68.09.88.24.93.3-1.68,1.33-6.45,3.14-8.79,4.79-2.57,1.48-2.72,2.32-3.89,1.23C17.07,15.62,13.55,13,11.29,11.59Z"/><path class="cls-3" d="M38.46,36.31A7.43,7.43,0,1,1,31,43.74,7.43,7.43,0,0,1,38.46,36.31Z"/><path class="cls-4" d="M53,49.23,38.09,42.64l7,16.16,1.79-4.45,3.33,3.22L52.88,55l-3.56-3.19Z"/><polygon class="cls-5" points="39.75 44.49 51.09 49.4 47.77 51.54 51.09 55.02 50.12 56.03 46.59 52.63 45.04 56.03 39.75 44.49"/><polygon class="cls-6" points="40.55 45.28 45.02 54.89 46.44 51.88 50.08 55.48 50.54 55.02 47.18 51.37 50.08 49.48 40.55 45.28"/></g></g></svg>