<svg xmlns="http://www.w3.org/2000/svg" width="41" height="41" viewBox="0 0 41 41">
    <g fill="none" fill-rule="evenodd" stroke="#6E6259" stroke-linecap="round" stroke-linejoin="round" stroke-width="1.5">
        <path d="M6.202 29.217c-.486.12-.982.217-1.457.368-.423.135-.822.34-1.237.501-.412.162-.752.028-.922-.375-.65-1.555-1.296-3.115-1.938-4.678-.174-.422-.025-.756.395-.937.391-.168.785-.323 1.177-.488 1.503-.63 2.466-2.072 2.468-3.718.002-1.787-.79-3.079-2.423-3.83-.386-.177-.783-.326-1.175-.49-.477-.2-.622-.527-.428-.997.635-1.542 1.275-3.082 1.917-4.622.174-.418.509-.557.938-.388.405.157.803.33 1.205.496 2.726 1.115 5.195-.966 5.572-3.131.137-.78.05-1.53-.252-2.26-.159-.383-.323-.763-.474-1.15-.17-.424-.035-.765.383-.94 1.548-.647 3.097-1.288 4.65-1.925.436-.182.773-.031.958.403.161.381.315.766.478 1.147.674 1.582 2.08 2.48 3.862 2.474 1.698-.006 3.064-.918 3.721-2.486.162-.381.313-.768.477-1.148.177-.417.516-.569.939-.395 1.563.638 3.121 1.286 4.678 1.935.402.168.536.51.374.923-.165.424-.357.837-.515 1.264-.61 1.652-.268 3.107.966 4.343 1.237 1.235 2.7 1.549 4.349.96.408-.147.802-.333 1.206-.496.477-.192.8-.061.999.416.633 1.521 1.263 3.043 1.892 4.567.194.471.052.808-.412 1.005-.4.17-.81.318-1.203.501-1.527.711-2.359 1.905-2.393 3.597-.037 1.97.846 3.279 2.662 4.028.326.135.654.268.978.41.402.172.557.51.391.916-.643 1.571-1.295 3.14-1.95 4.705-.164.39-.498.523-.898.368-.415-.159-.82-.345-1.235-.504-1.605-.604-3.052-.333-4.29.85-1.302 1.247-1.678 2.744-1.053 4.458.15.41.332.805.494 1.21.181.456.044.787-.411.978-1.52.632-3.043 1.264-4.566 1.892-.499.206-.814.074-1.022-.418-.164-.393-.312-.791-.489-1.176-.72-1.555-1.952-2.367-3.654-2.415-1.774-.048-3.066.745-3.838 2.35-.197.41-.353.84-.531 1.258-.2.466-.514.606-.974.418-1.543-.635-3.083-1.275-4.621-1.917-.439-.183-.568-.514-.402-.96.243-.643.563-1.268.706-1.93.588-2.72-1.852-4.97-4.054-4.893l-.018-.074z" transform="translate(1 1)"/>
        <path d="M21.486 20.237c-.614.534-1.592.411-2.185-.273-.59-.684-.572-1.67.043-2.2.616-.533 5.414-2.52 5.414-2.52s-2.657 4.461-3.272 4.993zM20.796 7.058L20.659 8.855M32.592 20.795L30.795 20.658M18.854 32.59L18.991 30.793M7.06 18.854L8.857 18.991M29.539 11.484L28.171 12.658M28.166 29.537L26.992 28.17M10.111 28.164L11.479 26.99M11.484 10.111L12.66 11.479" transform="translate(1 1)"/>
        <path d="M30.21 19.824c0 5.737-4.649 10.386-10.384 10.386-5.737 0-10.386-4.649-10.386-10.386 0-5.737 4.649-10.386 10.386-10.386 5.735 0 10.384 4.65 10.384 10.386z" transform="translate(1 1)"/>
    </g>
</svg>
