<svg xmlns="http://www.w3.org/2000/svg" width="26" height="26" viewBox="0 0 26 26">
    <g fill="none" fill-rule="evenodd">
        <path fill="#217DEC" d="M13 26C5.82 26 0 20.18 0 13S5.82 0 13 0s13 5.82 13 13-5.82 13-13 13z"/>
        <path fill="#FFF" fill-rule="nonzero" d="M15.67 8.002L14.26 8c-1.586 0-2.61 1.051-2.61 2.678v1.235h-1.42c-.122 0-.221.1-.221.222v1.789c0 .122.1.222.222.222h1.418v4.514c0 .123.1.222.222.222h1.851c.123 0 .222-.1.222-.222v-4.514h1.66c.122 0 .221-.1.221-.222v-1.79c0-.058-.023-.114-.064-.156-.042-.042-.098-.065-.157-.065h-1.66v-1.047c0-.503.12-.758.776-.758h.95c.123 0 .222-.1.222-.223v-1.66c0-.123-.1-.223-.222-.223z"/>
    </g>
</svg>
