<svg xmlns="http://www.w3.org/2000/svg" width="165.49" height="52.39" viewBox="0 0 165.49 52.39"><defs><style>.cls-1,.cls-2{fill:#fff;}.cls-2{fill-rule:evenodd;}</style></defs><g id="Layer_2" data-name="Layer 2"><g id="Hukoomi_logos" data-name="Hukoomi logos"><g id="P8"><path class="cls-1" d="M68.56,13.3V29.64H66.4V22.35H57.74v7.29H55.58V13.3h2.16v7H66.4v-7Z"/><path class="cls-1" d="M74.64,28A7.78,7.78,0,0,1,73,22.59V13.3h2.15v9.19q0,5.27,4.25,5.26a3.94,3.94,0,0,0,3.17-1.3,6,6,0,0,0,1.1-4V13.3h2.09v9.29A7.76,7.76,0,0,1,84,28a6.88,6.88,0,0,1-9.4,0Z"/><path class="cls-1" d="M95.05,22.38l-2.76,3v4.23H90.14V13.3h2.15v9.12l8.19-9.12h2.46L96.5,20.65l6.85,9h-2.52Z"/><path class="cls-1" d="M107.79,28.74a7.84,7.84,0,0,1-2.88-3,8.85,8.85,0,0,1-1-4.27,8.82,8.82,0,0,1,1-4.27,7.7,7.7,0,0,1,2.88-3,8.29,8.29,0,0,1,8.22,0,7.66,7.66,0,0,1,2.86,3,8.84,8.84,0,0,1,1,4.29,8.83,8.83,0,0,1-1,4.28,7.69,7.69,0,0,1-2.86,3,8.36,8.36,0,0,1-8.22,0Zm7.11-1.81A5.89,5.89,0,0,0,117,24.68a6.73,6.73,0,0,0,.76-3.21,6.68,6.68,0,0,0-.76-3.21A5.84,5.84,0,0,0,114.9,16a5.63,5.63,0,0,0-3-.81,5.65,5.65,0,0,0-5.12,3.07,7.08,7.08,0,0,0,0,6.42,5.7,5.7,0,0,0,5.12,3.07A5.64,5.64,0,0,0,114.9,26.93Z"/><path class="cls-1" d="M125.9,28.74a7.84,7.84,0,0,1-2.88-3,8.74,8.74,0,0,1-1-4.27,8.71,8.71,0,0,1,1-4.27,7.7,7.7,0,0,1,2.88-3,8.27,8.27,0,0,1,8.21,0,7.69,7.69,0,0,1,2.87,3,8.84,8.84,0,0,1,1,4.29,8.82,8.82,0,0,1-1,4.28,7.71,7.71,0,0,1-2.87,3,8.34,8.34,0,0,1-8.21,0Zm7.1-1.81a5.81,5.81,0,0,0,2.09-2.25,7.08,7.08,0,0,0,0-6.42A5.77,5.77,0,0,0,133,16a5.6,5.6,0,0,0-3-.81,5.65,5.65,0,0,0-5.12,3.07,7.08,7.08,0,0,0,0,6.42A5.7,5.7,0,0,0,130,27.75,5.61,5.61,0,0,0,133,26.93Z"/><path class="cls-1" d="M155.3,29.64l0-11.91-5.45,9.92h-1l-5.46-9.85V29.64h-2.07V13.3h1.77l6.29,11.48,6.21-11.48h1.77l0,16.34Z"/><path class="cls-1" d="M161.9,13.3h2.15V29.64H161.9Z"/><path class="cls-1" d="M63.43,45.85a2.43,2.43,0,0,1-.83.67,2.31,2.31,0,0,1-1,.22,2.58,2.58,0,0,1-1.3-.34,6.5,6.5,0,0,1-1.39-1.17A3.91,3.91,0,0,1,57,44.66a3.69,3.69,0,0,1-1.3-1.39,4,4,0,0,1-.47-1.92,3.93,3.93,0,0,1,.51-2A3.65,3.65,0,0,1,57.16,38a4.2,4.2,0,0,1,4,0,3.67,3.67,0,0,1,1.4,1.39,3.94,3.94,0,0,1,.51,2,4.08,4.08,0,0,1-.37,1.72,3.55,3.55,0,0,1-1,1.31,3.62,3.62,0,0,1-1.51.74,2.77,2.77,0,0,0,.71.59,1.48,1.48,0,0,0,.7.17,1.72,1.72,0,0,0,1.35-.65Zm-6.76-3a2.67,2.67,0,0,0,1,1,2.83,2.83,0,0,0,1.47.38,2.76,2.76,0,0,0,1.45-.38,2.67,2.67,0,0,0,1-1A3,3,0,0,0,62,41.35a3,3,0,0,0-.37-1.5,2.8,2.8,0,0,0-1-1.05,2.85,2.85,0,0,0-1.45-.38,2.93,2.93,0,0,0-1.47.38,2.8,2.8,0,0,0-1,1.05,3,3,0,0,0-.38,1.5A3,3,0,0,0,56.67,42.84Z"/><path class="cls-1" d="M68.35,39.92A2.34,2.34,0,0,1,69,41.68v3.48H68v-.77a1.59,1.59,0,0,1-.73.62,2.68,2.68,0,0,1-1.11.21,2.25,2.25,0,0,1-1.5-.47,1.64,1.64,0,0,1,0-2.45,2.54,2.54,0,0,1,1.7-.46H68v-.21a1.32,1.32,0,0,0-.38-1,1.54,1.54,0,0,0-1.11-.36,2.91,2.91,0,0,0-1,.17,2.38,2.38,0,0,0-.8.45l-.42-.78a2.83,2.83,0,0,1,1-.55,4.07,4.07,0,0,1,1.27-.19A2.48,2.48,0,0,1,68.35,39.92Zm-1,4.23a1.49,1.49,0,0,0,.61-.76v-.8H66.39c-.85,0-1.28.3-1.28.89a.83.83,0,0,0,.33.69,1.48,1.48,0,0,0,.9.25A1.8,1.8,0,0,0,67.34,44.15Z"/><path class="cls-1" d="M74,44.82a1.53,1.53,0,0,1-.55.3,2.18,2.18,0,0,1-.67.1,1.72,1.72,0,0,1-1.31-.47A1.79,1.79,0,0,1,71,43.42V40.25H70v-.86H71V38.13h1v1.26h1.6v.86H72v3.12a1.05,1.05,0,0,0,.22.72.82.82,0,0,0,.65.25,1.2,1.2,0,0,0,.79-.27Z"/><path class="cls-1" d="M79,39.92a2.34,2.34,0,0,1,.61,1.76v3.48h-1v-.77a1.52,1.52,0,0,1-.72.62,2.68,2.68,0,0,1-1.11.21,2.25,2.25,0,0,1-1.5-.47,1.53,1.53,0,0,1-.56-1.23,1.56,1.56,0,0,1,.53-1.22A2.59,2.59,0,0,1,77,41.84h1.6v-.21a1.32,1.32,0,0,0-.38-1,1.54,1.54,0,0,0-1.11-.36,2.91,2.91,0,0,0-1,.17,2.29,2.29,0,0,0-.8.45l-.42-.78a2.83,2.83,0,0,1,1-.55,4.07,4.07,0,0,1,1.27-.19A2.49,2.49,0,0,1,79,39.92Zm-1,4.23a1.49,1.49,0,0,0,.61-.76v-.8H77.05c-.85,0-1.28.3-1.28.89a.85.85,0,0,0,.32.69,1.51,1.51,0,0,0,.91.25A1.8,1.8,0,0,0,78,44.15Z"/><path class="cls-1" d="M83.25,39.6a2.66,2.66,0,0,1,1.25-.26v1h-.23a1.69,1.69,0,0,0-1.29.5,2,2,0,0,0-.47,1.44v2.88h-1V39.39h1v1A1.69,1.69,0,0,1,83.25,39.6Z"/><path class="cls-1" d="M93.67,42.62H89.14a1.87,1.87,0,0,0,.65,1.23,2.13,2.13,0,0,0,1.38.46,2,2,0,0,0,1.61-.7l.56.68a2.53,2.53,0,0,1-1,.69,3.13,3.13,0,0,1-1.25.24,3.2,3.2,0,0,1-1.57-.37,2.61,2.61,0,0,1-1.06-1.05,3.1,3.1,0,0,1-.38-1.53,3,3,0,0,1,.37-1.51,2.6,2.6,0,0,1,1-1,2.76,2.76,0,0,1,1.44-.37,2.71,2.71,0,0,1,1.42.37,2.55,2.55,0,0,1,1,1,3.25,3.25,0,0,1,.36,1.55A2.11,2.11,0,0,1,93.67,42.62Zm-4-1.95a1.9,1.9,0,0,0-.58,1.2h3.59a1.88,1.88,0,0,0-.58-1.19,1.68,1.68,0,0,0-1.21-.46A1.74,1.74,0,0,0,89.72,40.67Z"/><path class="cls-1" d="M94.84,41.72h2.84v.9H94.84Z"/><path class="cls-1" d="M104.56,41.31h1v3a3.66,3.66,0,0,1-1.28.72,4.53,4.53,0,0,1-1.52.25,4.1,4.1,0,0,1-2-.5,3.69,3.69,0,0,1-1.4-1.4,4.16,4.16,0,0,1,0-4,3.65,3.65,0,0,1,1.41-1.4,4.39,4.39,0,0,1,3.63-.2,3.39,3.39,0,0,1,1.23.88l-.65.67a3,3,0,0,0-2.14-.88,3,3,0,0,0-1.51.38,2.69,2.69,0,0,0-1,1,3.05,3.05,0,0,0-.38,1.51,3,3,0,0,0,.38,1.49,2.65,2.65,0,0,0,1,1,2.89,2.89,0,0,0,1.5.38,3.07,3.07,0,0,0,1.72-.48Z"/><path class="cls-1" d="M108.34,44.84a2.63,2.63,0,0,1-1-1.05,3.06,3.06,0,0,1-.38-1.52,3,3,0,0,1,.38-1.51,2.63,2.63,0,0,1,1-1,3.19,3.19,0,0,1,3,0,2.67,2.67,0,0,1,1,1,3,3,0,0,1,.38,1.51,3.06,3.06,0,0,1-.38,1.52,2.67,2.67,0,0,1-1,1.05,3.11,3.11,0,0,1-3,0Zm2.45-.79a1.73,1.73,0,0,0,.67-.72,2.13,2.13,0,0,0,.25-1.06,2.16,2.16,0,0,0-.25-1.06,1.7,1.7,0,0,0-.67-.71,2,2,0,0,0-1.92,0,1.79,1.79,0,0,0-.68.71,2.27,2.27,0,0,0-.24,1.06,2.24,2.24,0,0,0,.24,1.06,1.87,1.87,0,0,0,2.6.72Z"/><path class="cls-1" d="M118.91,39.39l-2.44,5.77h-1L113,39.39H114L116,44l2-4.62Z"/><path class="cls-1" d="M124.72,42.62H120.2a1.81,1.81,0,0,0,.64,1.23,2.13,2.13,0,0,0,1.38.46,2,2,0,0,0,1.61-.7l.56.68a2.53,2.53,0,0,1-1,.69,3.13,3.13,0,0,1-1.25.24,3.2,3.2,0,0,1-1.57-.37,2.61,2.61,0,0,1-1.06-1.05,3.1,3.1,0,0,1-.38-1.53,3.15,3.15,0,0,1,.37-1.51,2.6,2.6,0,0,1,1-1,2.76,2.76,0,0,1,1.44-.37,2.69,2.69,0,0,1,1.42.37,2.55,2.55,0,0,1,1,1,3.25,3.25,0,0,1,.36,1.55A2.11,2.11,0,0,1,124.72,42.62Zm-4-1.95a1.84,1.84,0,0,0-.57,1.2h3.58a1.88,1.88,0,0,0-.58-1.19,1.68,1.68,0,0,0-1.21-.46A1.74,1.74,0,0,0,120.77,40.67Z"/><path class="cls-1" d="M127.89,39.6a2.73,2.73,0,0,1,1.26-.26v1h-.23a1.69,1.69,0,0,0-1.29.5,2,2,0,0,0-.47,1.44v2.88h-1V39.39h1v1A1.72,1.72,0,0,1,127.89,39.6Z"/><path class="cls-1" d="M135.06,40a2.56,2.56,0,0,1,.63,1.87v3.32h-1V42a1.79,1.79,0,0,0-.39-1.26,1.42,1.42,0,0,0-1.12-.43,1.69,1.69,0,0,0-1.29.5,2,2,0,0,0-.48,1.42v3h-1V39.39h1v.87a1.86,1.86,0,0,1,.83-.68,2.76,2.76,0,0,1,1.18-.24A2.28,2.28,0,0,1,135.06,40Z"/><path class="cls-1" d="M146.22,40a2.57,2.57,0,0,1,.61,1.87v3.32h-1V42a1.84,1.84,0,0,0-.37-1.26,1.34,1.34,0,0,0-1.07-.43,1.58,1.58,0,0,0-1.22.5,2,2,0,0,0-.46,1.42v3h-1V42a1.84,1.84,0,0,0-.37-1.26,1.34,1.34,0,0,0-1.07-.43,1.58,1.58,0,0,0-1.22.5,2,2,0,0,0-.46,1.42v3h-1V39.39h1v.86a2,2,0,0,1,.8-.68,2.57,2.57,0,0,1,1.13-.23,2.42,2.42,0,0,1,1.16.27,1.8,1.8,0,0,1,.78.79,2.16,2.16,0,0,1,.88-.78,2.76,2.76,0,0,1,1.27-.28A2.23,2.23,0,0,1,146.22,40Z"/><path class="cls-1" d="M153.75,42.62h-4.53a1.87,1.87,0,0,0,.65,1.23,2.13,2.13,0,0,0,1.38.46,2,2,0,0,0,1.61-.7l.56.68a2.53,2.53,0,0,1-.95.69,3.15,3.15,0,0,1-1.26.24,3.22,3.22,0,0,1-1.57-.37,2.59,2.59,0,0,1-1-1.05,3.1,3.1,0,0,1-.38-1.53,3,3,0,0,1,.37-1.51,2.6,2.6,0,0,1,1-1,2.95,2.95,0,0,1,2.86,0,2.55,2.55,0,0,1,1,1,3.25,3.25,0,0,1,.35,1.55A1.9,1.9,0,0,1,153.75,42.62Zm-3.95-1.95a1.9,1.9,0,0,0-.58,1.2h3.58a1.82,1.82,0,0,0-.57-1.19,1.85,1.85,0,0,0-2.43,0Z"/><path class="cls-1" d="M159.85,40a2.6,2.6,0,0,1,.62,1.87v3.32h-1V42a1.79,1.79,0,0,0-.39-1.26,1.41,1.41,0,0,0-1.11-.43,1.72,1.72,0,0,0-1.3.5,2,2,0,0,0-.47,1.42v3h-1V39.39h1v.87a1.91,1.91,0,0,1,.83-.68,2.81,2.81,0,0,1,1.19-.24A2.29,2.29,0,0,1,159.85,40Z"/><path class="cls-1" d="M165.49,44.82a1.53,1.53,0,0,1-.55.3,2.18,2.18,0,0,1-.67.1,1.72,1.72,0,0,1-1.31-.47,1.79,1.79,0,0,1-.46-1.33V40.25h-.95v-.86h.95V38.13h1v1.26h1.6v.86h-1.6v3.12a1.05,1.05,0,0,0,.22.72.82.82,0,0,0,.65.25,1.2,1.2,0,0,0,.79-.27Z"/><path class="cls-1" d="M24.48,44.82a27.4,27.4,0,0,1-9.6,2.24C9.23,47.12,3.4,45,2,36.37A16.79,16.79,0,0,1,5.91,22c.26-.35.32-.47.81-.1,4.79,3.32,10.39,2.6,19.71,2.6,8.79,0,10.24,6.46,10.37,7.19a9.07,9.07,0,0,1,1.52,1.38c.17-5.55-1.19-13.62-13.88-13.13-8-.15-14.48.35-16.29-.47a14.77,14.77,0,0,1,2.31-2.1c1.68-1.35,2.25-.29,3.61,1,.13-.22.39-.67-.27-2.94-.22-.7.6-.89,2.43-2a51.43,51.43,0,0,1,6.7-3.19c2.76-1.17.68-.31,9.7-4,1-.38,1-1.22,2-3.91.3-.91-.34-.77-1.23-.9C24.52.23,14,.08,8.2,0,4.81-.08,3.81.82,2.88,1.37A5,5,0,0,0,.66,3.78C.6,4.29.09,7.92,2.37,9.49c1.11.73,4,2.59,6.71,4.33.3.18.48.29.25.62a16.65,16.65,0,0,0-3,3.38c-.12.21-.48.76-1,.49S3.9,17.69,2.62,17a4.52,4.52,0,0,0,1.3,2.41c.4.39.76.65.18,1.48C2.48,22.76-.16,29.85,0,35.49c.39,13.18,9.45,16.9,15,16.9,5.12,0,9.46-2.54,13-5A9,9,0,0,1,24.48,44.82ZM4,6.39a9.53,9.53,0,0,0-.92-.6c-.42-.3-.15-.68.37-.76s2.65-.7,9.83-.42c3.39.09,8.11.5,9.72.67.67.09.88.23.92.3-1.68,1.33-6.45,3.14-8.79,4.79-2.57,1.47-2.72,2.32-3.89,1.23C9.81,10.42,6.29,7.83,4,6.39Z"/><path class="cls-2" d="M38.63,38.54A7.43,7.43,0,1,0,31.21,46a7.23,7.23,0,0,0,3-.66l-3.43-7.86,7.47,3.3A7.6,7.6,0,0,0,38.63,38.54Z"/></g></g></g></svg>