<svg xmlns="http://www.w3.org/2000/svg" width="162.96" height="53.47" viewBox="0 0 162.96 53.47"><defs><style>.cls-1,.cls-2{fill:#fff;}.cls-2{fill-rule:evenodd;}</style></defs><g id="Layer_2" data-name="Layer 2"><g id="Hukoomi_logos" data-name="Hukoomi logos"><g id="P8"><path class="cls-1" d="M3.32,40.71v1.12H4.41V40.71Zm-1.87,0v1.12H2.54V40.71Z"/><path class="cls-1" d="M7.83,49.15v1.11H8.91V49.15ZM6,49.15v1.11H7V49.15Z"/><path class="cls-1" d="M12,41.58v1.1H13.1v-1.1Z"/><path class="cls-1" d="M12,43.59v2.33a2.15,2.15,0,0,1-.08.71.71.71,0,0,1-.71.33H8.71A1.82,1.82,0,0,0,9,45.81V43.59H7.86v2.28a1.9,1.9,0,0,1-.12.75.7.7,0,0,1-.67.34H5.61c-.74,0-1.11-.42-1.11-1.19V42.63H2.06C.79,42.63,0,43.55,0,45a2.07,2.07,0,0,0,2.06,2.32,1.49,1.49,0,0,0,1.26-.74,1.85,1.85,0,0,0,1.79,1.47h6.34c1.11,0,1.66-.59,1.66-1.79V43.59ZM3.35,44.93c0,.84-.43,1.51-1.16,1.51S1.1,45.79,1.1,45c0-.92.48-1.54,1.25-1.54h1Z"/><path class="cls-1" d="M18.33,48c0,1.18-.72,1.78-2.15,1.78v-.89c.69,0,1-.48,1.06-1.26a1.11,1.11,0,0,1-1,.51,2.26,2.26,0,1,1,2.14-2.23Zm-1.14-2.07c0-.77-.42-1.29-1.05-1.29s-1,.57-1,1.24a1.13,1.13,0,0,0,1,1.26A1.11,1.11,0,0,0,17.19,45.88Z"/><path class="cls-1" d="M24.69,41.57v1.1h1.09v-1.1Zm-1.88,0v1.1H23.9v-1.1Z"/><path class="cls-1" d="M37.45,41.7v4.6c0,1.2-.56,1.79-1.66,1.79H21.47c-.16,1.06-1.07,1.64-2.41,1.64v-.95c.92,0,1.37-.45,1.37-1.4V43.59h1.11V47H23.9a.69.69,0,0,0,.67-.34,1.94,1.94,0,0,0,.11-.75V43.59h1.1v2.22A1.9,1.9,0,0,1,25.54,47h7A2.42,2.42,0,0,0,32,45.38a2.1,2.1,0,0,0-1.71-.75H28L30,41.7H31.3L30,43.59h.48a3.43,3.43,0,0,1,1.82.48A3.39,3.39,0,0,1,33.75,47h1.81a.7.7,0,0,0,.7-.33,2.15,2.15,0,0,0,.08-.71V41.7Z"/><path class="cls-1" d="M43.17,41.7v4.83a1.54,1.54,0,0,1-1.74,1.56h-3V47H40L38.73,42.4H39.9L41.14,47a.91.91,0,0,0,.68-.22,1.3,1.3,0,0,0,.27-1V41.7Zm-2.93,8.42H38.53v-.45h.39a1.87,1.87,0,0,1-.09-.35.79.79,0,0,1,.78-.82.67.67,0,0,1,.62.45l-.36.17a.25.25,0,0,0-.27-.22.37.37,0,0,0-.34.39.41.41,0,0,0,.18.38h.8Z"/><path class="cls-1" d="M45.31,48.09h-1.1v-6.4h1.1Z"/><path class="cls-1" d="M65.44,41.55v1.1h1.09v-1.1Zm-1.87,0v1.1h1.07v-1.1Z"/><path class="cls-1" d="M65.05,43.49a2.17,2.17,0,0,0-2.24,2.29A2.37,2.37,0,0,0,63.1,47H60.65c0-2.25-.9-3.39-2.57-3.39a3.7,3.7,0,0,0-2.92,1.72l.14-3.59H54.21V47H50.9V43.59H49.8v3.79a1.22,1.22,0,0,1-1.38,1.4v.95c1.35,0,2.25-.58,2.42-1.64H65.05a2.16,2.16,0,0,0,2.22-2.28A2.2,2.2,0,0,0,65.05,43.49ZM59.5,47H55.07A3.7,3.7,0,0,1,58,44.56c1,0,1.53.82,1.53,2.08C59.51,46.75,59.51,46.85,59.5,47Zm5.57.11A1.19,1.19,0,0,1,64,45.77c0-.77.42-1.27,1.06-1.27a1.18,1.18,0,0,1,1.12,1.31A1.12,1.12,0,0,1,65.07,47.07Z"/><path class="cls-1" d="M73.6,40.71v1.12h1.08V40.71Zm-1.88,0v1.12h1.09V40.71Z"/><path class="cls-1" d="M79.86,44.37a2.17,2.17,0,0,0-2.24,2.27c0,.09,0,.18,0,.27V47H75.89c-.75,0-1.12-.42-1.12-1.19V42.63H72.33c-1.27,0-2.06.92-2.06,2.41a2.07,2.07,0,0,0,2.06,2.32,1.52,1.52,0,0,0,1.27-.74,1.84,1.84,0,0,0,1.79,1.47h2.68a2.1,2.1,0,0,0,1.79.89,2.31,2.31,0,0,0,0-4.61Zm-6.23.56c0,.84-.44,1.51-1.17,1.51s-1.09-.65-1.09-1.41c0-.92.48-1.54,1.26-1.54h1Zm6.26,3a1.19,1.19,0,0,1-1.13-1.31,1.13,1.13,0,0,1,1.07-1.26A1.18,1.18,0,0,1,81,46.68,1.11,1.11,0,0,1,79.89,47.94Z"/><path class="cls-1" d="M101.42,44.14a3.43,3.43,0,0,0-3.22-.27,3.64,3.64,0,0,0-1,.7c.24.38.42.66.53.87a2.59,2.59,0,0,1,.89-.62,2.18,2.18,0,0,1,.83-.19,2.1,2.1,0,0,1,1.71.75,2.51,2.51,0,0,1,.51,1.58H95a3.18,3.18,0,0,0-3.3-3.37h-.48l1.33-1.89H91.24l-1.95,2.93h2.29a2.14,2.14,0,0,1,1.72.75A2.47,2.47,0,0,1,93.83,47H87.31V45.81a2.07,2.07,0,0,0-2.07-2.23A2.13,2.13,0,0,0,83,45.78a2.23,2.23,0,0,0,2.17,2.31h1.06a1,1,0,0,1-1.1.77v.86c1.29,0,2-.54,2.16-1.63h15.52v-.7A3.6,3.6,0,0,0,101.42,44.14ZM86.19,47h-1a1.15,1.15,0,0,1-1.06-1.24,1,1,0,0,1,1.07-1.12,1,1,0,0,1,1,1Z"/><path class="cls-1" d="M12.66,33.36v3.21h3.18V33.36Zm-5.46,0v3.21h3.18V33.36Z"/><path class="cls-1" d="M26,25.37h0Z"/><path class="cls-1" d="M36.47,14.52a6.33,6.33,0,0,0-6.53,6.65A6.83,6.83,0,0,0,30,22l0,.14H25.69c-1.64,0-2.77-.83-4-3A6.16,6.16,0,0,0,16,15.65H14.74v3a3.08,3.08,0,0,1,.52,0,2.8,2.8,0,0,1,2.92,3.06c0,2.95-2.83,5.43-6.59,5.43-4.18,0-6.79-2.8-6.79-7.28V16.92H1.57v3.24a9.84,9.84,0,0,0,9.93,10c4.72,0,8.58-2.83,9.51-7.34,1.22,1.83,2.16,2.44,5,2.53h5.2A6.12,6.12,0,0,0,36.47,28a6.32,6.32,0,0,0,6.47-6.67A6.43,6.43,0,0,0,36.47,14.52ZM36.55,25c-1.93,0-3.29-1.65-3.29-3.81s1.3-3.7,3.12-3.7,3.24,1.65,3.24,3.85S38.35,25,36.55,25Z"/><path class="cls-1" d="M99.34,13.86A10,10,0,0,0,90,13.08a10.81,10.81,0,0,0-3.09,2.05c.72,1.1,1.24,1.93,1.56,2.54A7,7,0,0,1,91,15.85a6.28,6.28,0,0,1,2.43-.55,6,6,0,0,1,5,2.2,7.14,7.14,0,0,1,1.5,4.59H80.64q-.39-6-4.33-8.43A10.09,10.09,0,0,0,71,12.27H69.61L73.5,6.75H69.67L64,15.3h6.68a6.1,6.1,0,0,1,5,2.2,7,7,0,0,1,1.57,4.59h-19V18.74c0-3.79-2.48-6.5-6-6.5a6.22,6.22,0,0,0-6.47,6.42A6.46,6.46,0,0,0,52,25.38H55.1a3,3,0,0,1-3.2,2.23v2.54c3.75,0,5.86-1.58,6.29-4.77h45.24v-2C103.43,18.83,102.08,15.68,99.34,13.86ZM54.93,22.09H52.07A3.36,3.36,0,0,1,49,18.48a3,3,0,0,1,3.13-3.27c1.68,0,2.66,1.22,2.83,2.92Z"/><path class="cls-1" d="M143.41,45.89A27.68,27.68,0,0,1,134,48c-5.77.06-11.72-2.16-13.18-10.91a17.13,17.13,0,0,1,4-14.66c.27-.36.32-.48.82-.1,4.89,3.39,10.61,2.66,20.12,2.65s10.6,7.41,10.6,7.41l.1.48a9,9,0,0,1,1.41,1.42c.27-5.68-.76-14.47-14.14-14-8.22-.15-14.77.36-16.62-.47a13.6,13.6,0,0,1,2.36-2.15c1.71-1.38,2.29-.3,3.68,1.06.13-.22.4-.68-.28-3-.22-.72.61-.91,2.48-2.05a51,51,0,0,1,6.84-3.26c2.82-1.19.69-.32,9.9-4,1-.39,1.07-1.24,2-4,.3-.93-.34-.79-1.25-.92C143.81.24,133.05.08,127.15,0c-3.45-.09-4.47.83-5.43,1.39a5.15,5.15,0,0,0-2.26,2.45c-.06.52-.58,4.23,1.74,5.84l6.85,4.41c.31.18.5.3.26.64a16.82,16.82,0,0,0-3.09,3.45c-.13.21-.5.77-1,.49s-1.41-.63-2.72-1.3a4.68,4.68,0,0,0,1.33,2.46c.4.4.77.66.19,1.51-1.66,1.87-4.36,9.11-4.18,14.87.4,13.45,9.64,17.24,15.25,17.25,5.07,0,9.38-2.44,12.9-4.87A9.26,9.26,0,0,1,143.41,45.89ZM122.9,6.52a8.06,8.06,0,0,0-.94-.61c-.43-.31-.15-.7.38-.78s2.7-.71,10-.43c3.46.1,8.28.52,9.92.69.69.09.9.23.94.31-1.71,1.35-6.58,3.2-9,4.88-2.62,1.51-2.77,2.37-4,1.25C128.8,10.63,125.21,8,122.9,6.52Z"/><path class="cls-2" d="M158.22,39.33a7.58,7.58,0,1,0-7.58,7.58,7.41,7.41,0,0,0,3.12-.68l-3.5-8,7.62,3.37A7.61,7.61,0,0,0,158.22,39.33Z"/><path class="cls-2" d="M163,50.84l-.47.47-3.71-3.67-1.45,3.07-4.56-9.8,9.72,4.28-3,1.93Z"/></g></g></g></svg>