<svg xmlns="http://www.w3.org/2000/svg" width="21" height="21" viewBox="0 0 21 21">
    <g fill="none" fill-rule="evenodd" stroke="#FFF" stroke-linecap="round" stroke-linejoin="round" stroke-width="1.3" opacity=".8">
        <path d="M17.906 14.926v2.496c0 .58-.47 1.05-1.05 1.05H1.324c-.58 0-1.05-.47-1.05-1.05V7.207c0-.58.47-1.05 1.05-1.05h15.532c.58 0 1.05.47 1.05 1.05v3.428" transform="translate(1 1)"/>
        <path d="M18.023 13.573h-4.525c-.477 0-.863-.386-.863-.863v-1.212c0-.477.386-.863.863-.863h4.525c.475 0 .863.386.863.863v1.212c0 .477-.388.863-.863.863zM13.941 12.105L14.361 12.105M7.212 5.226L10.657.274 16.146 4.092 15.244 5.388M4.332 5.226L7.776.274 9.09 1.188" transform="translate(1 1)"/>
    </g>
</svg>
