<svg xmlns="http://www.w3.org/2000/svg" width="72" height="72" viewBox="0 0 72 72">
    <g fill="none" fill-rule="evenodd">
        <circle cx="36" cy="36" r="36" fill="#B51647"/>
        <g stroke="#FFF" stroke-linecap="round" stroke-linejoin="round" stroke-width="1.5">
            <path d="M5.254 24.663c-.411.102-.827.184-1.23.311-.356.113-.692.285-1.042.423-.348.136-.635.024-.776-.316-.55-1.313-1.096-2.63-1.636-3.946-.147-.355-.022-.638.334-.79.33-.141.661-.273.992-.412 1.267-.532 2.08-1.748 2.08-3.136.002-1.506-.666-2.595-2.042-3.229-.326-.15-.662-.275-.992-.413-.402-.17-.523-.445-.36-.84.536-1.3 1.074-2.601 1.616-3.899.147-.353.428-.469.791-.329.342.134.678.28 1.018.42 2.297.94 4.381-.815 4.698-2.642.115-.657.041-1.29-.212-1.905-.134-.323-.273-.644-.401-.97-.143-.358-.03-.646.324-.794C9.72 1.652 11.028 1.11 12.338.572c.367-.15.651-.024.808.341.136.321.265.648.402.969.57 1.332 1.756 2.091 3.258 2.086 1.432-.006 2.584-.774 3.138-2.097.135-.323.264-.648.402-.97.15-.35.435-.477.792-.332 1.317.539 2.632 1.084 3.946 1.632.337.143.45.43.315.78-.138.356-.302.705-.435 1.066-.514 1.391-.227 2.62.815 3.66 1.042 1.044 2.278 1.31 3.666.811.346-.123.678-.28 1.018-.418.402-.162.676-.05.843.35.534 1.283 1.066 2.568 1.595 3.852.163.397.044.681-.348.849-.337.144-.683.268-1.015.423-1.286.6-1.99 1.604-2.016 3.032-.033 1.662.714 2.765 2.244 3.398.276.113.552.225.826.344.339.147.468.43.33.774-.544 1.324-1.093 2.648-1.645 3.967-.138.33-.42.442-.757.311-.351-.134-.692-.292-1.042-.426-1.353-.51-2.574-.281-3.618.719-1.097 1.05-1.415 2.313-.889 3.759.126.344.28.678.416 1.02.154.386.038.665-.345.824-1.284.536-2.567 1.066-3.85 1.596-.422.174-.687.063-.863-.353-.14-.33-.262-.667-.413-.992-.607-1.31-1.646-1.996-3.08-2.036-1.497-.04-2.589.627-3.239 1.982-.166.345-.296.709-.447 1.06-.167.394-.434.512-.822.353-1.3-.536-2.599-1.074-3.896-1.616-.37-.153-.48-.432-.339-.809.203-.541.475-1.07.595-1.63.497-2.29-1.562-4.19-3.418-4.124l-.016-.064z" transform="translate(19 19)"/>
            <path d="M13.3 17.382L14.955 19.307 20.176 14.188" transform="translate(19 19)"/>
            <path d="M24.701 16.76c0-4.324-3.52-7.943-7.726-7.944-3.524-.003-8.152 2.487-8.19 7.913-.032 4.342 3.504 7.94 7.74 7.939 4.528 0 8.178-3.53 8.176-7.909z" transform="translate(19 19)"/>
        </g>
    </g>
</svg>
