<svg xmlns="http://www.w3.org/2000/svg" width="25" height="25" viewBox="0 0 25 25">
    <g fill="none" fill-rule="evenodd" stroke-linecap="round" stroke-linejoin="round">
        <g stroke="#CD4A04" stroke-width="1.2">
            <g>
                <g>
                    <path d="M11.751 476.243h11.023m-8.676-1.752l-2.347 1.752 2.347 1.835m1.114-4.997c-.883-.968-2.163-1.566-3.616-1.565-2.941-.063-4.933 2.595-4.93 4.876.001 2.247 1.977 4.91 4.944 4.868 1.604-.021 3.004-.76 3.885-1.92m7.279-1.485c-.112.18-.204.376-.34.537-.244.287-.573.381-.95.386-.543.007-1.073.103-1.562.36-.393.204-.594.524-.588.98.005.367.099.702.303 1.001.238.346.5.677.745 1.02.304.422.285.94-.041 1.343-.552.685-1.189 1.282-1.879 1.83-.272.217-.538.296-.878.267-.236-.019-.405-.113-.583-.255-.482-.394-.96-.8-1.598-.932-.399-.084-.764-.001-1.026.281-.21.226-.382.522-.473.816-.124.398-.179.823-.216 1.24-.024.271-.082.506-.3.664-.2.143-.422.255-.634.38h-2.733c-.586-.176-.94-.528-.97-1.18-.018-.366-.11-.731-.191-1.092-.197-.887-1.083-1.507-2.113-.881-.358.218-.694.476-1.023.735-.403.316-.917.34-1.33.033-.788-.586-1.5-1.256-2.09-2.042-.102-.137-.152-.33-.176-.503-.044-.32.11-.569.306-.822.316-.41.64-.836.855-1.302.362-.789.056-1.45-.765-1.716-.395-.128-.82-.2-1.236-.221-.648-.034-1.074-.32-1.288-.927v-2.835c.176-.59.53-.93 1.182-.973.432-.028.862-.146 1.285-.255.372-.096.663-.328.845-.675.21-.398.148-.806-.06-1.163-.262-.448-.576-.868-.895-1.28-.297-.386-.342-.872-.04-1.25.598-.756 1.265-1.445 2.044-2.019.456-.334.98-.316 1.41.064.396.347.818.652 1.306.854.606.251 1.199.075 1.539-.482.12-.198.211-.425.261-.651.092-.41.13-.832.217-1.243.036-.172.13-.335.217-.492.197-.358.585-.348.912-.455h2.328c.045.021.088.054.136.063.652.124.936.451 1 1.109.035.351.083.705.18 1.042.342 1.22 1.187 1.546 2.27.875.327-.203.624-.456.929-.693.328-.255.908-.3 1.217-.066.81.612 1.531 1.314 2.147 2.122.08.104.187.233.181.345-.022.362-.042.714-.33 1.022-.317.34-.59.74-.802 1.155-.31.608-.218 1.508.786 1.804.481.141.982.232 1.48.29.292.035.528.124.694.35" transform="translate(-173 -681) translate(151 203) translate(23 14)"/>
                </g>
            </g>
        </g>
    </g>
</svg>
