<svg xmlns="http://www.w3.org/2000/svg" width="18" height="22" viewBox="0 0 18 22">
    <g fill="none" fill-rule="evenodd" stroke-linecap="round" stroke-linejoin="round">
        <g stroke="#CD4A04">
            <g>
                <g>
                    <path d="M15.13 20.193H1.1c-.442 0-.8-.358-.8-.8V1.1c0-.442.358-.8.8-.8h14.03c.442 0 .8.358.8.8v18.293c0 .442-.358.8-.8.8z" transform="translate(-177 -531) translate(151 203) translate(27 329)"/>
                    <path d="M14.108 9.826s-2.683 3.197-5.993 3.197c-3.31 0-5.993-3.197-5.993-3.197s2.683-3.198 5.993-3.198c3.31 0 5.993 3.198 5.993 3.198z" transform="translate(-177 -531) translate(151 203) translate(27 329)"/>
                    <path d="M9.596 9.313c.055.161.084.333.084.513 0 .865-.7 1.566-1.565 1.566s-1.566-.701-1.566-1.566c0-.865.701-1.566 1.566-1.566.319 0 .616.095.864.259" transform="translate(-177 -531) translate(151 203) translate(27 329)"/>
                </g>
            </g>
        </g>
    </g>
</svg>
