<svg xmlns="http://www.w3.org/2000/svg" width="24" height="23" viewBox="0 0 24 23">
    <g fill="none" fill-rule="evenodd" stroke-linecap="round" stroke-linejoin="round">
        <g stroke="#CD4A04" stroke-width="1.3">
            <g>
                <g>
                    <g>
                        <path d="M6.978 16.658c0 1.843-1.493 3.337-3.336 3.337-1.843 0-3.336-1.494-3.336-3.337 0-1.843 1.493-3.337 3.336-3.337 1.843 0 3.336 1.494 3.336 3.337zM21.803 16.658c0 1.843-1.494 3.337-3.337 3.337-1.842 0-3.336-1.494-3.336-3.337 0-1.843 1.494-3.337 3.336-3.337 1.843 0 3.337 1.494 3.337 3.337zM14.647 3.642c0 1.843-1.494 3.336-3.337 3.336-1.842 0-3.336-1.493-3.336-3.336 0-1.843 1.494-3.337 3.336-3.337 1.843 0 3.337 1.494 3.337 3.337z" transform="translate(-174 -280) translate(151 203) translate(23 14) translate(1 64)"/>
                        <path d="M20.046 11.84c0-3.327-1.86-6.22-4.596-7.694 0 0-.546-.307-.812-.282M6.604 4.479c-2.423 1.552-4.03 4.269-4.03 7.36 0 .24.01.478.03.713 0 0 .069.913.165.887M7.81 19.845c1.072.47 2.256.73 3.5.73 1.479 0 2.871-.367 4.091-1.016l.657-.445" transform="translate(-174 -280) translate(151 203) translate(23 14) translate(1 64)"/>
                    </g>
                </g>
            </g>
        </g>
    </g>
</svg>
