<svg xmlns="http://www.w3.org/2000/svg" width="24" height="21" viewBox="0 0 24 21">
    <g fill="none" fill-rule="evenodd" stroke-linecap="round" stroke-linejoin="round">
        <g stroke="#CD4A04" stroke-width="1.2">
            <g>
                <g>
                    <g>
                        <path d="M13.035 8.924L13.035 0.284 8.937 0.284 8.937 8.924 5.864 8.924 10.827 14.205 16.108 8.924z" transform="translate(-174 -632) translate(151 203) translate(23 14) translate(1 416)"/>
                        <path d="M15.683 12.609h5.037c.534 0 .968.432.968.966v4.793c0 .534-.434.967-.968.967H1.252c-.535 0-.967-.433-.967-.967v-4.793c0-.534.432-.966.967-.966h4.612" transform="translate(-174 -632) translate(151 203) translate(23 14) translate(1 416)"/>
                    </g>
                </g>
            </g>
        </g>
    </g>
</svg>
