<svg xmlns="http://www.w3.org/2000/svg" width="35" height="35" viewBox="0 0 35 35">
    <g fill="none" fill-rule="evenodd">
        <circle cx="17.5" cy="17.5" r="17" fill="#FFF" stroke="#E6E6E6"/>
        <path fill="#B51647" fill-rule="nonzero" d="M20.019 14.423h4.714c.814 0 1.474.66 1.474 1.474v1.55c0 .192-.037.383-.11.56l-2.28 5.537c-.114.276-.384.456-.682.456H10.737c-.407 0-.737-.33-.737-.737v-7.366c0-.407.33-.737.737-.737h2.565c.24 0 .464-.116.602-.312l4.017-5.692c.105-.149.302-.198.465-.117l1.337.668c.774.387 1.175 1.262.961 2.102l-.665 2.614zM14.42 16.33v6.197h8.221l2.092-5.08v-1.55H20.02c-.455 0-.884-.21-1.163-.57-.28-.359-.377-.826-.265-1.267l.665-2.614c.043-.168-.037-.343-.192-.42l-.487-.243-3.47 4.915c-.184.26-.42.474-.687.632zm-1.473.303h-1.474v5.894h1.474v-5.894z"/>
    </g>
</svg>
