<svg xmlns="http://www.w3.org/2000/svg" width="40" height="40" viewBox="0 0 40 40">
    <g fill="none" fill-rule="evenodd">
        <rect width="40" height="40" fill="#000" opacity=".5" rx="8"/>
        <path fill="#FFF" fill-rule="nonzero" d="M29.325 17.978l-4.714-4.8c-.117-.119-.255-.178-.414-.178-.16 0-.298.06-.415.178-.116.119-.175.26-.175.422V16h-2.062c-4.377 0-7.063 1.26-8.057 3.778-.325.838-.488 1.878-.488 3.122 0 1.038.39 2.447 1.17 4.228l.096.225c.046.106.087.2.124.281.037.082.077.15.12.206.074.107.16.16.258.16.092 0 .164-.031.216-.094.052-.062.078-.14.078-.234 0-.056-.007-.139-.023-.248-.015-.11-.023-.183-.023-.22-.03-.426-.046-.81-.046-1.154 0-.63.054-1.197.161-1.697.108-.5.257-.932.447-1.298s.436-.681.737-.947c.3-.265.624-.483.971-.651.347-.17.755-.302 1.225-.399.47-.097.942-.164 1.418-.201.475-.038 1.014-.057 1.616-.057h2.062v2.4c0 .163.058.304.175.422.117.119.255.178.414.178.16 0 .298-.06.415-.178l4.714-4.8c.117-.119.175-.26.175-.422 0-.162-.058-.303-.175-.422z"/>
    </g>
</svg>
