<svg xmlns="http://www.w3.org/2000/svg" width="25" height="24" viewBox="0 0 25 24">
    <g fill="none" fill-rule="evenodd" stroke-linecap="round" stroke-linejoin="round">
        <g stroke="#CD4A04">
            <g>
                <g>
                    <g>
                        <path d="M7.282 9.657H4.6l-2.971 2.488-.066-2.488C.89 9.657.345 9.112.345 8.44V1.562C.345.891.89.345 1.563.345h9.659c.673 0 1.218.546 1.218 1.217v4.285" transform="translate(-173 -579) translate(151 203) translate(23 14) translate(0 363)"/>
                        <path d="M9.271 18.989h8.163l3.66 3.067.082-3.067c.83 0 1.5-.671 1.5-1.501V9.013c0-.828-.67-1.5-1.5-1.5H9.271c-.828 0-1.5.672-1.5 1.5v8.475c0 .83.672 1.5 1.5 1.5z" transform="translate(-173 -579) translate(151 203) translate(23 14) translate(0 363)"/>
                        <path d="M17.871 16.022c-.25.038-.5.096-.75.11-.603.029-1.207.072-1.806.044-.6-.027-1.161-.221-1.644-.596-.553-.428-.715-1.122-.378-1.67.226-.362.553-.628.904-.862.672-.45 1.41-.719 2.22-.789h.258v-.655c-.633 0-1.242-.003-1.852 0-.496.003-.991.005-1.487.02-.093.003-.214.042-.274.106-.233.257-.376.569-.485.905M14.844 9.882l.559.427M3.542 3.205L9.238 3.205M3.542 5.436L6.393 5.436" transform="translate(-173 -579) translate(151 203) translate(23 14) translate(0 363)"/>
                    </g>
                </g>
            </g>
        </g>
    </g>
</svg>
