<svg xmlns="http://www.w3.org/2000/svg" width="22" height="23" viewBox="0 0 22 23">
    <g fill="none" fill-rule="evenodd" stroke-linecap="round" stroke-linejoin="round">
        <g stroke="#CD4A04">
            <g>
                <g>
                    <g>
                        <path d="M18.846 21.099H1.196c-.481 0-.87-.39-.87-.87V9.075c0-.48.389-.87.87-.87h17.65c.48 0 .87.39.87.87V20.23c0 .48-.39.87-.87.87z" transform="translate(-175 -378) translate(151 203) translate(23 14) translate(2 162)"/>
                        <path d="M1.73 6.977L5.335.732c.224-.388.722-.521 1.11-.296l12.717 7.83M6.946 13.071c0 1.206-.977 2.184-2.183 2.184-1.204 0-2.183-.978-2.183-2.184 0-1.206.979-2.183 2.183-2.183 1.206 0 2.183.977 2.183 2.183z" transform="translate(-175 -378) translate(151 203) translate(23 14) translate(2 162)"/>
                        <path d="M9.389 13.071c0 1.206-.978 2.184-2.184 2.184-1.204 0-2.182-.978-2.182-2.184 0-.432.125-.835.342-1.174.194-.303.46-.555.776-.732.315-.176.678-.277 1.064-.277 1.206 0 2.184.977 2.184 2.183zM13.94 7.074L6.253 3.015 5.286 4.64 9.613 6.9M3.213 18.36L10.835 18.36" transform="translate(-175 -378) translate(151 203) translate(23 14) translate(2 162)"/>
                    </g>
                </g>
            </g>
        </g>
    </g>
</svg>
