<svg xmlns="http://www.w3.org/2000/svg" width="23" height="21" viewBox="0 0 23 21">
    <g fill="none" fill-rule="evenodd" stroke-linecap="round" stroke-linejoin="round">
        <g fill="#6E6259" fill-rule="nonzero" stroke="#6E6259" stroke-width=".4">
            <g>
                <g>
                    <g>
                        <path d="M14.56 2.956H6.31c-.195 0-.365.17-.365.364 0 .194.17.364.364.364h8.25c.195 0 .364-.17.364-.364 0-.219-.145-.364-.364-.364zM14.56 5.804H6.31c-.195 0-.365.17-.365.364 0 .194.17.364.364.364h8.25c.195 0 .364-.17.364-.364 0-.218-.145-.364-.364-.364z" transform="translate(-498 -586) translate(443 203) translate(32 357) translate(24 27)"/>
                        <path d="M20.65 6.163c-.024-.12-.097-.218-.194-.29L17.47 4.634V.364c0-.194-.17-.364-.364-.364H3.761c-.194 0-.364.17-.364.364v4.27L.461 5.849c-.146.024-.243.17-.243.34v12.23c0 .194.17.364.364.364h19.704c.194 0 .364-.17.364-.364V6.163zM1.36 6.236l2.038-.849v2.111L1.36 6.236zM17.47 7.474V5.363l2.039.849-2.039 1.262zM4.125 7.91V.704h12.618v7.182l-6.309 3.834-6.309-3.81zm15.797-1.092v11.235H.946V6.819l9.318 5.63c.073.048.122.048.17.048.049 0 .097 0 .194-.049l9.294-5.63z" transform="translate(-498 -586) translate(443 203) translate(32 357) translate(24 27)"/>
                    </g>
                </g>
            </g>
        </g>
    </g>
</svg>
