<svg xmlns="http://www.w3.org/2000/svg" width="24" height="24" viewBox="0 0 24 24">
    <g fill="none" fill-rule="evenodd" stroke-linecap="round" stroke-linejoin="round">
        <g stroke="#CD4A04" stroke-width="1.2">
            <g>
                <g>
                    <path d="M12.183 72.169l2.42-.16-.111-2.702-2.309 2.862zm2.361-.442c-.844-.927-2.068-1.497-3.457-1.496-2.813-.062-4.716 2.48-4.714 4.661.001 2.148 1.89 4.694 4.727 4.655 1.534-.021 2.873-.727 3.714-1.836M0 76.29V73.58c.17-.562.506-.89 1.13-.93.413-.027.824-.14 1.227-.243.359-.093.634-.314.81-.646.2-.38.141-.771-.059-1.112-.25-.428-.55-.83-.854-1.224-.284-.368-.327-.833-.04-1.195.573-.723 1.21-1.382 1.956-1.93.436-.32.936-.302 1.35.06.376.333.78.625 1.246.818.58.24 1.146.07 1.471-.46.116-.19.203-.407.25-.624.088-.392.124-.795.207-1.188.035-.164.125-.32.207-.47.19-.343.56-.333.873-.436H12c.043.021.084.052.13.06.624.119.895.432.956 1.061.033.335.08.673.17.997.33 1.165 1.137 1.477 2.172.837.313-.195.597-.437.888-.664.314-.244.869-.286 1.164-.063.774.585 1.463 1.257 2.053 2.029.075.099.178.223.172.33-.02.347-.04.682-.314.977-.302.326-.564.708-.767 1.104-.297.581-.209 1.442.75 1.724.461.137.94.223 1.416.279.28.033.506.119.663.333.13.176.216.383.321.576v2.71c-.107.172-.196.361-.325.515-.234.274-.548.363-.908.368-.52.007-1.027.099-1.494.343-.376.197-.567.503-.562.938.005.351.094.673.29.957.228.332.478.648.712.976.29.403.272.898-.04 1.284-.527.656-1.136 1.225-1.794 1.75-.261.207-.516.283-.841.255-.226-.019-.389-.108-.557-.245-.462-.375-.918-.764-1.529-.891-.38-.08-.73 0-.98.27-.201.215-.365.498-.453.78-.118.38-.17.786-.206 1.186-.024.258-.079.482-.288.633-.19.138-.403.245-.605.364H9.581c-.561-.168-.899-.504-.928-1.128-.016-.35-.105-.7-.182-1.044-.189-.848-1.036-1.441-2.02-.842-.342.208-.663.455-.979.702-.384.303-.876.326-1.272.032-.754-.561-1.431-1.2-1.996-1.952-.098-.13-.148-.315-.17-.482-.041-.305.106-.543.293-.785.302-.393.612-.798.816-1.245.347-.754.054-1.385-.73-1.64-.378-.123-.784-.191-1.182-.211C.61 77.146.204 76.873 0 76.29z" transform="translate(-173 -280) translate(151 203) translate(23 14)"/>
                </g>
            </g>
        </g>
    </g>
</svg>
