<svg xmlns="http://www.w3.org/2000/svg" width="17" height="18" viewBox="0 0 17 18">
    <g fill="none" fill-rule="evenodd">
        <g fill="#B51647" fill-rule="nonzero" stroke="#B51647" stroke-width=".3">
            <g>
                <g>
                    <path d="M495.475 30.825l-3.874-4.029c.996-1.184 1.542-2.674 1.542-4.225 0-3.623-2.948-6.571-6.572-6.571-3.623 0-6.571 2.948-6.571 6.571 0 3.624 2.948 6.572 6.571 6.572 1.36 0 2.657-.41 3.765-1.19l3.903 4.06c.164.17.383.263.618.263.223 0 .434-.085.594-.24.34-.327.352-.87.024-1.211zm-8.904-13.11c2.679 0 4.858 2.178 4.858 4.856 0 2.679-2.18 4.858-4.858 4.858-2.678 0-4.857-2.18-4.857-4.858 0-2.678 2.18-4.857 4.857-4.857z" transform="translate(-954 -247) translate(443 203) translate(32 29)"/>
                </g>
            </g>
        </g>
    </g>
</svg>
