<?xml version="1.0" encoding="UTF-8"?>
<svg width="1442px" height="742px" viewBox="0 0 1442 742" version="1.1" xmlns="http://www.w3.org/2000/svg" xmlns:xlink="http://www.w3.org/1999/xlink">
    <title>ic_about_hero_section_bg</title>
    <defs>
        <rect id="path-1" x="0" y="0" width="1442" height="742"></rect>
    </defs>
    <g id="Page-1" stroke="none" stroke-width="1" fill="none" fill-rule="evenodd">
        <g id="01-About-Qatar" transform="translate(0.000000, -120.000000)">
            <g id="Group-6" transform="translate(0.000000, 120.000000)">
                <g id="ic_about_hero_section_bg">
                    <mask id="mask-2" fill="white">
                        <use xlink:href="#path-1"></use>
                    </mask>
                    <use id="Mask" fill="#F1F1F1" xlink:href="#path-1"></use>
                    <path d="M1374.83492,742.5 C1385.38177,745.277839 1398.22645,757.284258 1398.49569,757.536717 L1398.5,757.540758 C1398.5,757.540758 1391.0867,769.743341 1387.38005,774 C1375.45229,762.601426 1364,758.108152 1364,758.108152 C1364,758.108152 1368.56175,750.729621 1374.83492,742.5 Z M1422.16508,742.5 C1428.43825,750.729621 1433,758.108152 1433,758.108152 C1433,758.108152 1421.54771,762.601426 1409.61995,774 C1405.9133,769.743341 1398.5,757.540758 1398.5,757.540758 C1398.5,757.540758 1411.50603,745.307391 1422.16508,742.5 Z M1479.61995,742.5 C1491.54771,753.898574 1503,758.391848 1503,758.391848 C1503,758.391848 1498.43825,765.770379 1492.16508,774 C1481.50603,771.192609 1468.5,758.959242 1468.5,758.959242 C1468.5,758.959242 1475.9133,746.756659 1479.61995,742.5 Z M1457.38005,742.5 C1461.03661,746.699136 1468.30032,758.630893 1468.49597,758.952607 L1468.5,758.959242 C1468.5,758.959242 1455.49397,771.192609 1444.83492,774 C1438.56175,765.770379 1434,758.391848 1434,758.391848 C1434,758.391848 1445.45229,753.898574 1457.38005,742.5 Z M1374.83492,711 C1385.38177,713.777839 1398.22645,725.784258 1398.49569,726.036717 L1398.5,726.040758 C1398.5,726.040758 1391.0867,738.243341 1387.38005,742.5 C1375.45229,731.101426 1364,726.608152 1364,726.608152 C1364,726.608152 1368.56175,719.229621 1374.83492,711 Z M1422.16508,711 C1428.43825,719.229621 1433,726.608152 1433,726.608152 C1433,726.608152 1421.54771,731.101426 1409.61995,742.5 C1405.9133,738.243341 1398.5,726.040758 1398.5,726.040758 C1398.5,726.040758 1411.50603,713.807391 1422.16508,711 Z M1479.61995,711 C1491.54771,722.398574 1503,726.891848 1503,726.891848 C1503,726.891848 1498.43825,734.270379 1492.16508,742.5 C1481.50603,739.692609 1468.5,727.459242 1468.5,727.459242 C1468.5,727.459242 1475.9133,715.256659 1479.61995,711 Z M1457.38005,711 C1461.03661,715.199136 1468.30032,727.130893 1468.49597,727.452607 L1468.5,727.459242 C1468.5,727.459242 1455.49397,739.692609 1444.83492,742.5 C1438.56175,734.270379 1434,726.891848 1434,726.891848 C1434,726.891848 1445.45229,722.398574 1457.38005,711 Z M1374.83492,679.5 C1385.38177,682.277839 1398.22645,694.284258 1398.49569,694.536717 L1398.5,694.540758 C1398.5,694.540758 1391.0867,706.743341 1387.38005,711 C1375.45229,699.601426 1364,695.108152 1364,695.108152 C1364,695.108152 1368.56175,687.729621 1374.83492,679.5 Z M1422.16508,679.5 C1428.43825,687.729621 1433,695.108152 1433,695.108152 C1433,695.108152 1421.54771,699.601426 1409.61995,711 C1405.9133,706.743341 1398.5,694.540758 1398.5,694.540758 C1398.5,694.540758 1411.50603,682.307391 1422.16508,679.5 Z M1479.61995,679.5 C1491.54771,690.898574 1503,695.391848 1503,695.391848 C1503,695.391848 1498.43825,702.770379 1492.16508,711 C1481.50603,708.192609 1468.5,695.959242 1468.5,695.959242 C1468.5,695.959242 1475.9133,683.756659 1479.61995,679.5 Z M1457.38005,679.5 C1461.03661,683.699136 1468.30032,695.630893 1468.49597,695.952607 L1468.5,695.959242 C1468.5,695.959242 1455.49397,708.192609 1444.83492,711 C1438.56175,702.770379 1434,695.391848 1434,695.391848 C1434,695.391848 1445.45229,690.898574 1457.38005,679.5 Z M1374.83492,648 C1385.38177,650.777839 1398.22645,662.784258 1398.49569,663.036717 L1398.5,663.040758 C1398.5,663.040758 1391.0867,675.243341 1387.38005,679.5 C1375.45229,668.101426 1364,663.608152 1364,663.608152 C1364,663.608152 1368.56175,656.229621 1374.83492,648 Z M1422.16508,648 C1428.43825,656.229621 1433,663.608152 1433,663.608152 C1433,663.608152 1421.54771,668.101426 1409.61995,679.5 C1405.9133,675.243341 1398.5,663.040758 1398.5,663.040758 C1398.5,663.040758 1411.50603,650.807391 1422.16508,648 Z M1479.61995,648 C1491.54771,659.398574 1503,663.891848 1503,663.891848 C1503,663.891848 1498.43825,671.270379 1492.16508,679.5 C1481.50603,676.692609 1468.5,664.459242 1468.5,664.459242 C1468.5,664.459242 1475.9133,652.256659 1479.61995,648 Z M1457.38005,648 C1461.03661,652.199136 1468.30032,664.130893 1468.49597,664.452607 L1468.5,664.459242 C1468.5,664.459242 1455.49397,676.692609 1444.83492,679.5 C1438.56175,671.270379 1434,663.891848 1434,663.891848 C1434,663.891848 1445.45229,659.398574 1457.38005,648 Z" id="Combined-Shape" fill="#000000" opacity="0.0374348958" mask="url(#mask-2)"></path>
                    <path d="M3.41060513e-13,735.693511 C268.500861,655.856285 509.500086,633.965286 723,670.020516 C987.662231,714.715885 1272.40555,747.114099 1440.00489,729.755246 C1440.00489,729.761128 1440.00489,734.009379 1440.00489,742.5 L3.41060513e-13,742.5 C3.41060513e-13,737.964142 3.41060513e-13,735.695312 3.41060513e-13,735.693511 Z" id="Path-2" fill="#FFFFFF" mask="url(#mask-2)"></path>
                </g>
            </g>
        </g>
    </g>
</svg>