<?xml version="1.0" encoding="UTF-8"?>
<svg width="1440px" height="519px" viewBox="0 0 1440 519" version="1.1" xmlns="http://www.w3.org/2000/svg" xmlns:xlink="http://www.w3.org/1999/xlink">
    <title>ic_about_updated_everyday_bg</title>
    <defs>
        <polygon id="path-1" points="0 0 1440 0 1440 519 0 519"></polygon>
    </defs>
    <g id="Page-1" stroke="none" stroke-width="1" fill="none" fill-rule="evenodd">
        <g id="01-About-Qatar" transform="translate(0.000000, -5013.000000)">
            <g id="Group-32" transform="translate(0.000000, 5013.000000)">
                <g id="ic_about_updated_everyday_bg">
                    <mask id="mask-2" fill="white">
                        <use xlink:href="#path-1"></use>
                    </mask>
                    <use id="Mask" fill="#8A1538" xlink:href="#path-1"></use>
                    <path d="M1350.42167,498.5 C1359.58508,500.923046 1370.74323,511.389158 1370.99564,511.626711 L1371,511.630821 C1371,511.630821 1364.55365,522.283869 1361.33047,526 C1350.95851,516.048864 1341,512.126164 1341,512.126164 C1341,512.126164 1344.96674,505.68459 1350.42167,498.5 Z M1391.57833,498.5 C1397.03326,505.68459 1401,512.126164 1401,512.126164 C1401,512.126164 1391.04149,516.048864 1380.66953,526 C1377.44635,522.283869 1371,511.630821 1371,511.630821 C1371,511.630821 1382.30959,500.950897 1391.57833,498.5 Z M1441.66953,498.5 C1452.04149,508.451136 1462,512.373836 1462,512.373836 C1462,512.373836 1458.03326,518.81541 1452.57833,526 C1443.30959,523.549103 1432,512.869179 1432,512.869179 C1432,512.869179 1438.44635,502.216131 1441.66953,498.5 Z M1422.33047,498.5 C1425.50481,502.159826 1431.8054,512.547952 1431.99559,512.861904 L1432,512.869179 C1432,512.869179 1420.69041,523.549103 1411.42167,526 C1405.96674,518.81541 1402,512.373836 1402,512.373836 C1402,512.373836 1411.95851,508.451136 1422.33047,498.5 Z M1350.42167,471 C1359.58508,473.423046 1370.74323,483.889158 1370.99564,484.126711 L1371,484.130821 C1371,484.130821 1364.55365,494.783869 1361.33047,498.5 C1350.95851,488.548864 1341,484.626164 1341,484.626164 C1341,484.626164 1344.96674,478.18459 1350.42167,471 Z M1391.57833,471 C1397.03326,478.18459 1401,484.626164 1401,484.626164 C1401,484.626164 1391.04149,488.548864 1380.66953,498.5 C1377.44635,494.783869 1371,484.130821 1371,484.130821 C1371,484.130821 1382.30959,473.450897 1391.57833,471 Z M1441.66953,471 C1452.04149,480.951136 1462,484.873836 1462,484.873836 C1462,484.873836 1458.03326,491.31541 1452.57833,498.5 C1443.30959,496.049103 1432,485.369179 1432,485.369179 C1432,485.369179 1438.44635,474.716131 1441.66953,471 Z M1422.33047,471 C1425.50481,474.659826 1431.8054,485.047952 1431.99559,485.361904 L1432,485.369179 C1432,485.369179 1420.69041,496.049103 1411.42167,498.5 C1405.96674,491.31541 1402,484.873836 1402,484.873836 C1402,484.873836 1411.95851,480.951136 1422.33047,471 Z M1350.42167,443.5 C1359.58508,445.923046 1370.74323,456.389158 1370.99564,456.626711 L1371,456.630821 C1371,456.630821 1364.55365,467.283869 1361.33047,471 C1350.95851,461.048864 1341,457.126164 1341,457.126164 C1341,457.126164 1344.96674,450.68459 1350.42167,443.5 Z M1391.57833,443.5 C1397.03326,450.68459 1401,457.126164 1401,457.126164 C1401,457.126164 1391.04149,461.048864 1380.66953,471 C1377.44635,467.283869 1371,456.630821 1371,456.630821 C1371,456.630821 1382.30959,445.950897 1391.57833,443.5 Z M1441.66953,443.5 C1452.04149,453.451136 1462,457.373836 1462,457.373836 C1462,457.373836 1458.03326,463.81541 1452.57833,471 C1443.30959,468.549103 1432,457.869179 1432,457.869179 C1432,457.869179 1438.44635,447.216131 1441.66953,443.5 Z M1422.33047,443.5 C1425.50481,447.159826 1431.8054,457.547952 1431.99559,457.861904 L1432,457.869179 C1432,457.869179 1420.69041,468.549103 1411.42167,471 C1405.96674,463.81541 1402,457.373836 1402,457.373836 C1402,457.373836 1411.95851,453.451136 1422.33047,443.5 Z M1350.42167,416 C1359.58508,418.423046 1370.74323,428.889158 1370.99564,429.126711 L1371,429.130821 C1371,429.130821 1364.55365,439.783869 1361.33047,443.5 C1350.95851,433.548864 1341,429.626164 1341,429.626164 C1341,429.626164 1344.96674,423.18459 1350.42167,416 Z M1391.57833,416 C1397.03326,423.18459 1401,429.626164 1401,429.626164 C1401,429.626164 1391.04149,433.548864 1380.66953,443.5 C1377.44635,439.783869 1371,429.130821 1371,429.130821 C1371,429.130821 1382.30959,418.450897 1391.57833,416 Z M1441.66953,416 C1452.04149,425.951136 1462,429.873836 1462,429.873836 C1462,429.873836 1458.03326,436.31541 1452.57833,443.5 C1443.30959,441.049103 1432,430.369179 1432,430.369179 C1432,430.369179 1438.44635,419.716131 1441.66953,416 Z M1422.33047,416 C1425.50481,419.659826 1431.8054,430.047952 1431.99559,430.361904 L1432,430.369179 C1432,430.369179 1420.69041,441.049103 1411.42167,443.5 C1405.96674,436.31541 1402,429.873836 1402,429.873836 C1402,429.873836 1411.95851,425.951136 1422.33047,416 Z" id="Combined-Shape" fill="#000000" opacity="0.0751674122" mask="url(#mask-2)"></path>
                    <path d="M1.13686838e-13,501.214699 C246.929774,444.551673 470.622346,433.139751 671,466.978933 C963.277038,516.337808 1282.74226,534.271621 1440.0035,498.163484 C1440.0035,498.159849 1440.0035,507.438688 1440.0035,526 L1.13686838e-13,526 C1.13686838e-13,509.476466 1.13686838e-13,501.214699 1.13686838e-13,501.214699 Z" id="Path-2" fill="#FFFFFF" mask="url(#mask-2)"></path>
                </g>
            </g>
        </g>
    </g>
</svg>