<?xml version="1.0" encoding="UTF-8"?>
<svg width="20px" height="20px" viewBox="0 0 20 20" version="1.1" xmlns="http://www.w3.org/2000/svg" xmlns:xlink="http://www.w3.org/1999/xlink">
    <title>idea</title>
    <g id="Page-1" stroke="none" stroke-width="1" fill="none" fill-rule="evenodd">
        <g id="01-About-Qatar" transform="translate(-152.000000, -4706.000000)" fill="#009DBD" fill-rule="nonzero">
            <g id="Group-34" transform="translate(145.000000, 4284.000000)">
                <g id="Group-33" transform="translate(7.000000, 416.000000)">
                    <g id="Group-29">
                        <g id="idea" transform="translate(0.000000, 6.000000)">
                            <path d="M8.48964844,0.157421875 C5.84238281,0.710585938 3.69589844,2.83652344 3.13109375,5.50023438 C2.65417969,7.74953125 3.241875,10.0077344 4.74347656,11.6958203 C5.4775,12.5209375 5.8984375,13.6101172 5.8984375,14.6871094 L5.8984375,15.8589844 C5.8984375,16.6386719 6.40886719,17.3010547 7.11300781,17.5304688 C7.34457031,18.8986328 8.53207031,19.9995703 10,19.9995703 C11.4675391,19.9995703 12.6553516,18.8989844 12.8869922,17.5304688 C13.5911328,17.3010547 14.1015625,16.6386719 14.1015625,15.8589453 L14.1015625,14.6870703 C14.1015625,13.6079688 14.5239063,12.531875 15.2907031,11.6570312 C16.413125,10.3765625 17.03125,8.73359375 17.03125,7.03085938 C17.03125,2.59472656 12.9707422,-0.77875 8.48964844,0.157421875 Z M10,18.8277344 C9.24679687,18.8277344 8.58640625,18.3094531 8.34253906,17.6128906 L11.6574219,17.6128906 C11.4135937,18.3094531 10.7532031,18.8277344 10,18.8277344 Z M12.9296875,15.8589844 C12.9296875,16.1820703 12.6668359,16.4449219 12.34375,16.4449219 L7.65625,16.4449219 C7.33316406,16.4449219 7.0703125,16.1820703 7.0703125,15.8589844 L7.0703125,15.2730469 L12.9296875,15.2730469 L12.9296875,15.8589844 Z M15.859375,7.03085938 C15.859375,8.44929688 15.3444531,9.81792969 14.4094531,10.8846484 C13.5922656,11.8169531 13.0894922,12.9411719 12.9619141,14.1011719 L7.03820313,14.1011719 C6.91078125,12.9405469 6.40929688,11.8052734 5.61914063,10.9169531 C4.36765625,9.51007813 3.87863281,7.62433594 4.2775,5.74332031 C4.74308594,3.54746094 6.53214844,1.76367188 8.729375,1.30457031 C12.4803125,0.520703125 15.859375,3.33757813 15.859375,7.03085938 Z M1.171875,10.3037891 C1.40066406,10.0749609 1.77167969,10.0749609 2.00050781,10.3037891 C2.22933594,10.5326172 2.22933594,10.9035938 2.00050781,11.1324219 L2.00050781,11.1324219 L1.171875,11.9610547 C0.943046875,12.1899219 0.57203125,12.1898828 0.343242187,11.9610547 C0.114414062,11.7322266 0.114414062,11.36125 0.343242187,11.1324219 L0.343242187,11.1324219 Z M17.9994922,10.3037891 C18.2283203,10.0749609 18.5993359,10.0749609 18.828125,10.3037891 L18.828125,10.3037891 L19.6567578,11.1324219 C19.8855859,11.36125 19.8855859,11.7322266 19.6567578,11.9610547 C19.4279297,12.1898828 19.0569141,12.1898438 18.828125,11.9610547 L18.828125,11.9610547 L17.9994922,11.1324219 C17.7706641,10.9035938 17.7706641,10.5326172 17.9994922,10.3037891 Z M1.7578125,7.03085938 C2.08140625,7.03085938 2.34375,7.29320313 2.34375,7.61679688 C2.34375,7.94039063 2.08140625,8.20273438 1.7578125,8.20273438 L1.7578125,8.20273438 L0.5859375,8.20273438 C0.26234375,8.20273438 1.17372778e-12,7.94039063 1.17372778e-12,7.61679688 C1.17372778e-12,7.29320313 0.26234375,7.03085938 0.5859375,7.03085938 L0.5859375,7.03085938 Z M19.4140625,7.03085938 C19.7376563,7.03085938 20,7.29320313 20,7.61679688 C20,7.94039063 19.7376563,8.20273438 19.4140625,8.20273438 L19.4140625,8.20273438 L18.2421875,8.20273438 C17.9185938,8.20273438 17.65625,7.94039063 17.65625,7.61679688 C17.65625,7.29320313 17.9185938,7.03085938 18.2421875,7.03085938 L18.2421875,7.03085938 Z M0.343242187,3.27253906 C0.572070312,3.04371094 0.943085937,3.04371094 1.171875,3.27253906 L1.171875,3.27253906 L2.00050781,4.10117188 C2.22933594,4.33 2.22933594,4.70097656 2.00050781,4.92980469 C1.77167969,5.15867188 1.40066406,5.15863281 1.171875,4.92980469 L1.171875,4.92980469 L0.343242187,4.10117188 C0.114414062,3.87234375 0.114414062,3.50136719 0.343242187,3.27253906 Z M18.828125,3.27253906 C19.0569531,3.04371094 19.4279687,3.04371094 19.6567578,3.27253906 C19.8855859,3.50136719 19.8855859,3.87234375 19.6567578,4.10117188 L19.6567578,4.10117188 L18.828125,4.92980469 C18.5992969,5.15863281 18.2282812,5.15859375 17.9994922,4.92980469 C17.7706641,4.70097656 17.7706641,4.33 17.9994922,4.10117188 L17.9994922,4.10117188 Z M9.99941406,2.34335938 C9.67582031,2.34335938 9.41347656,2.60570313 9.41347656,2.92929688 C9.41347656,3.25289063 9.67582031,3.51523438 9.99941406,3.51523438 C11.9382422,3.51523438 13.515625,5.09234375 13.515625,7.03085938 C13.515625,7.35445313 13.7779687,7.61679688 14.1015625,7.61679688 C14.4251562,7.61679688 14.6875,7.35445313 14.6875,7.03085938 C14.6875,4.44617188 12.5844531,2.34335938 9.99941406,2.34335938 Z" id="Shape"></path>
                        </g>
                    </g>
                </g>
            </g>
        </g>
    </g>
</svg>