<?xml version="1.0" encoding="UTF-8"?>
<svg width="38px" height="38px" viewBox="0 0 38 38" version="1.1" xmlns="http://www.w3.org/2000/svg" xmlns:xlink="http://www.w3.org/1999/xlink">
    <title>ic_location_view</title>
    <g id="Page-1" stroke="none" stroke-width="1" fill="none" fill-rule="evenodd">
        <g id="03-tourist" transform="translate(-604.000000, -3847.000000)">
            <g id="ic_location_view" transform="translate(604.000000, 3847.000000)">
                <circle id="Oval" fill="#F1F1F1" cx="19" cy="19" r="19"></circle>
                <path d="M23.9063519,14.892275 C22.6119146,12.3034003 19.4547503,11.2615361 16.8658756,12.5559734 C14.2770009,13.8504108 13.2824942,17.1180758 14.5453599,19.5964498 C15.1136494,20.7014573 17.3236644,24.5531977 18.4918152,26.5737828 C18.8233175,27.1420724 19.6283943,27.1420724 19.9441108,26.5737828 C21.1122615,24.5531977 23.3064907,20.7014573 23.9063519,19.5964498 C24.7114288,18.1441542 24.6798572,16.4234997 23.9063519,14.892275 Z M19.2337488,19.5175207 C17.9866689,19.5175207 16.9605905,18.5072281 16.9605905,17.2443624 C16.9605905,15.9972825 17.9708831,14.9712041 19.2337488,14.9712041 C20.4966145,14.9712041 21.5069071,15.9972825 21.5069071,17.2443624 C21.5069071,18.4914423 20.4966145,19.5175207 19.2337488,19.5175207 Z" id="Shape" fill="#E35205" fill-rule="nonzero"></path>
            </g>
        </g>
    </g>
</svg>