<?xml version="1.0" encoding="UTF-8"?>
<svg width="29px" height="37px" viewBox="0 0 29 37" version="1.1" xmlns="http://www.w3.org/2000/svg" xmlns:xlink="http://www.w3.org/1999/xlink">
    <title>ic_staying_in_qatar</title>
    <g id="Page-1" stroke="none" stroke-width="1" fill="none" fill-rule="evenodd" stroke-linecap="round" stroke-linejoin="round">
        <g id="03-tourist" transform="translate(-572.000000, -1096.000000)" stroke="#B51647" stroke-width="1.5">
            <g id="Group-Copy-8" transform="translate(151.000000, 986.000000)">
                <g id="Group-14-Copy-2" transform="translate(390.000000, 82.000000)">
                    <g id="Group-13" transform="translate(32.000000, 29.000000)">
                        <g id="ic_staying_in_qatar">
                            <path d="M25.531875,34.076565 L1.855575,34.076565 C1.110375,34.076565 0.505575,33.471765 0.505575,32.726565 L0.505575,1.856115 C0.505575,1.110915 1.110375,0.506115 1.855575,0.506115 L25.531875,0.506115 C26.278425,0.506115 26.881875,1.110915 26.881875,1.856115 L26.881875,32.726565 C26.881875,33.471765 26.278425,34.076565 25.531875,34.076565 Z" id="Stroke-1"></path>
                            <path d="M17.023095,7.897905 C17.023095,9.736605 15.532695,11.227005 13.693995,11.227005 C11.855295,11.227005 10.364895,9.736605 10.364895,7.897905 C10.364895,6.059205 11.855295,4.568805 13.693995,4.568805 C15.532695,4.568805 17.023095,6.059205 17.023095,7.897905 Z" id="Stroke-3"></path>
                            <path d="M7.719435,19.05255 C7.719435,15.75315 10.393785,13.07745 13.694535,13.07745 C16.993935,13.07745 19.669635,15.75315 19.669635,19.05255" id="Stroke-5"></path>
                            <line x1="5.63112" y1="24.341715" x2="22.67082" y2="24.341715" id="Stroke-7"></line>
                            <line x1="5.63112" y1="29.14056" x2="22.67082" y2="29.14056" id="Stroke-9"></line>
                        </g>
                    </g>
                </g>
            </g>
        </g>
    </g>
</svg>