<svg xmlns="http://www.w3.org/2000/svg" width="37" height="38" viewBox="0 0 37 38">
    <g fill="none" fill-rule="evenodd" stroke="#CD4A04" stroke-linecap="round" stroke-linejoin="round" stroke-width="1.5">
        <path d="M5.951.52L5.951 4.513M17.241.52L17.241 4.513M28.532.52L28.532 4.513M18.062 27.989H2.45c-1.066 0-1.93-.863-1.93-1.929V4.14c0-1.064.864-1.927 1.93-1.927H32.4c1.066 0 1.93.863 1.93 1.927l-.05 16.537M.519 7.505L31.049 7.505M5.951 13.367L7.592 13.367M5.951 22.019L7.592 22.019M16.422 13.367L18.063 13.367M16.422 22.099L18.063 22.099M26.892 13.367L28.533 13.367" transform="translate(1 1)"/>
        <path d="M35.171 27.989c0 4.258-3.45 7.708-7.707 7.708-4.259 0-7.71-3.45-7.71-7.708 0-4.256 3.451-7.707 7.71-7.707 4.257 0 7.707 3.45 7.707 7.707z" transform="translate(1 1)"/>
        <path d="M27.464 24.698L27.464 27.989 32.415 27.989" transform="translate(1 1)"/>
    </g>
</svg>
