<svg xmlns="http://www.w3.org/2000/svg" width="35" height="29" viewBox="0 0 35 29">
    <g fill="#B51647">
        <path d="M15.264 5.52L13.34 3.575c-.227-.272-.63-.308-.902-.08-.271.226-.307.63-.08.901.023.027.047.053.074.076l1.924 1.945c.269.23.673.199.903-.07.204-.237.206-.587.005-.827zM31.578 3.675c-.227-.27-.63-.307-.902-.08-.027.023-.052.048-.075.075l-1.946 1.924c-.27.227-.307.63-.08.901.227.272.63.308.902.08.027-.022.052-.047.075-.074l1.946-1.924c.27-.227.307-.63.08-.902zM19.985 3.275c-.004-.02-.009-.038-.015-.056L19.267.574c-.073-.344-.411-.563-.755-.49-.344.073-.564.411-.49.755.003.019.008.037.014.055l.703 2.645c.073.344.412.564.755.49.344-.072.564-.41.49-.754zM28.733 16.896c-.12-.12-.244-.237-.373-.352l.105-.19c.131-.24.249-.489.352-.742 1.499-3.743-.32-7.991-4.063-9.49l-.02-.008c-3.384-1.348-7.244.002-9.048 3.166-4.41-1.232-8.984 1.345-10.216 5.755-.205.734-.307 1.493-.305 2.255v.33c-3.062.217-5.368 2.875-5.15 5.937.204 2.894 2.6 5.143 5.502 5.165h18.309c3.825.006 6.931-3.09 6.938-6.914.003-1.843-.728-3.61-2.031-4.912zm-8.92-9.593c1.426-.567 3.015-.567 4.442 0 3.092 1.234 4.602 4.74 3.373 7.834-.089.213-.19.42-.302.622v.057c-1.766-1.027-3.895-1.222-5.818-.535-.355-1.416-1.079-2.714-2.097-3.76.712-1.32 2.296-1.903 3.694-1.358.334.11.694-.072.803-.406.101-.306-.043-.64-.335-.776-1.898-.76-4.067-.052-5.15 1.682-.48-.361-.998-.67-1.544-.919.687-1.11 1.716-1.967 2.933-2.44zm5.349 19.984c-.435.104-.882.156-1.33.155H5.543c-2.365-.003-4.28-1.921-4.278-4.285.001-1.133.452-2.22 1.252-3.022l-.007.004c.802-.803 1.89-1.254 3.025-1.252H5.826c.351.024.655-.241.679-.592.004-.055 0-.11-.01-.165-.014-.122-.026-.254-.036-.397v-.447c.053-3.873 3.235-6.97 7.108-6.919 3.404.046 6.283 2.529 6.83 5.889.05.348.372.589.72.538.068-.01.133-.03.194-.06.39-.195.8-.344 1.224-.443 3.036-.726 6.086 1.148 6.811 4.184.726 3.037-1.148 6.086-4.184 6.812zM34.919 9.708c-.097-.315-.419-.503-.741-.435l-2.645.704c-.34.088-.544.434-.458.773.088.341.435.546.776.458h.002l2.645-.704c.336-.103.525-.46.42-.796zM34.47 15.932l-2.638-.721c-.34-.097-.693.099-.79.438-.097.339.099.692.438.79l2.638.72c.34.098.693-.098.79-.437.097-.34-.099-.693-.438-.79zM25.48.147c-.338-.097-.692.099-.789.438l-.721 2.638c-.1.337.09.691.428.792l.022.006c.338.1.692-.093.79-.43l.005-.016.704-2.639c.097-.339-.1-.692-.438-.79z"/>
    </g>
</svg>
