<?xml version="1.0" encoding="utf-8"?>
<!-- Generator: Adobe Illustrator 24.1.1, SVG Export Plug-In . SVG Version: 6.00 Build 0)  -->
<svg version="1.1" id="Layer_1" xmlns="http://www.w3.org/2000/svg" xmlns:xlink="http://www.w3.org/1999/xlink" x="0px" y="0px"
	 viewBox="0 0 32 32" style="enable-background:new 0 0 32 32;" xml:space="preserve">
<style type="text/css">
	.st0{fill:none;stroke:#cd4a04;stroke-width:0.75;stroke-linecap:round;stroke-linejoin:round;stroke-miterlimit:10;}
	.st1{fill:none;stroke:#cd4a04;stroke-width:0.75;stroke-linecap:round;stroke-linejoin:round;stroke-miterlimit:10;}
	.st2{fill:none;stroke:#cd4a04;stroke-width:0.75;stroke-linecap:round;stroke-miterlimit:10;}
	.st3{fill:none;stroke:#cd4a04;stroke-width:0.75;stroke-linecap:round;stroke-miterlimit:10;}
	.st4{fill:#cd4a04;}
	.st5{fill:#cd4a04;}
	.st6{fill:none;stroke:#FFFFFF;stroke-miterlimit:10;}
	.st7{fill:none;stroke:#cd4a04;stroke-width:2;stroke-linecap:round;stroke-linejoin:round;stroke-miterlimit:10;}
</style>
<path class="st1" d="M28.9,23.8H7.5c-1.7,0-3.1-1.4-3.1-3.1v0c0-1.7,1.4-3.1,3.1-3.1h21.4l0,0C27.8,19.5,27.8,21.8,28.9,23.8
	L28.9,23.8z"/>
<polyline class="st1" points="7.8,20.3 7.8,22 9,21.2 10,22 10,20.1 "/>
<line class="st1" x1="10.9" y1="20.1" x2="26.3" y2="20.1"/>
<path class="st1" d="M9,28.9h21.5l0,0c-1.2-1.5-1.2-3.6,0-5.2l0,0H9c-1.4,0-2.6,1.2-2.6,2.6v0C6.4,27.8,7.6,28.9,9,28.9z"/>
<line class="st1" x1="9.1" y1="26.3" x2="26.4" y2="26.3"/>
<g>
	<g>
		<polygon class="st1" points="4.7,7.7 16,3.4 23,6 27.3,7.7 23.7,8.8 16,11.3 		"/>
		<polyline class="st1" points="9.7,9.9 9.7,17.5 22.4,17.5 22.4,9.6 		"/>
	</g>
	<polyline class="st1" points="21,7.5 27.3,9.8 27.3,11.8 	"/>
</g>
<circle class="st1" cx="27.2" cy="12.7" r="0.9"/>
</svg>
