<svg xmlns="http://www.w3.org/2000/svg" width="41" height="28" viewBox="0 0 41 28">
    <g fill="none" fill-rule="evenodd" stroke="#CD4A04" stroke-linecap="round" stroke-linejoin="round" stroke-width="1.5">
        <path d="M0.542 25.712L38.405 25.712 38.405 0.541 0.542 0.541z" transform="translate(1 1)"/>
        <path d="M9.468 6.15c0 .95-.77 1.72-1.72 1.72-.952 0-1.722-.77-1.722-1.72s.77-1.72 1.722-1.72c.95 0 1.72.77 1.72 1.72zM4.366 13.127c0-1.868 1.514-3.381 3.381-3.381 1.867 0 3.38 1.513 3.38 3.381M14.481 4.429L22.069 4.429M14.481 8.778L32.148 8.778M14.481 13.127L26.37 13.127M35.25 19.62c0 .494-.453.893-.63 1.322-.185.445-.154 1.047-.489 1.38-.335.337-.937.304-1.38.489-.43.177-.83.631-1.322.631-.493 0-.893-.454-1.322-.631-.443-.185-1.046-.152-1.38-.488-.336-.334-.304-.936-.488-1.381-.179-.43-.632-.828-.632-1.322 0-.493.453-.891.632-1.32.184-.445.152-1.047.487-1.383.335-.335.938-.303 1.381-.486.43-.178.83-.633 1.322-.633.492 0 .892.455 1.321.633.444.183 1.046.151 1.383.486.333.336.302.938.487 1.383.177.429.63.827.63 1.32z" transform="translate(1 1)"/>
        <path d="M30.334 19.939L31.031 20.573 32.808 18.671M4.365 22.332L11.127 22.332 11.127 17.354 4.365 17.354zM14.481 19.62L20.425 19.62" transform="translate(1 1)"/>
    </g>
</svg>
