<?xml version="1.0" encoding="utf-8"?>
<!-- Generator: Adobe Illustrator 24.1.1, SVG Export Plug-In . SVG Version: 6.00 Build 0)  -->
<svg version="1.1" id="Layer_1" xmlns="http://www.w3.org/2000/svg" xmlns:xlink="http://www.w3.org/1999/xlink" x="0px" y="0px"
	 viewBox="0 0 32 32" style="enable-background:new 0 0 32 32;" xml:space="preserve">
<style type="text/css">
	.st0{fill:none;stroke:#cd4a04;stroke-width:0.75;stroke-linecap:round;stroke-linejoin:round;stroke-miterlimit:10;}
	.st1{fill:none;stroke:#cd4a04;stroke-width:0.75;stroke-linecap:round;stroke-linejoin:round;stroke-miterlimit:10;}
	.st2{fill:none;stroke:#cd4a04;stroke-width:0.75;stroke-linecap:round;stroke-miterlimit:10;}
	.st3{fill:none;stroke:#cd4a04;stroke-width:0.75;stroke-linecap:round;stroke-miterlimit:10;}
	.st4{fill:#cd4a04;}
	.st5{fill:#cd4a04;}
	.st6{fill:none;stroke:#FFFFFF;stroke-miterlimit:10;}
	.st7{fill:none;stroke:#cd4a04;stroke-width:2;stroke-linecap:round;stroke-linejoin:round;stroke-miterlimit:10;}
</style>
<g>
	<g>
		<path class="st1" d="M27.9,25.2c0,1.4-1.1,2.6-2.6,2.6H7h0c1.3,0,2.4-1.1,2.4-2.4V4.2h18.5V25.2z"/>
		<path class="st1" d="M9.4,27.8H7.2c-1.7,0-3.1-1.4-3.1-3.1V8.3c0-0.7,0.5-1.2,1.2-1.2h0c0.7,0,1.2,0.5,1.2,1.2v16.5"/>
	</g>
	<line class="st1" x1="5.3" y1="7.1" x2="7.6" y2="7.1"/>
</g>
<g>
	<polygon class="st1" points="12.6,13.8 19.2,11.3 25.8,13.8 19.2,15.9 	"/>
	<path class="st1" d="M22.9,15v4.6l-0.6-0.2c-2-0.5-4.2-0.5-6.2,0l-0.6,0.2v-4.5"/>
</g>
<line class="st1" x1="12.6" y1="7.1" x2="25" y2="7.1"/>
<line class="st1" x1="15.4" y1="23.8" x2="22.5" y2="23.8"/>
</svg>
