<?xml version="1.0" encoding="utf-8"?>
<!-- Generator: Adobe Illustrator 24.1.1, SVG Export Plug-In . SVG Version: 6.00 Build 0)  -->
<svg version="1.1" id="Layer_1" xmlns="http://www.w3.org/2000/svg" xmlns:xlink="http://www.w3.org/1999/xlink" x="0px" y="0px"
	 viewBox="0 0 32 32" style="enable-background:new 0 0 32 32;" xml:space="preserve">
<style type="text/css">
	.st0{fill:none;stroke:#cd4a04;stroke-width:0.75;stroke-linecap:round;stroke-linejoin:round;stroke-miterlimit:10;}
	.st1{fill:none;stroke:#cd4a04;stroke-width:0.75;stroke-linecap:round;stroke-linejoin:round;stroke-miterlimit:10;}
	.st2{fill:none;stroke:#cd4a04;stroke-width:0.75;stroke-linecap:round;stroke-miterlimit:10;}
	.st3{fill:none;stroke:#cd4a04;stroke-width:0.75;stroke-linecap:round;stroke-miterlimit:10;}
	.st4{fill:#cd4a04;}
	.st5{fill:#cd4a04;}
	.st6{fill:none;stroke:#FFFFFF;stroke-miterlimit:10;}
	.st7{fill:none;stroke:#cd4a04;stroke-width:2;stroke-linecap:round;stroke-linejoin:round;stroke-miterlimit:10;}
</style>
<polyline class="st1" points="21.5,13.1 21.5,28.4 10.9,28.4 10.9,13.3 "/>
<polyline class="st1" points="9.2,14.7 16.5,8 23.2,14.7 "/>
<polyline class="st1" points="21.5,19.3 28.9,19.3 28.9,28.4 21.5,28.4 "/>
<polyline class="st1" points="10.9,19.3 3.8,19.3 3.8,28.4 10.9,28.4 "/>
<line class="st1" x1="16.5" y1="3.4" x2="16.5" y2="8"/>
<polyline class="st1" points="16.5,3.9 19,3.9 19,5.5 16.7,5.5 "/>
<path class="st1" d="M17.8,28.4h-3.2v-4.8c0-0.9,0.7-1.6,1.6-1.6h0c0.9,0,1.6,0.7,1.6,1.6V28.4z"/>
<path class="st1" d="M26.6,28.4h-2.3V25c0-0.6,0.5-1.2,1.2-1.2h0c0.6,0,1.2,0.5,1.2,1.2V28.4z"/>
<path class="st1" d="M8.1,28.4H5.8V25c0-0.6,0.5-1.2,1.2-1.2h0c0.6,0,1.2,0.5,1.2,1.2V28.4z"/>
</svg>
