<svg xmlns="http://www.w3.org/2000/svg" width="35" height="35" viewBox="0 0 36 35">
    <defs>
        <linearGradient id="prefix__a" x1="23.051%" x2="50%" y1="83.681%" y2="0%">
            <stop offset="0%" stop-color="#E09B3D"/>
            <stop offset="30%" stop-color="#C74C4D"/>
            <stop offset="60%" stop-color="#C21975"/>
            <stop offset="100%" stop-color="#7024C4"/>
        </linearGradient>
    </defs>
    <g fill="none">
        <path fill="url(#prefix__a)" d="M17.33 34.659C7.758 34.659 0 26.9 0 17.329 0 7.76 7.759 0 17.33 0c9.57 0 17.329 7.759 17.329 17.33 0 9.57-7.76 17.329-17.33 17.329z" transform="translate(.317)"/>
        <g fill="#FFF" transform="translate(.317) translate(10.59 10.59)">
            <path d="M10.121 0H4.295C1.927 0 0 1.927 0 4.295v5.826c0 2.368 1.927 4.295 4.295 4.295h5.826c2.368 0 4.295-1.927 4.295-4.295V4.295C14.416 1.927 12.489 0 10.12 0zm2.845 10.121c0 1.571-1.274 2.845-2.845 2.845H4.295c-1.571 0-2.845-1.274-2.845-2.845V4.295c0-1.571 1.274-2.845 2.845-2.845h5.826c1.571 0 2.845 1.274 2.845 2.845v5.826z"/>
            <path d="M7.208 3.48c-2.056 0-3.729 1.672-3.729 3.728s1.673 3.728 3.729 3.728 3.728-1.672 3.728-3.728-1.672-3.729-3.728-3.729zm0 6.006c-1.258 0-2.278-1.02-2.278-2.278S5.95 4.93 7.208 4.93s2.278 1.02 2.278 2.278-1.02 2.278-2.278 2.278z"/>
            <circle cx="10.944" cy="3.507" r="1"/>
        </g>
    </g>
</svg>
