<svg xmlns="http://www.w3.org/2000/svg" width="32" height="35" viewBox="0 0 32 35">
    <g fill="none" fill-rule="evenodd" stroke="#CD4A04" stroke-linecap="round" stroke-linejoin="round" stroke-width="1.2">
        <path d="M25.126 18.822L25.126 0.505 0.505 0.505 0.505 32.339 25.126 32.339 25.126 29.559" transform="translate(1 1)"/>
        <path d="M28.13 22.926c1.308 1.958.78 4.607-1.178 5.914-1.959 1.308-4.607.78-5.915-1.18-1.307-1.957-.78-4.606 1.178-5.913 1.96-1.31 4.607-.78 5.916 1.179zM26.952 28.84L29.933 33.305M12.169 6.146L16.297 6.146M12.025 9.071L20.571 9.071M7.649 5.857c0 .69-.558 1.248-1.248 1.248-.689 0-1.248-.558-1.248-1.248 0-.689.56-1.247 1.248-1.247.69 0 1.248.558 1.248 1.247zM3.892 10.93c0-1.386 1.123-2.51 2.509-2.51 1.387 0 2.51 1.124 2.51 2.51M3.566 15.323L21.689 15.323M3.566 20.715L15.439 20.715M3.566 27.167L14.578 27.167" transform="translate(1 1)"/>
    </g>
</svg>
