<svg xmlns="http://www.w3.org/2000/svg" width="72" height="72" viewBox="0 0 72 72">
    <g fill="none" fill-rule="evenodd">
        <circle cx="36" cy="36" r="36" fill="#8A1538"/>
        <g stroke="#FFF" stroke-linecap="round" stroke-linejoin="round" stroke-width="1.5">
            <path d="M10.124 13.42H6.433l-4.087 3.428-.132-3.428C1.291 13.42.5 12.63.5 11.706V2.214C.5 1.29 1.291.5 2.214.5h13.315c.924 0 1.715.79 1.715 1.714v8.042" transform="translate(20 21)"/>
            <path d="M12.893 26.209H24.1l5.009 4.219.132-4.22c1.187 0 2.11-.922 2.11-2.108V12.366c0-1.187-.923-2.11-2.11-2.11H12.893c-1.186 0-2.11.923-2.11 2.11V24.1c0 1.186.924 2.109 2.11 2.109z" transform="translate(20 21)"/>
            <path d="M17.903 21.858L20.803 13.816 23.835 21.858M18.957 18.958L22.517 18.958M11.443 9.07c-.264 0-.527.132-.791.132-.528 0-1.187.132-1.714 0-.528 0-1.187-.264-1.582-.528-.528-.396-.66-1.054-.396-1.582.264-.396.527-.66.923-.791.659-.395 1.45-.66 2.24-.79h.265v-.792H7.092c-.132 0-.264 0-.264.132-.263.263-.396.527-.527.923M8.542 3.005c.132.132.396.264.527.395" transform="translate(20 21)"/>
        </g>
    </g>
</svg>
