<svg xmlns="http://www.w3.org/2000/svg" width="18" height="18" viewBox="0 0 18 18">
    <g fill="#FFF" stroke="#FFF" stroke-width=".3" opacity=".8">
        <path d="M12.25 10.284c-.14 0-.28-.053-.385-.16-.213-.212-.213-.557 0-.77L13.8 7.419c.702-.696 1.089-1.626 1.089-2.62 0-2.046-1.664-3.71-3.71-3.71-.994 0-1.924.386-2.618 1.087L6.624 4.113c-.213.213-.558.213-.77 0-.213-.213-.213-.558 0-.77l1.935-1.936C8.687.5 9.892 0 11.179 0c2.646 0 4.798 2.153 4.798 4.798 0 1.288-.5 2.493-1.409 3.393l-1.934 1.933c-.106.107-.245.16-.385.16h0zM4.798 15.977C2.153 15.977 0 13.825 0 11.18c0-1.288.5-2.493 1.409-3.393l1.934-1.933c.213-.213.558-.213.77 0 .213.213.213.558 0 .77L2.178 8.56c-.703.695-1.089 1.624-1.089 2.62 0 2.045 1.664 3.709 3.71 3.709.994 0 1.924-.386 2.618-1.087l1.937-1.936c.213-.213.558-.213.77 0 .213.212.213.557 0 .77L8.19 14.571c-.898.907-2.104 1.406-3.39 1.406z" transform="translate(1 1)"/>
        <path d="M5.084 11.438c-.14 0-.28-.053-.385-.16-.213-.212-.213-.557 0-.77l5.81-5.81c.213-.213.557-.213.77 0 .213.213.213.558 0 .77l-5.81 5.81c-.106.107-.246.16-.385.16h0z" transform="translate(1 1)"/>
    </g>
</svg>
