<svg xmlns="http://www.w3.org/2000/svg" width="19" height="19" viewBox="0 0 19 19">
    <g fill="#CD4A04">
        <path d="M9.5 17.615c-4.474 0-8.115-3.64-8.115-8.115 0-4.474 3.64-8.115 8.115-8.115s8.115 3.64 8.115 8.115-3.64 8.115-8.115 8.115zm0-14.646c-3.601 0-6.531 2.93-6.531 6.531 0 3.601 2.93 6.531 6.531 6.531 3.601 0 6.531-2.93 6.531-6.531 0-3.601-2.93-6.531-6.531-6.531z"/>
        <path d="M9.5 4.354c-.437 0-.792-.355-.792-.792V.792C8.708.355 9.063 0 9.5 0c.437 0 .792.355.792.792v2.77c0 .438-.355.792-.792.792zM18.208 10.292h-2.77c-.438 0-.792-.355-.792-.792 0-.437.354-.792.791-.792h2.771c.437 0 .792.355.792.792 0 .437-.355.792-.792.792zM9.5 19c-.437 0-.792-.355-.792-.792v-2.77c0-.438.355-.792.792-.792.437 0 .792.354.792.791v2.771c0 .437-.355.792-.792.792zM3.563 10.292H.792C.355 10.292 0 9.937 0 9.5c0-.437.355-.792.792-.792h2.77c.438 0 .792.355.792.792 0 .437-.355.792-.792.792zM9.5 11.875c-1.31 0-2.375-1.066-2.375-2.375 0-1.31 1.066-2.375 2.375-2.375 1.31 0 2.375 1.066 2.375 2.375 0 1.31-1.066 2.375-2.375 2.375zm0-3.167c-.436 0-.792.356-.792.792 0 .436.356.792.792.792.436 0 .792-.356.792-.792 0-.436-.356-.792-.792-.792z"/>
    </g>
</svg>
