<svg xmlns="http://www.w3.org/2000/svg" xmlns:xlink="http://www.w3.org/1999/xlink" width="180" height="64" viewBox="0 0 180 64">
    <defs>
        <path id="prefix__a" d="M0 0.387L63 0.387 63 63.387 0 63.387z"/>
    </defs>
    <g fill="none" fill-rule="evenodd">
        <mask id="prefix__b" fill="#fff">
            <use xlink:href="#prefix__a"/>
        </mask>
        <path fill="#B51647" d="M49.025 49.041l-.673.702-2.458-2.37-1.084 2.37-3.688-8.048 7.903 3.424-2.312 1.492 2.312 2.43zm-8.375-2.164c-2.86 0-5.18-2.319-5.18-5.18 0-2.861 2.32-5.18 5.18-5.18s5.18 2.319 5.18 5.18c0 .358-.036.707-.105 1.044l-6.315-2.788 2.893 6.629c-.522.178-1.072.295-1.653.295zm-11.333 4.482c-3.836 0-10.15-2.592-10.426-11.782-.118-3.936 1.723-8.883 2.856-10.163.401-.583.15-.76-.13-1.033-.677-.805-.96-1.507-.903-1.679.89.458 1.484.699 1.856.888.371.19.623-.194.71-.339 1.468-2.013 1.952-2.123 2.114-2.356.16-.232.033-.31-.178-.436-1.884-1.211-4.326-2.987-5.1-3.497-1.592-1.094-.815-3.149-.774-3.504.042-.357.7-1.16 1.551-1.679.65-.383 1.347-1.01 3.71-.952 4.028.051 11.383.16 17.571 1.05.62.088 1.063-.007.855.628-.653 1.875-.712 2.461-1.388 2.727-6.288 2.542-4.839 1.944-6.76 2.759-1.921.816-3.406 1.444-4.679 2.227-1.273.782-1.843.912-1.695 1.403.464 1.582.282 1.898.195 2.05-.949-.93-1.348-1.667-2.518-.726-.644.53-1.575 1.283-1.612 1.468 1.263.569 5.743.22 11.357.322 8.851-.338 9.799 5.285 9.68 9.162-.314-.36-.668-.683-1.056-.965-.093-.508-1.101-5.024-7.236-5.017-6.499.005-10.406.505-13.747-1.808-.342-.26-.38-.18-.564.065-.638.829-3.726 4.096-2.743 10.02.993 5.979 5.058 7.494 9.004 7.454 2.512-.026 4.973-.875 6.689-1.563.643.777 1.468 1.398 2.408 1.797-2.45 1.71-5.478 3.481-9.047 3.48zM31.5.387C14.102.387 0 14.489 0 31.887c0 17.397 14.102 31.5 31.5 31.5S63 49.284 63 31.887C63 14.488 48.898.386 31.5.386z" mask="url(#prefix__b)"/>
        <path fill="#8A1538" d="M29.26 22.497c1.612-1.163 4.902-2.44 6.063-3.374-.031-.05-.172-.149-.638-.212-1.106-.116-4.363-.409-6.7-.473-4.955-.197-6.426.237-6.782.293-.357.057-.543.327-.256.538.122.084.323.177.64.425 1.555 1.01 3.984 2.834 4.992 3.666.805.77.907.175 2.681-.863"/>
        <path fill="#B51647" d="M86.613 14.516L86.613 31.935 84.19 31.935 84.19 24.265 75.998 24.265 75.998 31.935 73.548 31.935 73.548 14.516 75.998 14.516 75.998 22.112 84.19 22.112 84.19 14.516z"/>
        <path stroke="#B51647" stroke-width=".6" d="M86.613 14.516L86.613 31.935 84.19 31.935 84.19 24.265 75.998 24.265 75.998 31.935 73.548 31.935 73.548 14.516 75.998 14.516 75.998 22.112 84.19 22.112 84.19 14.516z"/>
        <path fill="#B51647" d="M91.549 30.54C90.515 29.609 90 28.136 90 26.123v-12.09h2.438v12.14c0 2.392 1.265 3.585 3.788 3.585 1.321 0 2.31-.29 2.961-.87.651-.58.978-1.486.978-2.716v-12.14h2.416v12.09c0 2.014-.522 3.487-1.563 4.418-1.043.931-2.622 1.395-4.741 1.395-2.117 0-3.695-.464-4.728-1.395"/>
        <path stroke="#B51647" stroke-width=".6" d="M91.549 30.54C90.515 29.609 90 28.136 90 26.123v-12.09h2.438v12.14c0 2.392 1.265 3.585 3.788 3.585 1.321 0 2.31-.29 2.961-.87.651-.58.978-1.486.978-2.716v-12.14h2.416v12.09c0 2.014-.522 3.487-1.563 4.418-1.043.931-2.622 1.395-4.741 1.395-2.117 0-3.695-.464-4.728-1.395z"/>
        <path fill="#B51647" d="M111.891 24.442L109.269 24.619 109.269 31.935 106.935 31.935 106.935 14.516 109.269 14.516 109.269 22.493 111.891 22.316 115.682 14.516 118.329 14.516 113.909 23.276 118.548 31.935 115.827 31.935z"/>
        <path stroke="#B51647" stroke-width=".6" d="M111.891 24.442L109.269 24.619 109.269 31.935 106.935 31.935 106.935 14.516 109.269 14.516 109.269 22.493 111.891 22.316 115.682 14.516 118.329 14.516 113.909 23.276 118.548 31.935 115.827 31.935z"/>
        <path fill="#B51647" d="M130.245 29.124c.644-.446 1.097-1.149 1.36-2.105.263-.96.395-2.27.395-3.934 0-1.664-.136-2.997-.408-3.997-.27-1-.733-1.739-1.384-2.219-.652-.48-1.555-.718-2.708-.718-1.152 0-2.055.238-2.707.718-.654.48-1.114 1.215-1.386 2.206-.27.993-.407 2.32-.407 3.985 0 1.63.132 2.924.395 3.882.262.959.716 1.674 1.36 2.143.645.472 1.559.707 2.745.707 1.186 0 2.101-.223 2.745-.668m-6.888 1.878c-1.018-.623-1.75-1.575-2.199-2.861-.449-1.286-.674-2.98-.674-5.08 0-2.086.225-3.789.674-5.107.448-1.32 1.185-2.303 2.21-2.951 1.026-.647 2.404-.97 4.132-.97 1.73 0 3.106.323 4.131.97 1.024.648 1.762 1.626 2.212 2.938.449 1.312.673 3.027.673 5.144 0 2.101-.22 3.79-.661 5.068-.44 1.277-1.168 2.226-2.186 2.85-1.016.621-2.406.932-4.169.932-1.746 0-3.126-.31-4.143-.933"/>
        <path stroke="#B51647" stroke-width=".6" d="M130.245 29.124c.644-.446 1.097-1.149 1.36-2.105.263-.96.395-2.27.395-3.934 0-1.664-.136-2.997-.408-3.997-.27-1-.733-1.739-1.384-2.219-.652-.48-1.555-.718-2.708-.718-1.152 0-2.055.238-2.707.718-.654.48-1.114 1.215-1.386 2.206-.27.993-.407 2.32-.407 3.985 0 1.63.132 2.924.395 3.882.262.959.716 1.674 1.36 2.143.645.472 1.559.707 2.745.707 1.186 0 2.101-.223 2.745-.668zm-6.888 1.878c-1.018-.623-1.75-1.575-2.199-2.861-.449-1.286-.674-2.98-.674-5.08 0-2.086.225-3.789.674-5.107.448-1.32 1.185-2.303 2.21-2.951 1.026-.647 2.404-.97 4.132-.97 1.73 0 3.106.323 4.131.97 1.024.648 1.762 1.626 2.212 2.938.449 1.312.673 3.027.673 5.144 0 2.101-.22 3.79-.661 5.068-.44 1.277-1.168 2.226-2.186 2.85-1.016.621-2.406.932-4.169.932-1.746 0-3.126-.31-4.143-.933z"/>
        <path fill="#B51647" d="M146.697 29.124c.643-.446 1.097-1.149 1.36-2.105.263-.96.394-2.27.394-3.934 0-1.664-.135-2.997-.408-3.997-.27-1-.732-1.739-1.384-2.219-.651-.48-1.555-.718-2.707-.718s-2.055.238-2.707.718c-.655.48-1.115 1.215-1.386 2.206-.27.993-.407 2.32-.407 3.985 0 1.63.132 2.924.395 3.882.262.959.716 1.674 1.36 2.143.644.472 1.558.707 2.745.707 1.186 0 2.101-.223 2.745-.668m-6.889 1.878c-1.017-.623-1.75-1.575-2.198-2.861-.45-1.286-.675-2.98-.675-5.08 0-2.086.226-3.789.675-5.107.448-1.32 1.185-2.303 2.21-2.951 1.026-.647 2.403-.97 4.132-.97 1.729 0 3.105.323 4.13.97 1.025.648 1.762 1.626 2.212 2.938.45 1.312.674 3.027.674 5.144 0 2.101-.22 3.79-.662 5.068-.44 1.277-1.168 2.226-2.186 2.85-1.015.621-2.406.932-4.168.932-1.746 0-3.127-.31-4.144-.933"/>
        <path stroke="#B51647" stroke-width=".6" d="M146.697 29.124c.643-.446 1.097-1.149 1.36-2.105.263-.96.394-2.27.394-3.934 0-1.664-.135-2.997-.408-3.997-.27-1-.732-1.739-1.384-2.219-.651-.48-1.555-.718-2.707-.718s-2.055.238-2.707.718c-.655.48-1.115 1.215-1.386 2.206-.27.993-.407 2.32-.407 3.985 0 1.63.132 2.924.395 3.882.262.959.716 1.674 1.36 2.143.644.472 1.558.707 2.745.707 1.186 0 2.101-.223 2.745-.668zm-6.889 1.878c-1.017-.623-1.75-1.575-2.198-2.861-.45-1.286-.675-2.98-.675-5.08 0-2.086.226-3.789.675-5.107.448-1.32 1.185-2.303 2.21-2.951 1.026-.647 2.403-.97 4.132-.97 1.729 0 3.105.323 4.13.97 1.025.648 1.762 1.626 2.212 2.938.45 1.312.674 3.027.674 5.144 0 2.101-.22 3.79-.662 5.068-.44 1.277-1.168 2.226-2.186 2.85-1.015.621-2.406.932-4.168.932-1.746 0-3.127-.31-4.144-.933z"/>
        <path fill="#B51647" d="M171.29 14.516L171.29 31.935 168.839 31.935 168.839 17.15 168.456 17.15 163.884 31.253 161.279 31.253 156.681 17.15 156.323 17.15 156.323 31.935 153.871 31.935 153.871 14.516 158.163 14.516 162.581 28.72 166.973 14.516z"/>
        <path stroke="#B51647" stroke-width=".6" d="M171.29 14.516L171.29 31.935 168.839 31.935 168.839 17.15 168.456 17.15 163.884 31.253 161.279 31.253 156.681 17.15 156.323 17.15 156.323 31.935 153.871 31.935 153.871 14.516 158.163 14.516 162.581 28.72 166.973 14.516z"/>
        <path fill="#B51647" d="M176.129 31.935L178.065 31.935 178.065 14.516 176.129 14.516z"/>
        <path stroke="#B51647" stroke-width=".6" d="M176.129 31.935L178.065 31.935 178.065 14.516 176.129 14.516z"/>
        <path fill="#B51647" d="M76.957 46.723c.287-.218.492-.566.61-1.044.116-.477.176-1.131.176-1.96 0-.83-.061-1.497-.183-2-.121-.501-.328-.872-.622-1.11-.291-.239-.695-.36-1.213-.36-.517 0-.921.121-1.213.36-.293.238-.5.605-.621 1.1-.121.494-.182 1.155-.182 1.985 0 .812.056 1.457.17 1.935.115.478.316.834.61 1.07.292.233.706.35 1.236.35.532 0 .943-.108 1.232-.326zm-.423 1.295c-.204.066-.475.1-.809.1-.783 0-1.403-.156-1.863-.465-.46-.31-.789-.786-.986-1.426-.197-.642-.295-1.486-.295-2.533 0-1.04.1-1.888.3-2.546.202-.657.532-1.148.994-1.469.459-.323 1.075-.485 1.85-.485.775 0 1.392.162 1.853.485.458.321.79.81.99 1.462.202.656.303 1.505.303 2.553 0 1.039-.101 1.875-.303 2.507-.2.632-.526 1.104-.974 1.415l.968 1.708-1.013.515-1.015-1.821zM83.68 47.218l.251-.085v-1.771l-1.558.145c-.312.03-.541.126-.69.283-.148.156-.221.388-.221.692 0 .643.267.964.803.964.487 0 .959-.075 1.414-.228m-2.913.687c-.295-.322-.443-.784-.443-1.385 0-.596.152-1.033.455-1.31.304-.276.787-.446 1.452-.51l1.701-.157v-.47c0-.354-.076-.609-.228-.766-.152-.157-.376-.235-.67-.235-.673 0-1.448.049-2.327.144l-.035-.818c.846-.202 1.634-.301 2.361-.301.703 0 1.216.158 1.536.476.318.317.478.816.478 1.5v2.904c.015.16.07.282.162.367.09.085.237.142.437.174l-.036.87c-.343 0-.636-.04-.875-.116-.24-.077-.452-.196-.635-.356-.68.314-1.359.471-2.038.471-.569 0-.998-.16-1.295-.482M87.644 48.175c-.243-.142-.418-.378-.526-.71-.107-.334-.16-.794-.16-1.384v-3.066h-.829v-.998h.83v-1.856h1.15v1.856h1.817v.998h-1.818v2.855c0 .39.014.682.044.878.029.195.096.345.205.449.106.103.28.155.519.155l1.05-.062.074.946c-.576.1-1.022.151-1.335.151-.437 0-.778-.07-1.021-.212M94.324 47.218l.252-.085v-1.771l-1.559.145c-.312.03-.54.126-.69.283-.147.156-.22.388-.22.692 0 .643.267.964.803.964.486 0 .959-.075 1.414-.228m-2.913.687c-.295-.322-.443-.784-.443-1.385 0-.596.152-1.033.454-1.31.305-.276.787-.446 1.453-.51l1.701-.157v-.47c0-.354-.077-.609-.228-.766-.152-.157-.376-.235-.67-.235-.673 0-1.448.049-2.327.144l-.035-.818c.846-.202 1.634-.301 2.362-.301.702 0 1.214.158 1.534.476.318.317.478.816.478 1.5v2.904c.016.16.07.282.162.367.092.085.238.142.438.174l-.036.87c-.343 0-.636-.04-.875-.116-.24-.077-.452-.196-.636-.356-.678.314-1.357.471-2.038.471-.567 0-.997-.16-1.294-.482M97.258 41.748h1.163v.775c.749-.468 1.491-.77 2.224-.91v1.157c-.328.066-.669.156-1.024.27-.354.115-.648.227-.885.333l-.302.135v4.395h-1.176v-6.155zM108.174 44.831c0-.65-.107-1.112-.323-1.385-.217-.274-.58-.41-1.086-.41-.534 0-.924.142-1.171.428-.245.285-.372.741-.38 1.367h2.96zm-3.519 2.839c-.414-.479-.623-1.235-.623-2.272 0-1.116.223-1.945.668-2.49.443-.54 1.132-.811 2.065-.811 1.727 0 2.59.931 2.59 2.795l-.076.82h-4.053c.008.433.068.77.18 1.006.108.237.286.407.533.512.244.103.592.156 1.04.156.263 0 .56-.005.89-.018.33-.01.627-.03.89-.054l.355-.035.025.866c-.99.16-1.79.242-2.4.242-.976 0-1.668-.239-2.084-.717zM110.806 45L114.677 45 114.677 44.032 110.806 44.032zM117.038 47.895c-.5-.327-.857-.827-1.07-1.495-.215-.669-.323-1.543-.323-2.623 0-1.078.11-1.95.328-2.614.217-.665.574-1.16 1.065-1.484.492-.324 1.153-.485 1.986-.485.755 0 1.578.087 2.47.26l.441.089-.05.998c-1.033-.157-1.912-.234-2.635-.234-.655 0-1.151.123-1.486.371-.336.246-.565.616-.682 1.114-.118.495-.177 1.187-.177 2.076 0 .856.066 1.525.196 2.013.13.49.36.845.688 1.07.327.224.789.335 1.386.335.571 0 1.092-.042 1.563-.129v-2.433h-1.248v-1.102h2.445v4.455c-1.109.207-2.067.31-2.873.31-.85 0-1.523-.164-2.024-.492M126.47 47.205c.214-.135.366-.356.456-.661.088-.305.133-.732.133-1.278 0-.57-.047-1.012-.14-1.325-.093-.313-.247-.537-.46-.67-.216-.132-.514-.198-.894-.198-.381 0-.682.066-.9.199-.218.132-.375.357-.468.674-.093.317-.139.758-.139 1.32 0 .539.045.963.134 1.272.088.308.242.532.46.667.22.139.524.206.913.206.388 0 .69-.067.905-.206m-2.947.43c-.412-.502-.62-1.292-.62-2.369 0-1.1.211-1.903.632-2.41.421-.506 1.097-.76 2.03-.76.939 0 1.618.256 2.035.766.418.51.626 1.311.626 2.404 0 1.07-.208 1.856-.62 2.362-.413.507-1.094.76-2.04.76-.95 0-1.63-.252-2.043-.753M129.677 41.613L130.855 41.613 132.128 46.896 132.537 46.896 133.86 41.613 135 41.613 133.39 47.903 131.287 47.903zM139.626 44.831c0-.65-.108-1.112-.324-1.385-.216-.274-.58-.41-1.085-.41-.535 0-.925.142-1.172.428-.245.285-.372.741-.38 1.367h2.961zm-3.52 2.839c-.413-.479-.622-1.235-.622-2.272 0-1.116.223-1.945.667-2.49.444-.54 1.132-.811 2.066-.811 1.727 0 2.59.931 2.59 2.795l-.076.82h-4.054c.008.433.069.77.18 1.006.109.237.286.407.533.512.245.103.592.156 1.04.156.264 0 .56-.005.89-.018.331-.01.628-.03.89-.054l.356-.035.025.866c-.99.16-1.79.242-2.4.242-.976 0-1.669-.239-2.084-.717zM142.258 41.748h1.163v.775c.75-.468 1.491-.77 2.224-.91v1.157c-.327.066-.669.156-1.024.27-.353.115-.648.227-.884.333l-.302.135v4.395h-1.177v-6.155zM146.613 41.748h1.088v.407c.34-.197.647-.338.923-.419.276-.083.568-.123.876-.123.497 0 .887.102 1.172.309.283.204.484.521.602.953.118.43.178 1.014.178 1.754v3.274h-1.101v-3.249c0-.518-.029-.918-.088-1.201-.06-.283-.17-.487-.332-.615-.161-.127-.396-.19-.703-.19-.419 0-.856.094-1.313.282l-.201.099v4.874h-1.101v-6.155zM152.42 41.748h1.2v.407c.332-.182.645-.317.941-.407.298-.09.601-.135.915-.135.34 0 .653.05.94.155.288.102.514.255.679.46.348-.18.73-.328 1.143-.442.413-.115.834-.173 1.261-.173.539 0 .962.102 1.265.309.307.204.524.524.655.96.13.433.194 1.016.194 1.747v3.274h-1.214v-3.249c0-.518-.033-.918-.099-1.201-.063-.283-.181-.487-.351-.615-.17-.127-.421-.19-.75-.19-.244 0-.498.025-.76.078-.26.055-.49.122-.69.204l-.237.099c.097.353.146.911.146 1.673v3.201h-1.228v-3.176c0-.55-.031-.97-.093-1.261-.06-.292-.177-.5-.346-.628-.17-.127-.42-.19-.75-.19-.245 0-.494.027-.75.085-.258.058-.474.123-.648.197l-.208.099v4.874h-1.216v-6.155zM167.69 44.831c0-.65-.107-1.112-.324-1.385-.216-.274-.58-.41-1.086-.41-.534 0-.924.142-1.171.428-.245.285-.372.741-.38 1.367h2.96zm-3.52 2.839c-.414-.479-.622-1.235-.622-2.272 0-1.116.222-1.945.667-2.49.443-.54 1.133-.811 2.065-.811 1.727 0 2.591.931 2.591 2.795l-.076.82h-4.054c.009.433.07.77.18 1.006.108.237.286.407.533.512.245.103.592.156 1.04.156.263 0 .56-.005.89-.018.33-.01.627-.03.89-.054l.355-.035.025.866c-.989.16-1.79.242-2.4.242-.975 0-1.668-.239-2.084-.717zM169.839 41.748h1.088v.407c.34-.197.647-.338.923-.419.276-.083.568-.123.876-.123.497 0 .887.102 1.171.309.284.204.485.521.603.953.118.43.177 1.014.177 1.754v3.274h-1.1v-3.249c0-.518-.029-.918-.088-1.201-.06-.283-.17-.487-.332-.615-.162-.127-.396-.19-.703-.19-.419 0-.856.094-1.313.282l-.201.099v4.874h-1.101v-6.155zM177.644 48.175c-.244-.142-.42-.378-.526-.71-.107-.334-.16-.794-.16-1.384v-3.066h-.829v-.998h.829v-1.856h1.15v1.856h1.818v.998h-1.818v2.855c0 .39.013.682.044.878.028.195.096.345.204.449.106.103.28.155.519.155l1.051-.062.074.946c-.577.1-1.022.151-1.335.151-.438 0-.779-.07-1.021-.212"/>
    </g>
</svg>
