<svg xmlns="http://www.w3.org/2000/svg" width="50" height="50" viewBox="0 0 50 50">
    <g fill="none" fill-rule="evenodd" stroke="#CD4A04" stroke-linecap="round" stroke-linejoin="round" stroke-width="1.5">
        <path d="M24.909 6.496c10.168 0 18.412 8.243 18.412 18.412 0 10.17-8.244 18.413-18.412 18.413-10.17 0-18.413-8.243-18.413-18.413 0-10.169 8.243-18.412 18.413-18.412z"/>
        <path d="M24.909.815C38.214.815 49 11.602 49 24.91c0 13.306-10.787 24.093-24.092 24.093C11.602 49.002.815 38.215.815 24.91.815 11.602 11.602.815 24.91.815z"/>
        <path d="M21.186 16.094v15.083c0 1.566-1.175 2.742-2.741 2.742-1.567 0-2.743-1.176-2.743-2.742v-2.939M24.516 15.31v11.557c0 1.176 1.176 2.154 2.743 2.154S30 28.043 30 26.867v-2.154M33.135 27.063s4.31 6.857-4.31 7.444M27.259 31.96L27.259 31.96M23.929 31.96L23.929 31.96"/>
    </g>
</svg>
